<?xml version="1.0" encoding="UTF-8" standalone="no"?>
<!-- Created with Inkscape (http://www.inkscape.org/) -->

<svg
   width="419.27838mm"
   height="263.62982mm"
   viewBox="0 0 381.16208 239.66347"
   version="1.1"
   id="svg431"
   inkscape:version="1.2.1 (9c6d41e410, 2022-07-14)"
   sodipodi:docname="home_event_digital.svg"
   xml:space="preserve"
   xmlns:inkscape="http://www.inkscape.org/namespaces/inkscape"
   xmlns:sodipodi="http://sodipodi.sourceforge.net/DTD/sodipodi-0.dtd"
   xmlns="http://www.w3.org/2000/svg"
   xmlns:svg="http://www.w3.org/2000/svg"><sodipodi:namedview
     id="namedview433"
     pagecolor="#ffffff"
     bordercolor="#000000"
     borderopacity="0.25"
     inkscape:showpageshadow="2"
     inkscape:pageopacity="0.0"
     inkscape:pagecheckerboard="0"
     inkscape:deskcolor="#d1d1d1"
     inkscape:document-units="mm"
     showgrid="false"
     inkscape:zoom="0.5"
     inkscape:cx="522"
     inkscape:cy="542"
     inkscape:window-width="1920"
     inkscape:window-height="1027"
     inkscape:window-x="1912"
     inkscape:window-y="-8"
     inkscape:window-maximized="1"
     inkscape:current-layer="g4214" /><defs
     id="defs428" /><g
     inkscape:label="Calque 1"
     inkscape:groupmode="layer"
     id="layer1"
     transform="translate(-57.077006,-76.333465)"><g
       id="g2240"
       transform="translate(-492.69047,40.347656)"><g
         id="g4214"
         style="opacity:1"><ellipse
           cx="-742.90588"
           cy="249.50517"
           rx="177.26343"
           ry="3.6588485"
           fill="#3f3d56"
           id="ellipse2832-6"
           transform="scale(-1,1)"
           style="stroke-width:0.212818" /><path
           d="m 718.85246,242.01075 c -0.89059,0.0409 -1.34749,-1.05178 -0.69285,-1.65698 0.0241,-0.0958 0.0414,-0.16462 0.0655,-0.26043 -0.84566,-2.14826 -3.87565,-2.17683 -4.76167,-0.0449 -1.13301,2.65203 -2.5994,5.3975 -1.87014,8.31853 -4.817,-10.20905 -3.17886,-22.90815 3.94001,-31.63879 1.96775,-1.08395 3.56264,-3.00979 3.97785,-5.24594 -0.97385,0.32997 -2.18806,-0.46216 -1.45583,-1.48797 0.31738,-0.39206 0.63784,-0.78103 0.9552,-1.17311 -3.69933,-3.93975 -8.10702,2.25213 -4.03513,7.56959 -1.33203,1.67005 -2.48583,3.47478 -3.44258,5.38476 0.22094,-2.02813 -0.0428,-4.07973 -0.76941,-5.98606 -0.73646,-1.77662 -2.11684,-3.27289 -3.33243,-4.8088 -1.47798,-1.87142 -4.51987,-1.00804 -4.71876,1.36682 1.364,0.44832 1.5412,2.4186 -0.019,2.68826 0.40867,4.418 3.29498,8.4781 7.2703,10.41568 -1.46804,4.11907 -2.04129,8.50373 -1.68153,12.86177 -0.7017,-5.09323 -6.16894,-6.32922 -9.9903,-8.35355 -1.09041,-0.69927 -2.4918,0.23147 -2.27015,1.50773 0.52743,0.21446 1.03224,0.48078 1.50702,0.79504 1.01358,0.68147 0.61235,2.25806 -0.60368,2.37211 1.92621,4.76727 6.90623,7.96853 12.02101,7.95051 0.49153,2.13593 1.2037,4.21499 2.12504,6.20368 1.05076,-0.2869 4.30446,0.38352 5.56698,-0.38092 1.85906,-2.20109 3.29679,-3.32406 2.21483,-6.39689 z"
           fill="#f2f2f2"
           id="path1393"
           style="stroke-width:0.264583"
           sodipodi:nodetypes="cccccccccccccccccccccccccc" /><path
           d="m 886.49048,242.94412 c 0.89059,0.0409 1.34749,-1.05178 0.69285,-1.65698 -0.0241,-0.0958 -0.0414,-0.16462 -0.0655,-0.26043 0.84566,-2.14826 3.87565,-2.17683 4.76167,-0.0449 1.13301,2.65203 2.5994,5.3975 1.87014,8.31853 4.817,-10.20905 3.17886,-22.90815 -3.94001,-31.63879 -1.96775,-1.08395 -3.56264,-3.00979 -3.97785,-5.24594 0.97385,0.32997 2.18806,-0.46216 1.45583,-1.48797 -0.31738,-0.39206 -0.63784,-0.78103 -0.9552,-1.17311 3.69933,-3.93975 8.10702,2.25213 4.03513,7.56959 1.33203,1.67005 2.48583,3.47478 3.44258,5.38476 -0.22094,-2.02813 0.0428,-4.07973 0.76941,-5.98606 0.73646,-1.77662 2.11684,-3.27289 3.33243,-4.8088 1.47798,-1.87142 4.51987,-1.00804 4.71876,1.36682 -1.364,0.44832 -1.5412,2.4186 0.019,2.68826 -0.40867,4.418 -3.29498,8.4781 -7.2703,10.41568 1.46804,4.11907 2.04129,8.50373 1.68153,12.86177 0.7017,-5.09323 6.16894,-6.32922 9.9903,-8.35355 1.09041,-0.69927 2.4918,0.23147 2.27015,1.50773 -0.52743,0.21446 -1.03224,0.48078 -1.50702,0.79504 -1.01358,0.68147 -0.61235,2.25806 0.60368,2.37211 -1.92621,4.76727 -6.90623,7.96853 -12.02101,7.95051 -0.49153,2.13593 -1.2037,4.21499 -2.12504,6.20368 -1.05076,-0.2869 -4.30446,0.38352 -5.56698,-0.38092 -1.85906,-2.20109 -3.29679,-3.32406 -2.21483,-6.39689 z"
           fill="#f2f2f2"
           id="path1393-0"
           style="stroke-width:0.264583"
           sodipodi:nodetypes="cccccccccccccccccccccccccc" /><path
           d="m 588.71143,236.68881 c -1.84655,6.16828 1.01927,12.47469 1.01927,12.47469 0,0 5.85967,-3.69433 7.70622,-9.86261 1.84655,-6.16829 -1.01927,-12.47469 -1.01927,-12.47469 0,0 -5.85966,3.69435 -7.70622,9.86261 z"
           fill="#f2f2f2"
           id="path80"
           style="stroke-width:0.264583" /><path
           d="m 591.51509,236.85565 c 1.55413,6.24836 -1.60541,12.41287 -1.60541,12.41287 0,0 -5.67928,-3.96607 -7.2334,-10.21443 -1.55411,-6.24836 1.6054,-12.41287 1.6054,-12.41287 0,0 5.67928,3.96606 7.23341,10.21443 z"
           fill="#f2f2f2"
           id="path82"
           style="stroke-width:0.264583" /><polygon
           points="435.535,638.619 439.977,627.192 398.017,604.619 391.461,621.484 "
           fill="#ffb8b8"
           id="polygon84"
           transform="matrix(0.26458333,0,0,0.26458333,568.63723,74.092208)"
           style="fill:#a0616a;fill-opacity:1" /><path
           d="m 690.17006,235.1731 a 4.0689424,4.0689424 0 0 0 -5.2693,2.31931 l -0.79293,2.03808 -1.22243,3.14592 -0.29883,0.77137 3.91744,1.52387 3.78922,-9.74967 z"
           fill="#2f2e41"
           id="path86"
           style="stroke-width:0.264583" /><path
           d="m 682.88587,237.24166 -0.51121,1.3556 -1.27578,3.38356 -0.0306,0.0846 c -3.25038,0.41764 -6.81365,-0.40111 -10.10942,-1.67302 a 41.092919,41.092919 0 0 1 -3.86938,-1.72661 c -1.86379,-0.94173 -3.53258,-1.93566 -4.86389,-2.78574 -2.00445,-1.28649 -3.24388,-2.25246 -3.24388,-2.25246 0,0 -0.32744,0.29589 -0.91996,0.8033 -0.79415,0.67949 -2.06314,1.74055 -3.67053,2.98957 q -0.91976,0.71969 -1.97506,1.50557 c -5.18613,3.84673 -11.84157,-6.41776 -11.84157,-6.41776 0,0 1.87181,-1.19169 2.3608,-1.42309 1.57459,-0.74495 5.27376,-2.50277 8.46517,-4.06491 1.64419,-0.80603 3.15167,-1.56171 4.16378,-2.0988 3.58399,-1.90818 8.03916,1.70252 8.03916,1.70252 z"
           fill="#2f2e41"
           id="path88"
           style="stroke-width:0.264583" /><path
           d="m 682.88587,237.24166 -0.51121,1.3556 -1.27578,3.38356 -0.0306,0.0846 c -3.25038,0.41764 -6.81365,-0.40111 -10.10942,-1.67302 a 41.092919,41.092919 0 0 1 -3.86938,-1.72661 c -1.86379,-0.94173 -3.53258,-1.93566 -4.86389,-2.78574 -2.00445,-1.28649 -3.24388,-2.25246 -3.24388,-2.25246 0,0 -0.32744,0.29589 -0.91996,0.8033 -0.79415,0.67949 -2.06314,1.74055 -3.67053,2.98957 q -0.91976,0.71969 -1.97506,1.50557 c -5.18613,3.84673 -11.84157,-6.41776 -11.84157,-6.41776 0,0 1.87181,-1.19169 2.3608,-1.42309 1.57459,-0.74495 5.27376,-2.50277 8.46517,-4.06491 1.64419,-0.80603 3.15167,-1.56171 4.16378,-2.0988 3.58399,-1.90818 8.03916,1.70252 8.03916,1.70252 z"
           opacity="0.14"
           id="path90"
           style="stroke-width:0.264583" /><circle
           cx="617.44958"
           cy="97.31366"
           fill="#6c63ff"
           id="circle92"
           style="fill:#786fa6;fill-opacity:1;stroke-width:0.338566"
           r="58.338909" /><path
           d="m 574.37409,58.34788 a 58.343457,58.343457 0 0 0 97.20986,61.74421 58.343932,58.343932 0 1 1 -97.20986,-61.74421 z"
           opacity="0.2"
           style="isolation:isolate;stroke-width:0.338566"
           id="path94" /><polygon
           points="184.052,172.311 184.526,172.311 193.047,660.843 175.058,660.843 "
           fill="#3f3d56"
           id="polygon96"
           transform="matrix(0.26458333,0,0,0.26458333,568.63723,74.092208)" /><rect
           x="124.29307"
           y="623.10834"
           width="2.254488"
           height="8.5169716"
           transform="rotate(-62.23413)"
           fill="#3f3d56"
           id="rect98"
           style="stroke-width:0.264583" /><path
           d="m 631.01169,208.78536 h -15.34583 a 1.1919691,1.1919691 0 0 1 -1.19063,-1.19062 v -6.61458 a 8.863545,8.863545 0 0 1 17.72709,0 v 6.61458 a 1.1919691,1.1919691 0 0 1 -1.19063,1.19062 z"
           fill="#2f2e41"
           id="path102"
           style="stroke-width:0.264583" /><path
           d="m 645.60547,217.09376 a 2.4809979,2.4809979 0 0 0 -1.90116,3.29519 l -4.17288,3.83799 1.71385,3.1047 5.81679,-5.50275 a 2.4944361,2.4944361 0 0 0 -1.4566,-4.73513 z"
           fill="#ffb8b8"
           id="path104"
           style="stroke-width:0.264583;fill:#a0616a;fill-opacity:1" /><path
           d="m 633.0495,234.54347 q -0.28274,0 -0.56631,-0.0244 a 6.6673121,6.6673121 0 0 1 -5.3704,-3.58649 l -6.68531,-12.86743 a 3.6920434,3.6920434 0 0 1 6.38436,-3.69486 l 6.16765,13.83869 8.39238,-6.81884 4.85926,1.89161 -8.20634,9.05978 a 6.742848,6.742848 0 0 1 -4.97529,2.20196 z"
           fill="#cccccc"
           id="path106"
           style="stroke-width:0.264583" /><path
           d="m 657.77892,214.6614 -7.43524,-7.43525 a 1.3869273,1.3869273 0 0 0 -1.9614,0 l -6.68864,6.68864 a 1.3869246,1.3869246 0 0 0 0,1.96139 l 6.94703,6.94703 a 1.3869141,1.3869141 0 0 0 1.8874,0.0688 l 7.17685,-6.20041 a 1.3869167,1.3869167 0 0 0 0.14279,-1.9562 q -0.033,-0.0382 -0.0688,-0.074 z"
           fill="#3f3d56"
           id="path108"
           style="stroke-width:0.264583" /><polygon
           points="332.935,536.213 304.009,507.288 280.138,531.159 307.941,558.961 "
           fill="#f2f2f2"
           id="polygon110"
           style="fill:#f78fb3;fill-opacity:1"
           transform="matrix(0.26458333,0,0,0.26458333,568.63723,74.092208)" /><polygon
           points="431.99,654.69 437.297,643.639 397.196,617.909 389.363,634.22 "
           fill="#ffb8b8"
           id="polygon130"
           transform="matrix(0.26458333,0,0,0.26458333,568.63723,74.092208)"
           style="fill:#a0616a;fill-opacity:1" /><path
           d="m 689.81961,239.93247 a 4.0689424,4.0689424 0 0 0 -5.43189,1.90764 l -0.94717,1.97115 -1.4605,3.04271 -0.35721,0.74612 3.78879,1.82034 4.52705,-9.42975 z"
           fill="#2f2e41"
           id="path132"
           style="stroke-width:0.264583" /><path
           d="m 682.39804,241.4353 -0.61385,1.31233 -1.53194,3.27554 -0.037,0.082 c -3.27287,0.16668 -6.76271,-0.9234 -9.95101,-2.44475 a 41.092837,41.092837 0 0 1 -3.72529,-2.01878 c -1.78594,-1.08214 -3.37344,-2.20133 -4.6355,-3.15118 -1.8997,-1.43669 -3.06125,-2.49502 -3.06125,-2.49502 0,0 -0.34921,0.26987 -0.97895,0.73025 -0.844,0.61648 -2.19075,1.57691 -3.88937,2.69875 q -0.97233,0.6469 -2.08489,1.34937 c -5.46633,3.43694 -13.23975,7.62265 -19.85176,8.50636 -11.61253,1.5531 -8.87937,-13.94355 -8.87937,-13.94355 l 9.24188,-4.79954 3.92379,0.7964 4.36827,0.88371 1.54778,0.31485 c 0,0 0.29371,-0.11112 0.79904,-0.30427 1.62716,-0.62177 5.45044,-2.09021 8.75244,-3.40256 1.70125,-0.67733 3.26233,-1.31497 4.31271,-1.7727 3.71999,-1.62719 7.88458,2.3151 7.88458,2.3151 z"
           fill="#2f2e41"
           id="path134"
           style="stroke-width:0.264583" /><path
           d="m 606.24636,249.65019 a 2.4809979,2.4809979 0 0 0 1.72826,-3.38908 l 3.96886,-4.04861 -1.87208,-3.01194 -5.5245,5.79614 a 2.4944361,2.4944361 0 0 0 1.69947,4.65349 z"
           fill="#ffb8b8"
           id="path136"
           style="stroke-width:0.264583;fill:#a0616a;fill-opacity:1" /><circle
           cx="625.51147"
           cy="202.89308"
           r="6.1876116"
           fill="#ffb8b8"
           id="circle138"
           style="stroke-width:0.264583;fill:#a0616a;fill-opacity:1" /><path
           d="m 617.46162,220.06915 5.39006,15.28123 -0.0324,0.0535 c -0.7497,1.23933 -0.99471,2.23901 -0.70848,2.89091 a 1.2597262,1.2597262 0 0 0 0.79865,0.68897 l 12.75523,-8.9156 -0.44661,-3.5733 0.0249,-0.0399 c 1.23287,-1.97262 1.63207,-3.75907 1.18668,-5.30949 -0.57794,-2.0119 -2.41445,-2.92528 -2.43293,-2.93432 l -0.0445,-0.035 -6.36188,-7.74306 -8.50427,1.51088 z"
           fill="#cccccc"
           id="path140"
           style="stroke-width:0.264583" /><path
           d="m 609.26484,246.89141 -3.61089,-4.44417 8.70463,-14.36941 4.05835,-12.54458 0.1259,0.0407 -0.1259,-0.0407 a 5.0393943,5.0393943 0 1 1 8.98621,4.34883 l -7.45058,11.1625 z"
           fill="#cccccc"
           id="path142"
           style="stroke-width:0.264583" /><path
           d="m 634.29922,201.64162 h -9.3836 l -0.0962,-1.34721 -0.48111,1.34721 h -1.44486 l -0.19069,-2.67013 -0.95356,2.67013 h -2.79576 v -0.1323 a 7.0193296,7.0193296 0 0 1 7.01139,-7.01145 h 1.32298 a 7.0193957,7.0193957 0 0 1 7.01146,7.01145 z"
           fill="#2f2e41"
           id="path144"
           style="stroke-width:0.264583" /><path
           d="m 624.83883,210.02011 a 1.2163425,1.2163425 0 0 1 -0.21072,-0.0186 l -6.87109,-1.21232 v -11.35591 h 7.56375 l -0.18726,0.21833 c -2.6054,3.03857 -0.64253,7.96567 0.75938,10.63217 a 1.1730011,1.1730011 0 0 1 -0.0932,1.24539 1.1858413,1.1858413 0 0 1 -0.96085,0.49094 z"
           fill="#2f2e41"
           id="path146"
           style="stroke-width:0.264583" /><path
           d="m 729.49384,244.75222 c -0.10561,-1.54705 -0.10616,-3.02386 -0.13645,-4.16271 -0.0617,-2.31942 4.9406,-2.15397 7.63038,-2.22552 l 9.76652,-0.463 c 2.68978,-0.0715 4.92832,1.75729 4.99001,4.07672 0.0617,2.31943 -2.07645,4.26467 -4.76624,4.33621 -3.95083,3.42934 -7.01529,3.59614 -12.43489,3.36691 a 5.2865681,5.2865681 0 0 1 -5.04933,-4.92861 z"
           fill="#2f2e41"
           id="path1399"
           style="stroke-width:0.264583" /><polygon
           points="233.382,311.33 243.958,313.058 255.656,273.087 240.047,270.537 "
           fill="#ffb6b6"
           id="polygon1401"
           transform="matrix(0.26458333,0,0,0.26458333,690.20194,189.02012)" /><path
           d="m 753.06289,249.34058 c -5.21726,1.28286 -9.0697,-0.16185 -12.24271,0.0255 -1.80369,-3.04355 -7.56119,-6.90938 -4.41977,-8.53661 1.74945,-0.9062 19.53377,-2.99523 21.86843,-0.58422 3.28725,3.39476 2.82803,9.56945 1.73959,14.46186 q -0.0436,0.19585 -0.0884,0.38888 -0.0827,0.3562 -0.16907,0.7018 c -0.0724,0.29032 -0.57315,0.28547 -0.64785,0.56254 -0.1054,0.39093 0.21445,1.05674 0.10809,1.41664 -0.18222,0.6166 -0.73337,1.19624 -0.53106,1.6873 0.55811,1.35431 -0.59428,2.40722 -0.89994,2.45231 l -4.23334,-1.05834 c -0.29895,-0.0704 -1.00045,-0.81325 0.12092,-1.46554 0.31755,-0.18474 0.0494,-0.7893 0.0701,-1.25283 0.0127,-0.28495 0.024,-0.58537 0.0327,-0.89774 0.0117,-0.41514 0.019,-0.85139 0.0198,-1.30053 0.004,-2.21558 -0.15042,-4.74484 -0.72755,-6.601 z"
           fill="#2f2e41"
           id="path1403"
           style="stroke-width:0.264583" /><path
           d="m 752.19602,267.46372 4.14935,0.84978 -0.46852,1.74981 3.16482,3.7213 a 1.1314933,1.1314933 0 0 1 -1.15456,1.82612 l -4.86225,-1.30191 -0.37465,-1.95522 -0.79067,1.6432 -1.83326,-0.49087 z"
           fill="#2f2e41"
           id="path1405"
           style="stroke-width:0.264583" /><polygon
           points="116.249,241.73 117.164,252.407 158.783,253.959 157.432,238.2 "
           fill="#ffb6b6"
           id="polygon1407"
           transform="matrix(0.26458333,0,0,0.26458333,690.20194,189.02012)" /><path
           d="m 747.74827,247.35744 c -4.81255,-1.76241 -6.61199,-6.05821 -8.15895,-10.56627 2.50907,-2.49418 5.96309,-6.2338 8.31017,-3.58661 1.30708,1.47422 11.70792,14.11852 9.94215,16.97259 -2.71679,4.39122 -11.58208,5.74119 -18.26545,6.11721 q -0.61304,0.0345 -1.19971,0.0585 -0.53876,0.0223 -1.0505,0.037 c -1.38052,0.0401 -2.83533,-0.60021 -3.55028,0.0308 -1.28803,1.13689 -2.14689,0.5886 -2.18927,-0.0603 l -0.26458,-4.49792 c -0.19276,-0.72373 1.83554,-1.33015 2.64583,-0.52917 0.58214,0.57555 0.33371,-0.0787 1.86172,-0.42682 3.69385,-0.84166 8.80311,-2.14862 11.91887,-3.54896 z"
           fill="#2f2e41"
           id="path1409"
           style="stroke-width:0.264583" /><path
           d="m 724.82903,252.25305 0.19237,4.2311 -1.81126,-0.0257 -2.83283,3.97986 a 1.1314933,1.1314933 0 0 1 -2.05328,-0.67214 l 0.0714,-5.03303 1.80391,-0.84211 -1.7868,-0.36413 0.0269,-1.89765 z"
           fill="#2f2e41"
           id="path1411"
           style="stroke-width:0.264583" /><path
           d="m 731.21937,241.80092 a 0.13255625,0.13255625 0 0 1 0.004,-0.1373 c -1.62517,-0.0602 -3.23833,0.31182 -2.81212,-1.17832 0.0609,-0.21288 1.52352,-1.76944 1.60879,-2.00283 0.074,-0.20256 -0.37517,-1.22026 -0.28587,-1.43675 0.17497,-0.42423 0.90809,-0.066 1.12554,-0.5357 0.0765,-0.16525 -0.41177,-0.61723 -0.33179,-0.78722 0.0752,-0.1599 0.71852,-0.0376 0.796,-0.20124 1.45585,-3.07571 3.24144,-6.78669 2.77188,-9.85213 -0.59504,-3.88473 -0.50452,-9.39724 -0.61965,-12.88344 a 3.1109973,3.1109973 0 0 1 2.25054,-3.09024 c 1.0617,-0.30869 2.3346,-0.8528 3.17943,-1.79449 0.22101,-0.24642 0.2477,0.1954 0.27587,-0.40534 0.0344,-0.7317 0.07,-1.48839 0.46068,-1.87904 l 0.017,-0.0169 0.0227,-0.008 c 1.64452,-0.54777 4.42141,-0.19343 5.24704,-0.003 l 0.0358,0.008 0.0222,0.0294 c 0.34134,0.45036 0.32249,1.17095 0.30434,1.86772 -0.0164,0.62694 -0.0318,0.20993 0.24601,0.38849 q 0.32245,0.20743 0.6198,0.39661 c 2.44417,1.55901 3.67107,2.34169 4.56991,4.88833 a 5.0777483,5.0777483 0 0 1 0.31209,2.32503 c -0.3208,2.54835 -1.68237,21.22792 -2.22779,21.87916 -0.14156,0.16903 0.22617,0.46266 0.37854,0.68189 0.21844,0.31466 -0.47579,0.58626 -0.58451,0.79419 -0.0741,0.14165 -0.26546,0.20772 -0.60234,0.20772 -1.26977,-2e-5 -16.41466,3.435 -16.78428,2.74437 z m 0.17419,-0.0262 z"
           fill="#3f3d56"
           id="path1413"
           style="stroke-width:0.264583" /><path
           d="m 741.81817,231.34448 c 0.47311,0.29701 -0.45284,1.01146 -1.01146,1.01146 a 1.0114597,1.0114597 0 0 1 -1.01146,-1.01146 c 0,-0.55861 0.6267,-1.88605 0.88503,-1.39076 0.0705,0.13523 0.52053,1.0032 1.13789,1.39076 z"
           fill="#786fa6"
           id="path1415"
           style="stroke-width:0.264583" /><path
           d="m 743.46178,231.34448 c 0.47311,0.29701 -0.45284,1.01146 -1.01146,1.01146 a 1.0114597,1.0114597 0 0 1 -1.01146,-1.01146 c 0,-0.55861 0.6267,-1.88605 0.88503,-1.39076 0.0705,0.13523 0.52054,1.0032 1.13789,1.39076 z"
           fill="#786fa6"
           id="path1417"
           style="fill:#f78fb3;fill-opacity:1;stroke-width:0.264583" /><path
           d="m 742.67626,231.11748 c -0.53513,-0.16024 0.16704,-1.09555 0.70546,-1.24436 a 1.0114597,1.0114597 0 0 1 1.24436,0.70546 c 0.14881,0.53842 -0.10161,1.98484 -0.48255,1.57627 -0.10401,-0.11156 -0.76897,-0.82828 -1.46727,-1.03737 z"
           fill="#786fa6"
           id="path1419"
           style="stroke-width:0.264583" /><path
           d="m 749.02482,231.34448 c 0.47312,0.29701 -0.45284,1.01146 -1.01145,1.01146 a 1.0114597,1.0114597 0 0 1 -1.01146,-1.01146 c 0,-0.55861 0.6267,-1.88605 0.88503,-1.39076 0.0705,0.13523 0.52052,1.0032 1.13788,1.39076 z"
           fill="#786fa6"
           id="path1421"
           style="stroke-width:0.264583" /><path
           d="m 750.66845,231.34448 c 0.47311,0.29701 -0.45285,1.01146 -1.01146,1.01146 a 1.0114597,1.0114597 0 0 1 -1.01146,-1.01146 c 0,-0.55861 0.6267,-1.88605 0.88503,-1.39076 0.0705,0.13523 0.52053,1.0032 1.13789,1.39076 z"
           fill="#786fa6"
           id="path1423"
           style="stroke-width:0.264583" /><path
           d="m 749.88292,231.11748 c -0.53514,-0.16024 0.16703,-1.09555 0.70546,-1.24436 a 1.0114597,1.0114597 0 0 1 1.24436,0.70546 c 0.14881,0.53842 -0.10162,1.98484 -0.48256,1.57627 -0.104,-0.11156 -0.76896,-0.82828 -1.46726,-1.03737 z"
           fill="#786fa6"
           id="path1425"
           style="fill:#f78fb3;fill-opacity:1;stroke-width:0.264583" /><path
           d="m 738.25112,231.11748 c -0.53513,-0.16024 0.16704,-1.09555 0.70547,-1.24436 a 1.0114624,1.0114624 0 0 1 1.24435,0.70546 c 0.14882,0.53842 -0.10161,1.98484 -0.48255,1.57627 -0.10401,-0.11156 -0.76897,-0.82828 -1.46727,-1.03737 z"
           fill="#786fa6"
           id="path1427"
           style="fill:#f78fb3;fill-opacity:1;stroke-width:0.264583" /><path
           d="m 745.44391,232.19845 c -0.2262,0.51076 -1.06587,-0.30335 -1.14586,-0.85621 a 1.0114624,1.0114624 0 0 1 0.85621,-1.14587 c 0.55286,-0.08 1.95635,0.35019 1.50315,0.67678 -0.12374,0.0892 -0.91832,0.65881 -1.2135,1.3253 z"
           fill="#786fa6"
           id="path1429"
           style="fill:#f78fb3;fill-opacity:1;stroke-width:0.264583" /><path
           d="m 747.38312,230.50461 c 0.13471,-0.54213 1.10223,0.11494 1.27638,0.64572 a 1.0114571,1.0114571 0 0 1 -0.64571,1.27638 c -0.53077,0.17415 -1.98743,-0.007 -1.59736,-0.40733 0.1065,-0.10918 0.79091,-0.80735 0.96669,-1.51477 z"
           fill="#786fa6"
           id="path1431"
           style="fill:#f78fb3;fill-opacity:1;stroke-width:0.264583" /><path
           d="m 746.62452,229.74602 c 0.13471,-0.54214 1.10224,0.11494 1.27639,0.64571 a 1.0114597,1.0114597 0 0 1 -0.64572,1.27639 c -0.53077,0.17415 -1.98742,-0.007 -1.59735,-0.40734 0.1065,-0.10917 0.79091,-0.80734 0.96668,-1.51476 z"
           fill="#786fa6"
           id="path1433"
           style="fill:#786fa6;fill-opacity:1;stroke-width:0.264583" /><path
           d="m 737.00466,234.81681 1.18814,3.87409 a 2.922397,2.922397 0 0 0 2.87289,2.38889 h 8.40677 a 2.9118374,2.9118374 0 0 0 2.88295,-2.44642 l 0.003,-0.0127 1.05264,-3.85681 a 2.7286902,2.7286902 0 0 0 -2.69336,-3.16648 h -11.02865 a 2.7286108,2.7286108 0 0 0 -2.68416,3.21945 z"
           fill="#cccccc"
           id="path1435"
           style="stroke-width:0.264583" /><path
           d="m 744.46434,227.71576 7.28905,-1.84838 1.13302,3.7504 c 0,0 -7.84191,0.58069 -8.13504,0.58341 a 1.8757053,1.8757053 0 1 1 -0.28703,-2.48543 z"
           fill="#ffb6b6"
           id="path1437"
           style="stroke-width:0.264583" /><path
           d="m 749.32855,210.70834 c 5.19718,2.77722 5.88731,8.9684 9.07591,14.40936 0.27875,2.51604 -0.0785,4.72706 -2.60951,4.77172 l -1.18978,0.27713 -0.86562,-0.22977 -0.4573,0.49436 -0.96867,-0.4615 -1.11866,0.21413 -2.31916,0.0534 1.46321,-4.05302 2.08641,-1.18543 -2.46618,-5.96589 z"
           fill="#3f3d56"
           id="path1439"
           style="stroke-width:0.264583" /><path
           d="m 733.44556,200.56006 c 0.84799,-1.1029 0.24743,-2.68064 0.22008,-4.0785 -0.051,-2.60836 2.25292,-4.904 4.75495,-5.24351 2.50203,-0.3395 4.99642,0.9712 6.64509,2.91504 1.61616,1.90553 2.82869,2.90427 3.7036,5.28122 0.29339,0.79706 0.28498,3.06593 0.18321,3.91908 -0.10176,0.85316 -0.74732,1.71231 -1.57507,1.71903 a 0.93447393,0.93447393 0 0 1 -1.23696,1.10364 c -1.44077,-0.6281 -4.38573,-0.44791 -4.38573,-0.44791 q -3.91774,-0.64485 -7.83546,-1.28969 c -0.66922,-0.11015 -1.3626,-0.22935 -1.87453,-0.72735 a 1.3516134,1.3516134 0 0 1 -0.42906,-1.0452 c 0.0679,-1.0106 1.24524,-1.34545 1.82988,-2.10585 z"
           fill="#2f2e41"
           id="path1441"
           style="stroke-width:0.264583" /><circle
           cx="742.05859"
           cy="200.26869"
           r="5.1690636"
           fill="#ffb6b6"
           id="circle1443"
           style="stroke-width:0.264583" /><path
           d="m 745.18003,199.30515 -6.76286,-1.63746 a 1.1490087,1.1490087 0 0 1 -0.85963,-1.35317 4.9880202,4.9880202 0 0 1 5.95553,-3.79444 l 2.00275,0.44852 a 5.027877,5.027877 0 0 1 3.80756,6.00513 v 0 l -0.0421,0.0173 a 6.6149563,6.6149563 0 0 1 -3.98642,0.34083 c -0.0382,-0.008 -0.0767,-0.0175 -0.11482,-0.0267 z"
           fill="#2f2e41"
           id="path1445"
           style="stroke-width:0.264583" /><path
           d="m 738.49227,204.35837 -1.25845,-2.56981 a 1.292098,1.292098 0 0 1 -0.19308,-0.78093 c 0.0505,-0.2684 0.36529,-0.4973 0.59969,-0.35716 0.21751,0.13005 2.33045,-2.95789 2.57759,-2.90181 0.25619,0.0581 0.41641,-0.26488 0.47706,-0.52049 0.22982,-0.96856 -0.7933,-0.10238 -0.84476,-1.0965 -0.0515,-0.99412 -1.24912,-0.41751 -2.03244,-1.03177 -0.78333,-0.61426 -2.01734,-0.69129 -2.73995,-0.007 -0.53578,0.50764 -0.6948,1.28749 -0.80233,2.0177 a 33.671404,33.671404 0 0 0 -0.35845,5.11824 c 0.003,0.42073 0.0399,0.89852 0.36811,1.16178 a 1.4600661,1.4600661 0 0 0 0.61777,0.23866 l 2.69183,0.58892"
           fill="#2f2e41"
           id="path1447"
           style="stroke-width:0.264583" /><circle
           cx="736.95667"
           cy="191.56799"
           r="2.5473316"
           fill="#2f2e41"
           id="circle1449"
           style="stroke-width:0.264583" /><path
           d="m 777.16836,222.26863 v 22.67585 a 1.0906998,1.0906998 0 0 0 1.08983,1.08984 h 33.60327 a 1.0906945,1.0906945 0 0 0 1.08984,-1.08984 V 222.26863 A 1.0912237,1.0912237 0 0 0 811.86146,221.18 h -33.60327 a 1.091229,1.091229 0 0 0 -1.08983,1.08863 z"
           fill="#3f3d56"
           id="path1451"
           style="stroke-width:0.264583" /><path
           d="m 777.95666,222.55077 v 22.11398 a 0.58346445,0.58346445 0 0 0 0.58246,0.58246 h 33.04262 a 0.58345916,0.58345916 0 0 0 0.58245,-0.58246 v -22.11398 a 0.58372374,0.58372374 0 0 0 -0.58245,-0.58367 h -33.04261 a 0.58372903,0.58372903 0 0 0 -0.58247,0.58367 z"
           fill="#786fa6"
           id="path1453"
           style="stroke-width:0.264583" /><path
           d="m 776.46558,249.36687 a 0.65349437,0.65349437 0 0 0 0.51421,0.24602 h 35.9812 a 0.66209332,0.66209332 0 0 0 0.64719,-0.7979 l -0.55854,-2.65304 a 0.66328924,0.66328924 0 0 0 -0.41225,-0.48097 0.64154843,0.64154843 0 0 0 -0.23495,-0.0443 h -34.86633 a 0.64149551,0.64149551 0 0 0 -0.23495,0.0443 0.66322574,0.66322574 0 0 0 -0.41225,0.48097 l -0.55854,2.65304 a 0.66158797,0.66158797 0 0 0 0.13521,0.55188 z"
           fill="#2f2e41"
           id="path1455"
           style="stroke-width:0.264583" /><rect
           x="-812.14685"
           y="-246.77939"
           width="1.1082046"
           height="0.6649217"
           rx="0.12916693"
           transform="scale(-1)"
           fill="#3f3d56"
           id="rect1457"
           style="stroke-width:0.264583" /><rect
           x="-809.93042"
           y="-246.77939"
           width="1.1082046"
           height="0.6649217"
           rx="0.12916693"
           transform="scale(-1)"
           fill="#3f3d56"
           id="rect1459"
           style="stroke-width:0.264583" /><rect
           x="-807.71405"
           y="-246.77939"
           width="1.1082046"
           height="0.6649217"
           rx="0.12916693"
           transform="scale(-1)"
           fill="#3f3d56"
           id="rect1461"
           style="stroke-width:0.264583" /><rect
           x="-805.49762"
           y="-246.77939"
           width="1.1082046"
           height="0.6649217"
           rx="0.12916693"
           transform="scale(-1)"
           fill="#3f3d56"
           id="rect1463"
           style="stroke-width:0.264583" /><rect
           x="-803.28119"
           y="-246.77939"
           width="1.1082046"
           height="0.6649217"
           rx="0.12916693"
           transform="scale(-1)"
           fill="#3f3d56"
           id="rect1465"
           style="stroke-width:0.264583" /><rect
           x="-801.06482"
           y="-246.77939"
           width="1.1082046"
           height="0.6649217"
           rx="0.12916693"
           transform="scale(-1)"
           fill="#3f3d56"
           id="rect1467"
           style="stroke-width:0.264583" /><rect
           x="-798.84839"
           y="-246.77939"
           width="1.1082046"
           height="0.6649217"
           rx="0.12916693"
           transform="scale(-1)"
           fill="#3f3d56"
           id="rect1469"
           style="stroke-width:0.264583" /><rect
           x="-796.63196"
           y="-246.77939"
           width="1.1082046"
           height="0.6649217"
           rx="0.12916693"
           transform="scale(-1)"
           fill="#3f3d56"
           id="rect1471"
           style="stroke-width:0.264583" /><rect
           x="-794.41559"
           y="-246.77939"
           width="1.1082046"
           height="0.6649217"
           rx="0.12916693"
           transform="scale(-1)"
           fill="#3f3d56"
           id="rect1473"
           style="stroke-width:0.264583" /><rect
           x="-792.19916"
           y="-246.77939"
           width="1.1082046"
           height="0.6649217"
           rx="0.12916693"
           transform="scale(-1)"
           fill="#3f3d56"
           id="rect1475"
           style="stroke-width:0.264583" /><rect
           x="-789.98273"
           y="-246.77939"
           width="1.1082046"
           height="0.6649217"
           rx="0.12916693"
           transform="scale(-1)"
           fill="#3f3d56"
           id="rect1477"
           style="stroke-width:0.264583" /><rect
           x="-787.76636"
           y="-246.77939"
           width="1.1082046"
           height="0.6649217"
           rx="0.12916693"
           transform="scale(-1)"
           fill="#3f3d56"
           id="rect1479"
           style="stroke-width:0.264583" /><rect
           x="-785.54993"
           y="-246.77939"
           width="1.1082046"
           height="0.6649217"
           rx="0.12916693"
           transform="scale(-1)"
           fill="#3f3d56"
           id="rect1481"
           style="stroke-width:0.264583" /><rect
           x="-783.3335"
           y="-246.77939"
           width="1.1082046"
           height="0.6649217"
           rx="0.12916693"
           transform="scale(-1)"
           fill="#3f3d56"
           id="rect1483"
           style="stroke-width:0.264583" /><rect
           x="-781.11713"
           y="-246.77939"
           width="1.1082046"
           height="0.6649217"
           rx="0.12916693"
           transform="scale(-1)"
           fill="#3f3d56"
           id="rect1485"
           style="stroke-width:0.264583" /><rect
           x="-778.9007"
           y="-246.77939"
           width="1.1082046"
           height="0.6649217"
           rx="0.12916693"
           transform="scale(-1)"
           fill="#3f3d56"
           id="rect1487"
           style="stroke-width:0.264583" /><rect
           x="-812.17303"
           y="-247.88757"
           width="1.1082046"
           height="0.6649217"
           rx="0.12916693"
           transform="scale(-1)"
           fill="#3f3d56"
           id="rect1489"
           style="stroke-width:0.264583" /><rect
           x="-809.9566"
           y="-247.88757"
           width="1.1082046"
           height="0.6649217"
           rx="0.12916693"
           transform="scale(-1)"
           fill="#3f3d56"
           id="rect1491"
           style="stroke-width:0.264583" /><rect
           x="-807.74023"
           y="-247.88757"
           width="1.1082046"
           height="0.6649217"
           rx="0.12916693"
           transform="scale(-1)"
           fill="#3f3d56"
           id="rect1493"
           style="stroke-width:0.264583" /><rect
           x="-805.5238"
           y="-247.88757"
           width="1.1082046"
           height="0.6649217"
           rx="0.12916693"
           transform="scale(-1)"
           fill="#3f3d56"
           id="rect1495"
           style="stroke-width:0.264583" /><rect
           x="-803.30743"
           y="-247.88757"
           width="1.1082046"
           height="0.6649217"
           rx="0.12916693"
           transform="scale(-1)"
           fill="#3f3d56"
           id="rect1497"
           style="stroke-width:0.264583" /><rect
           x="-801.091"
           y="-247.88757"
           width="1.1082046"
           height="0.6649217"
           rx="0.12916693"
           transform="scale(-1)"
           fill="#3f3d56"
           id="rect1499"
           style="stroke-width:0.264583" /><rect
           x="-798.87457"
           y="-247.88757"
           width="1.1082046"
           height="0.6649217"
           rx="0.12916693"
           transform="scale(-1)"
           fill="#3f3d56"
           id="rect1501"
           style="stroke-width:0.264583" /><rect
           x="-796.65814"
           y="-247.88757"
           width="1.1082046"
           height="0.6649217"
           rx="0.12916693"
           transform="scale(-1)"
           fill="#3f3d56"
           id="rect1503"
           style="stroke-width:0.264583" /><rect
           x="-794.44177"
           y="-247.88757"
           width="1.1082046"
           height="0.6649217"
           rx="0.12916693"
           transform="scale(-1)"
           fill="#3f3d56"
           id="rect1505"
           style="stroke-width:0.264583" /><rect
           x="-792.22534"
           y="-247.88757"
           width="1.1082046"
           height="0.6649217"
           rx="0.12916693"
           transform="scale(-1)"
           fill="#3f3d56"
           id="rect1507"
           style="stroke-width:0.264583" /><rect
           x="-790.00897"
           y="-247.88757"
           width="1.1082046"
           height="0.6649217"
           rx="0.12916693"
           transform="scale(-1)"
           fill="#3f3d56"
           id="rect1509"
           style="stroke-width:0.264583" /><rect
           x="-787.79254"
           y="-247.88757"
           width="1.1082046"
           height="0.6649217"
           rx="0.12916693"
           transform="scale(-1)"
           fill="#3f3d56"
           id="rect1511"
           style="stroke-width:0.264583" /><rect
           x="-785.57611"
           y="-247.88757"
           width="1.1082046"
           height="0.6649217"
           rx="0.12916693"
           transform="scale(-1)"
           fill="#3f3d56"
           id="rect1513"
           style="stroke-width:0.264583" /><rect
           x="-783.35968"
           y="-247.88757"
           width="1.1082046"
           height="0.6649217"
           rx="0.12916693"
           transform="scale(-1)"
           fill="#3f3d56"
           id="rect1515"
           style="stroke-width:0.264583" /><rect
           x="-781.14331"
           y="-247.88757"
           width="1.1082046"
           height="0.6649217"
           rx="0.12916693"
           transform="scale(-1)"
           fill="#3f3d56"
           id="rect1517"
           style="stroke-width:0.264583" /><rect
           x="-778.92688"
           y="-247.88757"
           width="1.1082046"
           height="0.6649217"
           rx="0.12916693"
           transform="scale(-1)"
           fill="#3f3d56"
           id="rect1519"
           style="stroke-width:0.264583" /><rect
           x="-801.53424"
           y="-249.21742"
           width="8.8656397"
           height="0.6649217"
           rx="0.12916693"
           transform="scale(-1)"
           fill="#3f3d56"
           id="rect1521"
           style="stroke-width:0.264583" /><polygon
           points="502.965,309.565 514.88,269.765 528.989,276.057 512.525,313.828 "
           fill="#ffb8b8"
           id="polygon1527"
           transform="matrix(0.26458333,0,0,0.26458333,691.32897,186.08984)" /><path
           d="m 827.68685,267.39757 -2.73667,-1.2231 -0.42919,-0.19233 -0.63262,1.68005 -4.69783,1.16609 a 1.121664,1.121664 0 0 0 -0.12659,2.13836 l 4.66753,1.76093 1.43058,-1.35803 -0.31238,1.77983 1.75798,0.66358 1.74431,-6.11734 z"
           fill="#2f2e41"
           id="path1529"
           style="stroke-width:0.264583" /><path
           d="m 831.57694,231.56623 a 2.6320379,2.6320379 0 0 0 3.88987,-1.076 l 9.31275,0.87106 -2.28632,-4.28921 -8.49304,-0.1696 a 2.6463016,2.6463016 0 0 0 -2.42325,4.66374 z"
           fill="#ffb6b6"
           id="path1531"
           style="stroke-width:0.264583" /><path
           d="m 841.02004,231.27264 12.88717,1.44478 0.0444,-0.0568 c 0.085,-0.10863 8.51739,-10.90256 9.93418,-13.47205 a 7.7687434,7.7687434 0 0 0 0.89964,-5.08825 l -0.01,-0.0428 -0.0335,-0.0284 a 3.9423869,3.9423869 0 0 0 -4.92961,-0.10809 27.924918,27.924918 0 0 0 -8.05865,9.95766 l -1.06585,2.219 -9.66809,0.9535 z"
           fill="#786fa6"
           id="path1533"
           style="stroke-width:0.264583" /><path
           d="m 869.9158,237.98761 0.37226,0.84007 c 0.1161,0.77305 0.56724,0.004 0.52769,0.65961 1.9173,1.57941 -3.33822,12.13642 -7.28745,11.70671 -1.83104,0.57516 -3.98922,0.80998 -6.24504,0.82581 q -0.32869,0.003 -0.65997,-7.9e-4 c -0.14068,-0.002 -0.57314,-0.52391 -0.71435,-0.52705 -0.42445,-0.009 -0.55959,0.49395 -0.98703,0.47119 -0.33795,-0.0178 -0.96004,0.27022 -1.01438,-0.0644 -0.11708,-0.72081 -0.33536,-0.55736 -0.59315,-0.0474 -0.1788,0.35367 -0.78869,-0.0722 -1.18033,-0.1143 -2.26153,-0.24322 -4.45029,-0.61367 -6.34222,-0.99412 -0.70445,-0.13983 -1.36668,-0.28231 -1.97612,-0.42082 -1.1543,-0.25988 -2.11995,-0.50261 -2.81911,-0.6873 -0.78756,-0.20579 -1.23608,-0.33903 -1.23608,-0.33903 l -5.61817,4.57074 -4.35332,9.49813 c -0.33507,0.0303 -3.95755,-0.92343 -3.95755,-0.92343 a 2.613443,2.613443 0 0 1 -0.68625,-2.85051 c 0.22163,-0.66355 1.79146,-5.5696 3.43385,-9.853 0.48677,-1.2717 0.9907,-2.56185 1.50914,-3.84543 0.42478,-1.05403 0.85747,-2.1041 1.29544,-3.13966 0.76117,-1.79541 4.43909,-2.7637 8.76998,-3.27157 0.22029,-0.0251 0.44193,-0.0501 0.66487,-0.0739 2.20699,-0.23217 4.54856,-0.35221 6.73841,-0.40763 1.09624,-0.0277 2.15423,-0.0383 3.13833,-0.0396 q 0.47688,0 0.92739,0.003 v 0 c 0.81131,0.004 1.55797,0.0158 2.21493,0.029 0.12795,0.003 0.25196,0.007 0.37333,0.009 h 0.003 c 0.0818,10e-4 0.16224,0.004 0.24141,0.005 1.43658,0.0369 2.3178,0.0818 2.3178,0.0818 l -0.0723,-2.50275 0.48387,-0.71871 0.066,-0.51448 v -0.001 l 0.008,-0.0646 0.0541,-0.001 0.9498,-0.0185 7.98373,-0.15566 3.40053,-0.14411 z"
           fill="#2f2e41"
           id="path1535"
           style="stroke-width:0.264583" /><polygon
           points="625.757,271.013 585.004,262.939 589.924,248.295 629.09,261.091 "
           fill="#ffb8b8"
           id="polygon1537"
           transform="matrix(0.26458333,0,0,0.26458333,691.32897,186.08984)" /><path
           d="m 855.98628,254.58543 -0.95721,2.84061 -0.15063,0.44553 1.73262,0.46992 1.60772,4.56559 a 1.121664,1.121664 0 0 0 2.14072,-0.0774 l 1.30889,-4.81389 -1.48799,-1.29489 1.80149,0.14164 0.49332,-1.81314 -6.25554,-1.15442 z"
           fill="#2f2e41"
           id="path1539"
           style="stroke-width:0.264583" /><path
           d="m 850.76779,252.32489 c -0.12223,0.34475 0.23866,-0.12942 0.10809,0.21231 -0.50237,1.32455 -1.43682,3.5814 -1.62026,3.94595 -0.0715,-0.0141 -13.63041,-1.90047 -15.45901,-2.43236 l 2.8192,-7.14818 0.31655,-0.80142 4.67016,1.66505 1.59975,1.36797 3.49279,0.44755 z"
           fill="#2f2e41"
           id="path1541"
           style="stroke-width:0.264583" /><circle
           cx="859.54456"
           cy="200.01164"
           r="6.4146032"
           fill="#ffb6b6"
           id="circle1543"
           style="stroke-width:0.264583" /><path
           d="m 835.22252,234.14381 c 0.4713,0.29588 -0.45112,1.00762 -1.00764,1.00762 a 1.0076206,1.0076206 0 0 1 -1.00762,-1.00762 c 0,-0.5565 0.62432,-1.87889 0.88166,-1.38548 0.0703,0.13472 0.51857,0.99939 1.1336,1.38548 z"
           fill="#786fa6"
           id="path1545"
           style="fill:#f78fb3;fill-opacity:1;stroke-width:0.264583" /><path
           d="m 836.85989,234.14381 c 0.47133,0.29588 -0.45111,1.00762 -1.00761,1.00762 a 1.0076206,1.0076206 0 0 1 -1.00761,-1.00762 c 0,-0.5565 0.62431,-1.87889 0.88167,-1.38548 0.0702,0.13472 0.51855,0.99939 1.13355,1.38548 z"
           fill="#786fa6"
           id="path1547"
           style="stroke-width:0.264583" /><path
           d="m 836.07736,233.91767 c -0.53311,-0.15964 0.1664,-1.09139 0.70279,-1.23964 a 1.0076233,1.0076233 0 0 1 1.23962,0.70278 c 0.14825,0.53639 -0.10123,1.97731 -0.48072,1.57029 -0.10361,-0.11113 -0.76605,-0.82513 -1.46169,-1.03343 z"
           fill="#786fa6"
           id="path1549"
           style="fill:#f78fb3;fill-opacity:1;stroke-width:0.264583" /><path
           d="m 842.4018,234.14381 c 0.47133,0.29588 -0.45109,1.00762 -1.00761,1.00762 a 1.0076206,1.0076206 0 0 1 -1.00761,-1.00762 c 0,-0.5565 0.62431,-1.87889 0.88167,-1.38548 0.0703,0.13472 0.51855,0.99939 1.13355,1.38548 z"
           fill="#786fa6"
           id="path1551"
           style="stroke-width:0.264583" /><path
           d="m 844.0392,234.14381 c 0.4713,0.29588 -0.45111,1.00762 -1.00761,1.00762 a 1.0076206,1.0076206 0 0 1 -1.00764,-1.00762 c 0,-0.5565 0.62434,-1.87889 0.88167,-1.38548 0.0703,0.13472 0.51856,0.99939 1.13358,1.38548 z"
           fill="#786fa6"
           id="path1553"
           style="fill:#f78fb3;fill-opacity:1;stroke-width:0.264583" /><path
           d="m 843.25664,233.91767 c -0.53311,-0.15964 0.1664,-1.09139 0.70279,-1.23964 a 1.0076233,1.0076233 0 0 1 1.23965,0.70278 c 0.14825,0.53639 -0.10125,1.97731 -0.48075,1.57029 -0.10361,-0.11113 -0.76602,-0.82513 -1.46169,-1.03343 z"
           fill="#786fa6"
           id="path1555"
           style="stroke-width:0.264583" /><path
           d="m 831.66901,233.91767 c -0.53311,-0.15964 0.16639,-1.09139 0.70278,-1.23964 a 1.0076206,1.0076206 0 0 1 1.23963,0.70278 c 0.14825,0.53639 -0.10123,1.97731 -0.48072,1.57029 -0.10363,-0.11113 -0.76606,-0.82513 -1.46169,-1.03343 z"
           fill="#786fa6"
           id="path1557"
           style="stroke-width:0.264583" /><path
           d="m 838.8345,234.99454 c -0.22534,0.50882 -1.06185,-0.30221 -1.14151,-0.85297 a 1.007618,1.007618 0 0 1 0.85296,-1.14151 c 0.55076,-0.0797 1.94892,0.34886 1.49744,0.6742 -0.12327,0.0888 -0.91485,0.65631 -1.20889,1.32028 z"
           fill="#786fa6"
           id="path1559"
           style="stroke-width:0.264583" /><path
           d="m 840.76633,233.30713 c 0.1342,-0.54007 1.09805,0.1145 1.27156,0.64326 a 1.0076206,1.0076206 0 0 1 -0.64328,1.27154 c -0.52874,0.17349 -1.97987,-0.007 -1.59128,-0.40579 0.1061,-0.10876 0.7879,-0.80428 0.963,-1.50901 z"
           fill="#786fa6"
           id="path1561"
           style="stroke-width:0.264583" /><path
           d="m 840.01063,232.55141 c 0.1342,-0.54007 1.09805,0.11451 1.27153,0.64327 a 1.0076206,1.0076206 0 0 1 -0.64325,1.27154 c -0.52877,0.17349 -1.97988,-0.007 -1.59131,-0.40579 0.1061,-0.10876 0.78793,-0.80428 0.96303,-1.50902 z"
           fill="#786fa6"
           id="path1563"
           style="fill:#f78fb3;fill-opacity:1;stroke-width:0.264583" /><path
           d="m 835.32322,230.17197 c -0.22535,0.50882 -1.06185,-0.3022 -1.14152,-0.85296 a 1.0076206,1.0076206 0 0 1 0.85299,-1.14152 c 0.55076,-0.0797 1.94892,0.34886 1.49744,0.67421 -0.12327,0.0888 -0.91485,0.65631 -1.20891,1.32027 z"
           fill="#786fa6"
           id="path1565"
           style="stroke-width:0.264583" /><path
           d="m 830.42726,237.60295 1.18363,3.85939 a 2.9113083,2.9113083 0 0 0 2.86201,2.37982 h 8.37486 a 2.9007858,2.9007858 0 0 0 2.872,-2.43714 l 0.003,-0.0127 1.04862,-3.84217 a 2.7183291,2.7183291 0 0 0 -2.68313,-3.15447 h -10.98678 a 2.7182603,2.7182603 0 0 0 -2.67397,3.20724 z"
           fill="#e6e6e6"
           id="path1567"
           style="stroke-width:0.264583" /><path
           d="m 857.84373,208.32896 c 0,0 4.62656,-0.59841 6.03613,-0.0346 0.50154,0.20061 1.00308,2.04279 1.94363,2.5915 q 0.0257,0.0149 0.051,0.0295 a 5.5004228,5.5004228 0 0 1 2.77858,5.00154 53.722111,53.722111 0 0 0 1.03714,13.53427 q 0.1,0.49448 0.21071,1.00159 0.13017,0.59581 0.27577,1.2104 0.27173,1.14656 0.6,2.36518 c 0.11406,0.42304 -0.55803,1.51276 -0.43307,1.95044 q 0.12586,0.44085 0.25929,0.89204 c 0.26715,0.90331 1.3489,1.17894 1.66383,2.14986 a 1.8136605,1.8136605 0 0 1 -2.61937,1.64653 l -16.34948,-1.27479 1.55573,-2.41158 -1.05537,-1.4511 0.79152,-0.52768 0.39577,-1.4511 -1.25132,-4.88791 -1.79248,-4.10884 a 6.3853377,6.3853377 0 0 1 2.54246,-8.01354 v 0 l 2.05307,-5.43882 z"
           fill="#786fa6"
           id="path1569"
           style="stroke-width:0.264583" /><path
           d="m 845.93526,241.83525 a 2.6320432,2.6320432 0 0 1 3.74372,-1.50775 l 6.86922,-6.34819 0.7888,4.79608 -6.64406,5.29307 a 2.6463016,2.6463016 0 0 1 -4.75765,-2.2332 z"
           fill="#ffb6b6"
           id="path1571"
           style="stroke-width:0.264583" /><path
           d="m 856.82196,239.50673 10.03623,-7.40689 0.0336,5.2e-4 c -0.0114,-0.13744 -1.16067,-13.7864 -1.86745,-16.6342 a 7.7687487,7.7687487 0 0 0 -2.79787,-4.34414 l -0.0361,-0.0248 -0.0439,0.002 a 3.9423895,3.9423895 0 0 0 -3.68987,3.27074 27.924932,27.924932 0 0 0 0.85508,12.78145 l 0.72607,2.3522 -4.52411,4.09393 z"
           fill="#786fa6"
           id="path1573"
           style="stroke-width:0.264583" /><path
           d="m 880.13125,209.45066 a 5.5629545,5.5629545 0 0 1 -3.05787,2.15292 6.3963602,6.3963602 0 0 1 -1.52233,0.25856 5.7557616,5.7557616 0 0 0 -0.45249,-1.6912 4.7519669,4.7519669 0 0 1 -0.23482,1.68724 5.6551062,5.6551062 0 0 1 -2.22546,-0.59627 4.9039674,4.9039674 0 0 1 -2.62387,-3.51958 c -0.27176,-1.75453 0.52371,-3.47739 0.81129,-5.22926 0.28892,-1.75188 -0.25326,-3.97075 -1.96821,-4.43115 -1.30601,-0.3509 -1.15956,-0.19919 -2.24526,0.60683 1.12935,1.66985 -3.04199,7.78913 -4.74908,7.25553 -0.96515,-0.3017 -1.583,-1.18727 -1.78223,-1.18727 -1.3416,2.3112 1.18464,6.20545 -1.36139,7.0141 l 0.20976,-0.20975 c 1.53683,-1.89039 -1.67537,-5.89148 -0.13854,-7.78188 0.42876,-0.52899 0.88519,-1.15561 0.75854,-1.82443 -0.12004,-0.63585 -1.12922,-0.97224 -1.42473,-0.44985 0.53165,-1.21761 -0.25326,-2.84284 -1.55265,-3.15549 -1.1543,-0.27834 -1.13319,0.0646 -2.29145,0.21371 a 5.7480384,5.7480384 0 0 0 -0.42082,-1.45242 4.7127583,4.7127583 0 0 1 -0.1728,1.48013 1.8585391,1.8585391 0 0 1 -1.12395,-0.40631 c -0.94454,-0.76118 -0.75327,-2.36003 0.0897,-3.23201 0.84429,-0.87198 2.09883,-1.18595 3.29531,-1.38911 0.34784,-2.42213 7.03064,-2.67479 7.91643,-0.2546 0.37733,-1.80728 2.6397,-2.74522 4.39817,-2.18457 1.7585,0.56065 2.97874,2.20304 3.62117,3.93382 0.64246,1.72946 0.82188,3.59083 1.21764,5.39284 0.39574,1.802 1.06458,3.63699 2.44181,4.86516 1.37721,1.22684 3.62117,1.63315 5.07228,0.49337 a 4.0620817,4.0620817 0 0 1 -0.48414,3.64094 z"
           fill="#2f2e41"
           id="path1575"
           style="stroke-width:0.264583" /><path
           d="m 743.14116,207.16041 c -0.22621,0.51077 -1.06588,-0.30335 -1.14587,-0.85621 a 1.0114624,1.0114624 0 0 1 0.85622,-1.14587 c 0.55285,-0.08 1.95634,0.35019 1.50315,0.67678 -0.12374,0.0892 -0.91833,0.65881 -1.2135,1.3253 z"
           fill="#786fa6"
           id="path1577"
           style="fill:#f78fb3;fill-opacity:1;stroke-width:0.264583" /><path
           d="m 743.57109,209.73716 0.80173,7.78144 3.76011,0.82467 c 0,0 -2.0518,-9.05352 -2.16507,-9.3239 a 1.8757053,1.8757053 0 1 0 -2.39677,0.71779 z"
           fill="#ffb6b6"
           id="path1579"
           style="stroke-width:0.264583" /><path
           d="m 734.13422,210.95825 c -1.64535,0.48574 4.38561,12.5926 12.80325,14.42537 a 4.2990029,4.2990029 0 0 0 2.72651,-5.74024 l -2.47975,-5.79969 -3.55259,1.86446 0.20853,2.77083 -2.78774,-3.10852 -5.74199,-2.61466 z"
           fill="#3f3d56"
           id="path1581"
           style="stroke-width:0.264583" /><path
           style="fill:#2f2e41;fill-opacity:1;stroke-width:0.0279315"
           d="m 788.11583,243.26334 c -0.0798,-0.0855 -0.13034,-0.52537 -0.0913,-0.79511 0.0151,-0.10421 0.0276,-0.19809 0.028,-0.20861 2.6e-4,-0.0105 -0.10466,0.0295 -0.23325,0.0889 -0.52598,0.243 -0.91033,0.33486 -1.48399,0.35465 -0.47986,0.0166 -0.77246,-0.0221 -1.22898,-0.16225 -0.98973,-0.30392 -1.86551,-1.03158 -2.38236,-1.97942 -0.43353,-0.79504 -0.79419,-1.86701 -0.96988,-2.88271 -0.10482,-0.60595 -0.1443,-1.49109 -0.10246,-2.29673 0.0504,-0.97103 0.16676,-2.33701 0.22898,-2.68867 0.0669,-0.37797 0.21254,-0.86802 0.37847,-1.27322 0.16111,-0.39343 0.16942,-0.40908 0.59765,-1.1251 0.20175,-0.33736 0.44061,-0.76437 0.5308,-0.94893 0.14786,-0.30257 0.19355,-0.36708 0.46492,-0.65639 0.23545,-0.25101 0.31732,-0.32121 0.37618,-0.32257 0.0504,-10e-4 0.13067,-0.0519 0.24315,-0.15362 0.14795,-0.13383 0.71116,-0.50103 0.76849,-0.50103 0.0118,0 0.0305,0.0244 0.0415,0.0542 0.0189,0.0509 0.0292,0.0484 0.17367,-0.0428 0.16527,-0.10431 0.4263,-0.19551 0.83264,-0.29091 0.14254,-0.0335 0.3011,-0.091 0.35906,-0.13037 0.0972,-0.0659 0.10609,-0.0673 0.13937,-0.0218 0.0196,0.0267 0.0392,0.0581 0.0436,0.0698 0.0152,0.0403 0.34403,-0.0316 0.52088,-0.11394 0.21144,-0.0984 0.2273,-0.1001 0.2273,-0.0244 0,0.0574 0.006,0.058 0.42665,0.0384 0.37491,-0.0174 0.43121,-0.0143 0.46421,0.0254 0.0207,0.0249 0.10186,0.0644 0.18044,0.0877 0.0786,0.0233 0.29135,0.10049 0.47281,0.17145 l 0.32993,0.12903 -0.0566,0.0602 -0.0566,0.0602 0.2109,0.10436 c 0.23676,0.11716 0.4579,0.30803 0.528,0.45575 0.0555,0.11689 0.0466,0.1329 -0.0527,0.0951 -0.0662,-0.0252 -0.0716,-0.0229 -0.0484,0.0202 0.0143,0.0267 0.11002,0.14904 0.21268,0.27193 0.20791,0.24891 0.3604,0.50551 0.26559,0.44691 -0.0854,-0.0528 -0.0704,0.0418 0.0423,0.26618 0.12267,0.24424 0.15298,0.36979 0.0976,0.40403 -0.0292,0.018 -0.12336,-0.0653 -0.20293,-0.17973 -0.079,-0.11363 -0.0819,-0.0478 -0.005,0.1198 0.16565,0.36184 0.19016,0.77611 0.0552,0.93302 l -0.0652,0.0758 -0.0523,-0.0646 -0.0523,-0.0646 -0.0519,0.14423 c -0.0606,0.16851 -0.31115,0.45507 -0.43591,0.49857 -0.065,0.0227 -0.0917,0.0198 -0.12499,-0.0135 -0.0233,-0.0233 -0.0423,-0.0524 -0.0423,-0.0646 0,-0.0123 -0.0648,-0.0309 -0.14402,-0.0414 -0.36127,-0.0479 -0.55975,-0.26658 -0.59055,-0.65058 -0.0197,-0.24593 -0.0837,-0.39643 -0.29116,-0.6845 -0.24632,-0.3421 -0.43792,-0.45976 -0.95489,-0.58634 -0.65508,-0.16041 -1.26952,-0.0228 -1.95595,0.43792 -0.89458,0.60048 -1.54597,1.48092 -1.91232,2.58474 -0.15902,0.47911 -0.35913,1.44955 -0.45501,2.20658 -0.0693,0.54738 -0.0685,2.28276 0.001,2.82872 0.0894,0.69859 0.26085,1.28566 0.54836,1.87773 0.21592,0.44467 0.35079,0.64713 0.69992,1.05077 0.28302,0.32719 0.29216,0.33482 0.30065,0.25085 0.005,-0.0476 0.0155,-0.0866 0.0236,-0.0866 0.008,0 0.0936,0.0691 0.18986,0.15362 0.0962,0.0845 0.18084,0.15363 0.188,0.15363 0.007,0 0.008,-0.0363 10e-4,-0.0806 -0.007,-0.0443 0.003,-0.10796 0.0207,-0.14141 0.0317,-0.0592 0.0357,-0.0573 0.14826,0.0706 0.11042,0.12544 0.28851,0.23323 0.38752,0.23455 0.0418,5.3e-4 0.041,-0.0131 -0.009,-0.14403 -0.0521,-0.13702 -0.0512,-0.27433 0.002,-0.27433 0.0133,0 0.10833,0.0576 0.21122,0.12808 0.10288,0.0704 0.19268,0.12247 0.19955,0.1156 0.007,-0.007 -9e-5,-0.0456 -0.0155,-0.0862 -0.0352,-0.0927 -0.0113,-0.0938 0.16006,-0.007 0.13136,0.0665 0.34364,0.13575 0.36143,0.11796 0.005,-0.005 -0.0292,-0.0507 -0.0765,-0.10127 -0.1437,-0.15384 -0.11369,-0.17872 0.23813,-0.1975 0.33882,-0.0181 0.55675,-0.0766 0.66747,-0.17919 0.0647,-0.06 0.0724,-0.088 0.0724,-0.26415 0,-0.23084 0.0621,-0.67091 0.142,-1.00668 0.0699,-0.29359 0.0741,-0.43375 0.0149,-0.49911 -0.0595,-0.0657 -0.0571,-0.0895 0.0352,-0.35516 0.0768,-0.22101 0.0774,-0.22716 0.027,-0.28939 -0.0283,-0.035 -0.0514,-0.0779 -0.0512,-0.0954 1.7e-4,-0.0175 0.0567,-0.17 0.12569,-0.33887 0.069,-0.16889 0.12543,-0.30998 0.12543,-0.31354 0,-0.004 -0.0301,0.005 -0.067,0.019 -0.12894,0.049 -0.13467,-0.0452 -0.0171,-0.28201 0.10309,-0.20777 0.16513,-0.29836 0.35351,-0.51619 0.0813,-0.094 0.14125,-0.17733 0.13332,-0.18526 -0.008,-0.008 -0.0668,-0.003 -0.13085,0.0117 -0.16499,0.0371 -0.2523,0.0109 -0.22878,-0.0686 0.0101,-0.0341 0.18794,-0.23295 0.39525,-0.44198 l 0.37693,-0.38007 -0.11435,-0.0183 c -0.0629,-0.0101 -0.11435,-0.0284 -0.11435,-0.0409 0,-0.0124 0.0444,-0.0745 0.0988,-0.13799 0.12128,-0.14168 0.42109,-0.32963 0.74623,-0.4678 0.17808,-0.0757 0.25394,-0.12349 0.27931,-0.17603 0.0291,-0.0602 0.0901,-0.0896 0.37001,-0.17815 0.38152,-0.12065 0.817,-0.24083 1.24063,-0.34237 0.39223,-0.094 0.71433,-0.25646 0.93904,-0.47362 0.19013,-0.18374 0.23596,-0.28581 0.23625,-0.5261 1.7e-4,-0.1092 -0.009,-0.13268 -0.0501,-0.13268 -0.088,0 -0.11732,-0.0609 -0.11732,-0.24413 0,-0.1325 -0.0139,-0.19616 -0.0554,-0.25278 -0.0522,-0.0714 -0.0531,-0.0851 -0.0149,-0.24327 0.0544,-0.22563 0.0536,-0.23182 -0.0274,-0.21633 -0.0898,0.0172 -0.0908,-0.0309 -0.008,-0.34773 0.0582,-0.222 0.0591,-0.23844 0.014,-0.26369 -0.0598,-0.0335 -0.061,-0.11609 -0.004,-0.28288 0.0424,-0.12431 0.0417,-0.13202 -0.0173,-0.21178 l -0.0612,-0.0828 0.0688,-0.14931 c 0.0379,-0.0821 0.15246,-0.27397 0.25465,-0.42632 0.10219,-0.15235 0.18266,-0.27958 0.17882,-0.28274 -0.004,-0.003 -0.0478,-0.0265 -0.0978,-0.0519 -0.0499,-0.0254 -0.0908,-0.0569 -0.0908,-0.0701 0,-0.0131 0.0583,-0.0386 0.12945,-0.0565 0.20047,-0.0505 0.33048,-0.12851 0.44752,-0.26859 0.059,-0.0707 0.18449,-0.21923 0.27877,-0.33011 0.21944,-0.2581 0.37185,-0.49481 0.51854,-0.80531 0.0879,-0.18614 0.13321,-0.25165 0.18248,-0.26402 0.086,-0.0216 0.16004,0.0469 0.21968,0.20308 0.0257,0.0673 0.0558,0.12227 0.067,0.12227 0.0112,0 0.11223,-0.13899 0.22456,-0.30888 0.19836,-0.3 0.28783,-0.39162 0.33508,-0.34311 0.0126,0.0129 0.0312,0.20579 0.0412,0.42854 0.0101,0.22276 0.0307,0.44545 0.0458,0.49487 0.0444,0.14507 0.15746,0.21822 0.39712,0.25688 0.15901,0.0256 0.29364,0.0752 0.54066,0.19891 0.18091,0.0906 0.37631,0.20399 0.43422,0.25195 0.0579,0.048 0.17312,0.20236 0.25602,0.34309 0.17774,0.30174 0.2806,0.4144 0.61003,0.66815 0.2905,0.22377 0.32403,0.27967 0.27582,0.45991 -0.0237,0.0886 -0.0254,0.13734 -0.005,0.15732 0.0179,0.0179 0.17509,0.0261 0.41308,0.0215 0.44647,-0.009 0.65952,0.0269 1.16566,0.19498 0.45636,0.1515 0.91483,0.41702 1.13178,0.65547 0.078,0.0857 0.0656,0.08 -0.2043,-0.0939 -0.27783,-0.17908 -0.77857,-0.41152 -1.06272,-0.49331 -0.50805,-0.14624 -1.0257,-0.20959 -1.28871,-0.15772 -0.12417,0.0245 -0.10579,0.0373 0.12569,0.0875 0.25748,0.0559 0.69946,0.24098 1.00067,0.41907 0.5964,0.35261 1.20638,0.87117 1.34547,1.14383 0.0308,0.0603 0.056,0.11608 0.056,0.12389 0,0.008 -0.1414,-0.12682 -0.31423,-0.29916 -0.17282,-0.17233 -0.41289,-0.38726 -0.53349,-0.47761 -0.32486,-0.24339 -0.83229,-0.53358 -1.1532,-0.6595 -0.26118,-0.10249 -0.62369,-0.20598 -0.64541,-0.18426 -0.005,0.005 0.1133,0.0957 0.26303,0.20137 0.52168,0.36825 1.01314,0.93587 1.11567,1.28855 0.0498,0.17142 0.0415,0.41383 -0.0187,0.5446 -0.0513,0.11138 -0.0886,0.0947 -0.0626,-0.0279 0.0122,-0.0576 0.0217,-0.18016 0.0211,-0.27234 -0.003,-0.42478 -0.43192,-0.96752 -1.15886,-1.46542 -0.25017,-0.17134 -0.3344,-0.19419 -0.3344,-0.0907 0,0.0284 -0.0202,0.11984 -0.045,0.20317 -0.0621,0.20918 -0.21717,0.35806 -0.47434,0.45548 -0.10896,0.0413 -0.24069,0.10646 -0.29273,0.14485 -0.22496,0.16597 -0.34128,0.47933 -0.28311,0.76267 0.0754,0.36712 0.67721,1.36156 1.03188,1.705 l 0.18465,0.17879 -0.0638,0.0516 c -0.0351,0.0284 -0.0826,0.0516 -0.10557,0.0516 -0.023,0 -0.0351,0.0157 -0.027,0.0349 0.29982,0.70811 0.35504,0.90814 0.24257,0.87873 -0.0669,-0.0175 -0.0686,0.006 -0.0137,0.1871 0.061,0.20101 0.0548,0.26352 -0.0282,0.28436 -0.0781,0.0196 -0.0811,0.0387 -0.0424,0.27466 0.036,0.21955 0.0158,0.28988 -0.0909,0.31754 -0.0796,0.0206 -0.0923,0.043 -0.18704,0.32821 -0.17275,0.52024 -0.29723,0.70609 -0.81344,1.21445 -0.31361,0.30884 -0.387,0.39626 -0.40263,0.47959 -0.0183,0.0975 0.15127,2.17757 0.20923,2.56662 0.0365,0.24476 0.15981,0.60998 0.23403,0.69298 0.0635,0.071 0.30137,0.18841 0.53905,0.26603 0.10337,0.0337 0.18087,0.0863 0.27401,0.1859 0.22753,0.24325 0.26881,0.45554 0.13604,0.69949 l -0.0743,0.13645 -0.70083,-7.9e-4 c -0.75892,-0.001 -0.75443,-9e-5 -0.83709,-0.16006 -0.0259,-0.0501 -0.15975,-0.24494 -0.29745,-0.43294 -0.28263,-0.38586 -0.31851,-0.47521 -0.43214,-1.07608 -0.0916,-0.48463 -0.20837,-0.90038 -0.36393,-1.29626 -0.14621,-0.37208 -0.19322,-0.44898 -0.23566,-0.38555 -0.0154,0.023 -0.0282,0.10624 -0.0285,0.18488 -8e-4,0.22386 -0.0774,0.60925 -0.16817,0.84461 -0.15969,0.41408 -0.49315,0.83248 -0.88813,1.11433 l -0.18206,0.12992 0.0813,0.0222 c 0.0447,0.0122 0.37041,0.0259 0.72379,0.0304 0.60157,0.008 0.65083,0.0122 0.77332,0.0715 0.24676,0.11945 0.42991,0.38669 0.45958,0.67061 0.015,0.14367 0.01,0.1718 -0.0423,0.22379 l -0.0595,0.0595 h -3.45864 -3.45863 z m 11.13991,-0.25138 c 0.004,-0.52396 0.0326,-0.77442 0.0945,-0.81971 0.0431,-0.0315 0.21379,-0.0392 0.87169,-0.0392 h 0.81811 l 0.0131,-0.0628 c 0.007,-0.0346 0.021,-0.1477 0.0307,-0.2514 l 0.0176,-0.18856 -0.0929,-0.0489 c -0.0511,-0.0269 -0.14477,-0.0991 -0.20823,-0.16058 -0.21506,-0.20825 -0.22822,-0.59702 -0.0291,-0.85815 0.11856,-0.15544 0.2281,-0.21487 0.45668,-0.24778 0.10462,-0.0151 0.21616,-0.0328 0.24785,-0.0395 0.0561,-0.0118 0.48248,-0.55174 1.94457,-2.4622 0.83631,-1.09278 2.70954,-3.49925 2.89457,-3.71855 l 0.14842,-0.17592 -0.0874,-0.0996 c -0.0481,-0.0548 -0.0992,-0.13044 -0.1135,-0.16814 -0.0399,-0.10499 -0.031,-0.39008 0.0157,-0.50185 l 0.0418,-0.1 -1.12316,-1.34459 c -1.87568,-2.24546 -2.67869,-3.20149 -3.49888,-4.16566 -0.43126,-0.50696 -0.91973,-1.082 -1.08549,-1.27787 l -0.30137,-0.35612 h -0.13262 c -0.20198,0 -0.40034,-0.0709 -0.53644,-0.19164 l -0.12147,-0.1078 -0.35494,0.26843 c -0.19522,0.14763 -0.36185,0.28447 -0.37031,0.30409 -0.008,0.0196 0.0426,0.16417 0.11347,0.32122 0.0709,0.15704 0.171,0.37981 0.22252,0.49502 0.10017,0.22398 0.11325,0.32091 0.0623,0.4618 -0.0309,0.0855 -0.0271,0.0935 0.10867,0.22543 0.1282,0.12457 0.14983,0.16503 0.24273,0.45409 0.14074,0.43794 0.26511,0.95748 0.2851,1.19096 l 0.0168,0.19552 -0.14382,0.21468 c -0.24559,0.36658 -0.37335,0.44189 -0.74879,0.44138 -0.37358,-5.3e-4 -0.58514,-0.0693 -0.74574,-0.2425 -0.082,-0.0885 -0.38284,-0.8278 -0.46571,-1.14467 -0.0609,-0.23276 -0.0811,-0.55485 -0.0436,-0.69423 0.0208,-0.0773 0.0136,-0.0906 -0.0822,-0.15362 -0.0577,-0.0379 -0.12751,-0.11311 -0.15514,-0.16703 -0.0747,-0.14583 -0.40007,-1.93078 -0.52831,-2.89849 -0.0434,-0.3277 -0.0248,-0.3753 0.18434,-0.47104 0.1854,-0.0849 0.56516,-0.16423 0.66547,-0.13905 0.0397,0.01 0.0958,0.0435 0.12466,0.0745 0.0289,0.031 0.18757,0.34823 0.35262,0.70493 0.16505,0.3567 0.30392,0.65255 0.3086,0.65743 0.0115,0.012 0.67937,-0.46029 0.77256,-0.54635 0.0408,-0.0377 0.0818,-0.10907 0.0911,-0.15862 0.0269,-0.14364 0.17196,-0.34506 0.31269,-0.43431 0.1996,-0.12658 0.37873,-0.15678 0.59749,-0.10074 0.34854,0.0893 0.54618,0.27602 0.59055,0.55792 0.04,0.25384 0.19093,0.50447 0.557,0.9246 0.81572,0.9362 1.9151,2.21769 2.62384,3.0585 0.85041,1.00887 2.72041,3.21531 2.94979,3.4805 0.13032,0.15066 0.16248,0.17267 0.27487,0.18807 0.4082,0.0559 0.70703,0.47183 0.6247,0.8694 -0.0579,0.2795 -0.23426,0.46501 -0.50169,0.52765 -0.0481,0.0113 -0.12675,0.0884 -0.22962,0.22503 -0.0861,0.11435 -0.29831,0.38791 -0.47166,0.6079 -0.17334,0.22 -0.94658,1.21699 -1.7183,2.21554 -0.77172,0.99855 -1.57042,2.02922 -1.77489,2.29038 -0.20447,0.26116 -0.5244,0.67273 -0.71095,0.91461 l -0.33916,0.43976 0.016,0.19112 c 0.01,0.11975 0.003,0.23022 -0.0185,0.29583 -0.0468,0.14187 -0.1859,0.29401 -0.32506,0.35556 -0.10533,0.0466 -0.11633,0.0616 -0.13267,0.1808 -0.0239,0.17447 -0.0225,0.3175 0.003,0.31864 0.0115,5.3e-4 0.35655,0.004 0.76672,0.007 0.54628,0.004 0.75496,0.0152 0.78015,0.0404 0.0317,0.0317 0.0626,0.36785 0.0873,0.95021 l 0.009,0.2025 h -2.07483 -2.07483 l 0.002,-0.31423 z"
           id="path15488" /><path
           style="fill:#2f2e41;fill-opacity:1;stroke-width:0.00921181"
           d="m 645.8724,215.8498 c 10e-4,-0.0386 0.0922,-0.15286 0.16424,-0.20663 0.0278,-0.0208 0.0527,-0.0397 0.0552,-0.0421 0.003,-0.002 -0.0313,-0.0175 -0.0751,-0.0337 -0.17929,-0.0661 -0.29031,-0.13437 -0.42863,-0.26361 -0.1157,-0.10811 -0.17489,-0.18538 -0.24858,-0.32458 -0.15976,-0.30177 -0.19409,-0.67572 -0.0934,-1.01724 0.0845,-0.28646 0.25054,-0.62046 0.44659,-0.89818 0.11696,-0.16569 0.31429,-0.38121 0.51203,-0.55921 0.23833,-0.21456 0.58418,-0.50578 0.68073,-0.57323 0.10379,-0.0725 0.25208,-0.15271 0.3853,-0.20843 0.12936,-0.0541 0.13494,-0.0558 0.40183,-0.12278 0.12574,-0.0316 0.28104,-0.0753 0.34513,-0.0973 0.10506,-0.036 0.13076,-0.0404 0.26152,-0.0445 0.11344,-0.004 0.14891,-7.9e-4 0.16294,0.0126 0.012,0.0115 0.0426,0.0184 0.0925,0.0209 0.0657,0.003 0.28266,0.0492 0.29603,0.0625 0.003,0.003 10e-4,0.0128 -0.003,0.0223 -0.007,0.0163 -0.005,0.0181 0.0505,0.0305 0.0629,0.0143 0.14497,0.0539 0.26194,0.12649 0.041,0.0255 0.0914,0.049 0.11411,0.0534 0.038,0.007 0.0404,0.009 0.0376,0.0274 -0.002,0.0108 -0.004,0.0227 -0.006,0.0264 -0.006,0.013 0.0876,0.0729 0.14799,0.095 0.0722,0.0264 0.0763,0.0297 0.0587,0.0473 -0.0134,0.0134 -0.012,0.015 0.0905,0.10852 0.0915,0.0834 0.10385,0.0973 0.10226,0.11424 -10e-4,0.0106 0.009,0.0388 0.0216,0.0625 0.0129,0.0238 0.0445,0.0914 0.0702,0.15029 l 0.0468,0.10706 -0.0272,7.9e-4 -0.0272,8e-4 0.0248,0.0735 c 0.0278,0.0825 0.0349,0.17863 0.0167,0.22942 -0.0144,0.0402 -0.0201,0.0418 -0.0345,0.01 -0.01,-0.0213 -0.0114,-0.022 -0.016,-0.007 -0.003,0.01 -0.009,0.0604 -0.0139,0.11301 -0.01,0.10653 -0.034,0.20191 -0.0424,0.16613 -0.008,-0.0322 -0.0262,-0.007 -0.0523,0.0719 -0.0284,0.0855 -0.0506,0.12188 -0.0715,0.11694 -0.011,-0.003 -0.0135,-0.044 -0.005,-0.0892 0.008,-0.0449 -0.008,-0.0303 -0.0291,0.0267 -0.0458,0.12298 -0.13677,0.22526 -0.20484,0.23034 l -0.0329,0.002 0.003,-0.0273 0.003,-0.0273 -0.0457,0.0215 c -0.0534,0.0251 -0.1787,0.0335 -0.21793,0.0145 -0.0204,-0.01 -0.026,-0.0168 -0.026,-0.0323 1e-5,-0.0108 0.002,-0.0221 0.005,-0.0249 0.003,-0.003 -0.008,-0.0223 -0.0239,-0.0433 -0.073,-0.0955 -0.0683,-0.19275 0.0142,-0.28943 0.0528,-0.0619 0.073,-0.11194 0.0919,-0.22748 0.0224,-0.13721 0.005,-0.20934 -0.0857,-0.35947 -0.11525,-0.19024 -0.29056,-0.30155 -0.55806,-0.35433 -0.34861,-0.0688 -0.70587,-0.0156 -1.04882,0.15621 -0.14885,0.0746 -0.42193,0.25406 -0.62092,0.40813 -0.14389,0.1114 -0.54861,0.51607 -0.65974,0.6596 -0.14217,0.18368 -0.23919,0.36051 -0.31033,0.5656 -0.0534,0.15402 -0.0692,0.23268 -0.0821,0.40822 -0.0104,0.1423 -0.01,0.14621 0.0115,0.12862 0.0122,-0.01 0.0238,-0.0166 0.0257,-0.0147 0.002,0.002 0.006,0.038 0.008,0.0801 0.003,0.0422 0.006,0.078 0.008,0.0797 0.002,0.002 0.0103,-0.007 0.019,-0.0185 0.009,-0.0118 0.0258,-0.0245 0.0378,-0.0281 0.0212,-0.006 0.0217,-0.005 0.0181,0.0511 -0.003,0.055 0.0128,0.12167 0.0356,0.14508 0.01,0.01 0.0126,0.007 0.0316,-0.0356 0.0198,-0.0441 0.0521,-0.0759 0.0644,-0.0635 0.003,0.003 0.0118,0.0387 0.0193,0.0791 0.007,0.0404 0.0163,0.0735 0.0195,0.0735 0.003,0 0.0106,-0.0106 0.0165,-0.0237 0.0134,-0.0298 0.0192,-0.0245 0.0389,0.0357 0.0151,0.0461 0.0484,0.11183 0.0567,0.11183 0.002,0 0.005,-0.0186 0.006,-0.0414 0.002,-0.0694 0.0152,-0.0682 0.10158,0.01 0.0832,0.0748 0.14763,0.11206 0.19738,0.11398 0.0291,0.001 0.0374,-0.004 0.0785,-0.0447 0.0539,-0.0538 0.17102,-0.14188 0.26799,-0.20149 0.0848,-0.0521 0.11848,-0.0838 0.11994,-0.11285 10e-4,-0.0292 0.008,-0.0342 0.0911,-0.0746 0.0695,-0.0336 0.071,-0.0349 0.0738,-0.0612 0.002,-0.0147 0.006,-0.0301 0.0103,-0.0342 0.004,-0.004 0.0529,-0.0264 0.10837,-0.0496 0.0555,-0.0233 0.10156,-0.043 0.10239,-0.0438 7.9e-4,-8e-4 -0.008,-0.006 -0.02,-0.0112 -0.0415,-0.0186 -0.0208,-0.0419 0.0618,-0.0697 0.0725,-0.0244 0.1081,-0.031 0.20283,-0.0378 0.0409,-0.003 0.0743,-0.008 0.0743,-0.0121 10e-6,-0.004 -0.0149,-0.0162 -0.0332,-0.0278 -0.0471,-0.0299 -0.0614,-0.0563 -0.0373,-0.0694 0.0103,-0.006 0.0982,-0.0105 0.19526,-0.0108 l 0.17653,-5.3e-4 -0.0224,-0.0309 c -0.0123,-0.017 -0.02,-0.0333 -0.0171,-0.0362 0.003,-0.003 0.0277,-0.007 0.0552,-0.009 0.0613,-0.005 0.17506,0.0214 0.28308,0.0651 0.0592,0.0239 0.088,0.0305 0.10618,0.0242 0.0208,-0.007 0.0419,1.7e-4 0.1278,0.0448 0.11708,0.0609 0.24662,0.1345 0.36905,0.20969 0.11335,0.0696 0.22633,0.1069 0.32937,0.10872 0.0872,0.001 0.12169,-0.0115 0.17783,-0.0675 0.0255,-0.0254 0.0289,-0.033 0.0193,-0.0426 -0.0205,-0.0205 -0.0131,-0.0416 0.0296,-0.0843 0.0309,-0.0309 0.0425,-0.049 0.0461,-0.0718 0.005,-0.0288 0.007,-0.0322 0.0533,-0.0602 0.0653,-0.0399 0.0666,-0.0415 0.0441,-0.0568 -0.0249,-0.017 -0.014,-0.0284 0.0793,-0.0829 0.0654,-0.0382 0.0694,-0.0418 0.0648,-0.0582 -0.006,-0.0217 0.0129,-0.0413 0.065,-0.0669 0.0389,-0.0191 0.0405,-0.021 0.0454,-0.0534 l 0.005,-0.0336 0.0509,-0.0187 c 0.028,-0.0103 0.0995,-0.0283 0.15882,-0.0399 0.0594,-0.0117 0.10781,-0.0225 0.10766,-0.0242 -1.8e-4,-0.002 -0.005,-0.0173 -0.0107,-0.0349 -0.006,-0.0176 -0.008,-0.0344 -0.005,-0.0375 0.003,-0.003 0.0226,0.005 0.0434,0.017 0.0585,0.035 0.10701,0.0472 0.16697,0.0418 0.0302,-0.003 0.0941,-0.008 0.142,-0.0119 0.11138,-0.009 0.20213,-0.0286 0.30877,-0.0667 0.0639,-0.0229 0.0898,-0.0276 0.10413,-0.0189 0.0251,0.015 0.0264,0.0483 0.004,0.0986 -0.01,0.0217 -0.0155,0.0415 -0.0129,0.0441 0.003,0.003 0.0586,-0.006 0.12442,-0.0196 0.11623,-0.0236 0.15846,-0.0241 0.15815,-0.002 -8e-5,0.006 -0.0408,0.0552 -0.0904,0.1095 -0.0496,0.0543 -0.0968,0.11097 -0.1048,0.12602 -0.0235,0.0442 -0.0142,0.0876 0.0326,0.15253 0.0311,0.0431 0.0509,0.086 0.0796,0.17252 0.021,0.0633 0.0401,0.13535 0.0424,0.16004 0.002,0.0247 -0.007,0.0876 -0.0204,0.1397 -0.029,0.1118 -0.0313,0.16206 -0.0137,0.29807 0.0155,0.11994 0.0103,0.14079 -0.043,0.17155 -0.0262,0.0151 -0.038,0.0261 -0.038,0.0354 -3e-5,0.008 0.0347,0.0469 0.0913,0.1014 0.10609,0.10215 0.14743,0.16016 0.22619,0.31743 0.071,0.1418 0.11591,0.31066 0.11084,0.41686 -0.002,0.0382 -0.003,0.0339 -0.0257,-0.0696 -0.023,-0.10656 -0.0854,-0.27758 -0.13258,-0.36294 -0.0843,-0.15263 -0.19016,-0.28819 -0.26356,-0.33746 -0.0347,-0.0233 -0.0334,-0.016 0.009,0.0497 0.047,0.0731 0.1068,0.21938 0.13544,0.33117 0.0567,0.22134 0.0779,0.48454 0.0467,0.58054 -0.007,0.0212 -0.014,0.0401 -0.0159,0.0419 -0.002,0.002 -0.003,-0.0626 -0.003,-0.14305 -7e-5,-0.0805 -0.006,-0.1866 -0.0129,-0.2358 -0.0189,-0.13253 -0.0695,-0.31857 -0.11488,-0.42279 -0.037,-0.0848 -0.0973,-0.19354 -0.10744,-0.19355 -0.002,0 0.004,0.0487 0.0143,0.10831 0.0357,0.20756 0.0178,0.45453 -0.0406,0.56065 -0.0284,0.0516 -0.0869,0.10613 -0.13144,0.12256 -0.038,0.014 -0.0428,0.001 -0.008,-0.0211 0.0163,-0.0106 0.0471,-0.0369 0.0685,-0.0585 0.0985,-0.0996 0.12509,-0.32629 0.0718,-0.61195 -0.0183,-0.0983 -0.0326,-0.12329 -0.0568,-0.0992 -0.007,0.007 -0.0327,0.0232 -0.0579,0.0369 -0.0633,0.0343 -0.13417,0.0328 -0.21683,-0.005 -0.035,-0.0158 -0.0809,-0.0313 -0.10203,-0.0345 -0.0912,-0.0138 -0.19139,0.0321 -0.24395,0.11169 -0.0681,0.10315 -0.15986,0.47536 -0.15733,0.63816 l 10e-4,0.0848 -0.0269,-0.003 c -0.0148,-0.002 -0.0313,-0.007 -0.0367,-0.0126 -0.005,-0.005 -0.0118,-0.005 -0.0144,0.002 -0.0954,0.235 -0.12915,0.29451 -0.1485,0.26141 -0.0115,-0.0197 -0.0174,-0.0146 -0.0468,0.0404 -0.0327,0.0611 -0.0487,0.0742 -0.0729,0.0597 -0.0228,-0.0137 -0.0279,-0.01 -0.074,0.0541 -0.0429,0.0596 -0.064,0.0713 -0.0953,0.0528 -0.0234,-0.0138 -0.0316,-0.0115 -0.12018,0.0328 -0.16165,0.081 -0.23404,0.0952 -0.47297,0.0933 -0.14515,-0.001 -0.18266,0.002 -0.20574,0.0178 -0.027,0.0185 -0.47285,0.54283 -0.55013,0.64703 -0.0486,0.0656 -0.10508,0.17946 -0.10715,0.21612 -0.002,0.0314 0.0263,0.11424 0.0636,0.18779 0.0162,0.032 0.022,0.0623 0.0205,0.10726 -0.004,0.10979 -0.0436,0.1689 -0.1315,0.19478 l -0.0491,0.0145 -0.16316,-0.16371 c -0.17664,-0.17733 -0.17582,-0.17606 -0.15776,-0.23263 0.006,-0.0177 0.0199,-0.0944 0.0317,-0.17032 0.0242,-0.15588 0.0367,-0.18507 0.15037,-0.35163 0.0917,-0.13434 0.16153,-0.25848 0.21765,-0.38704 0.0527,-0.12084 0.0597,-0.14973 0.035,-0.14485 -0.009,0.002 -0.0314,0.0182 -0.0498,0.0365 -0.0524,0.052 -0.1602,0.12394 -0.23628,0.15761 -0.13384,0.0592 -0.30918,0.079 -0.46701,0.0525 l -0.0727,-0.0122 0.0138,0.0242 c 0.008,0.0133 0.0803,0.0925 0.1616,0.17597 0.13842,0.14215 0.14884,0.15471 0.16356,0.19711 0.0296,0.0854 0.01,0.19044 -0.0494,0.26353 -0.03,0.037 -0.0378,0.0423 -0.0621,0.0423 l -0.0277,-1e-5 -0.80611,-0.80702 -0.80611,-0.80703 z m 2.65505,2.54076 c 0.12312,-0.12125 0.18829,-0.17289 0.2133,-0.169 0.0174,0.003 0.059,0.0408 0.21231,0.19427 l 0.19067,0.1909 0.0177,-0.0116 c 0.01,-0.006 0.0394,-0.0295 0.0658,-0.0514 l 0.0481,-0.0398 -0.0102,-0.0331 c -0.006,-0.0182 -0.0106,-0.0569 -0.0111,-0.086 -10e-4,-0.0987 0.0861,-0.1924 0.19347,-0.20679 0.0639,-0.009 0.1033,0.003 0.16426,0.0488 0.0279,0.0209 0.058,0.0428 0.067,0.0486 0.0159,0.0103 0.24119,-0.016 1.02774,-0.12013 0.44991,-0.0596 1.44802,-0.18334 1.54232,-0.19128 l 0.0756,-0.006 0.003,-0.0436 c 0.002,-0.024 0.007,-0.0535 0.0128,-0.0657 0.0152,-0.0338 0.0838,-0.0981 0.12076,-0.1133 l 0.0331,-0.0135 0.052,-0.57546 c 0.0868,-0.96102 0.1227,-1.37121 0.15651,-1.78731 0.0178,-0.21879 0.0381,-0.46679 0.0452,-0.55112 l 0.0129,-0.15333 -0.0309,-0.0309 c -0.0471,-0.0471 -0.0768,-0.10993 -0.0803,-0.16983 l -0.003,-0.0535 -0.14536,-0.0202 c -0.0799,-0.0111 -0.15072,-0.0181 -0.15727,-0.0156 -0.006,0.003 -0.0284,0.0482 -0.0485,0.10134 -0.0201,0.0531 -0.0488,0.12842 -0.0636,0.1673 -0.0289,0.0756 -0.0485,0.10122 -0.0932,0.12217 -0.0272,0.0127 -0.0281,0.0155 -0.0273,0.0779 7.9e-4,0.0589 -0.004,0.0734 -0.0494,0.16247 -0.0694,0.13491 -0.16163,0.28502 -0.21145,0.34411 l -0.0417,0.0495 -0.0836,0.0165 c -0.14278,0.0281 -0.19012,0.0159 -0.27751,-0.0719 -0.087,-0.0873 -0.12021,-0.15269 -0.11722,-0.23053 10e-4,-0.0398 0.10392,-0.28227 0.15854,-0.37545 0.0401,-0.0685 0.11057,-0.14825 0.15182,-0.172 0.0229,-0.0131 0.0243,-0.0179 0.0167,-0.055 -0.005,-0.0223 -0.003,-0.0561 0.003,-0.0751 0.0166,-0.0514 0.35728,-0.54336 0.55319,-0.79883 0.0663,-0.0865 0.0818,-0.0932 0.15287,-0.0668 0.063,0.0235 0.17005,0.0936 0.18755,0.12287 0.007,0.0116 0.0122,0.0325 0.0117,0.0464 -5.3e-4,0.014 -0.0375,0.12493 -0.0823,0.24658 -0.0448,0.12164 -0.0814,0.223 -0.0815,0.22523 -8e-5,0.005 0.26575,0.0512 0.30755,0.0529 0.0183,5.3e-4 0.0445,-0.006 0.0582,-0.0157 0.0398,-0.0272 0.12059,-0.0403 0.17421,-0.0282 0.0761,0.0171 0.12486,0.0518 0.16277,0.11594 0.0604,0.10213 0.0629,0.19177 0.007,0.26783 -0.0499,0.0685 -0.0732,0.16213 -0.0859,0.34547 -0.0283,0.40853 -0.0711,0.96374 -0.10212,1.32508 -0.0372,0.43357 -0.1162,1.38417 -0.12461,1.4995 -0.005,0.0655 -0.002,0.0782 0.0202,0.10797 0.0821,0.10829 0.0547,0.27495 -0.0573,0.3484 -0.0787,0.0516 -0.16311,0.0537 -0.24005,0.006 -0.0138,-0.009 -0.0502,-0.009 -0.10603,-0.001 -0.0467,0.007 -0.16004,0.0208 -0.25178,0.0316 -0.0917,0.0108 -0.50459,0.0628 -0.91745,0.11544 -0.41286,0.0527 -0.83951,0.10652 -0.9481,0.11968 -0.1086,0.0131 -0.2792,0.0344 -0.37912,0.0473 l -0.18166,0.0234 -0.0409,0.0483 c -0.0256,0.0302 -0.053,0.0544 -0.0734,0.0646 -0.044,0.0221 -0.11193,0.0252 -0.15873,0.007 -0.0354,-0.0137 -0.0415,-0.0128 -0.0731,0.0112 -0.0463,0.0351 -0.0793,0.0687 -0.0736,0.075 0.003,0.003 0.0822,0.0841 0.17707,0.18053 0.12629,0.1285 0.17241,0.17971 0.1724,0.19146 -2e-5,0.0148 -0.0712,0.10034 -0.20136,0.24184 l -0.0452,0.0492 -0.48358,-0.48413 -0.48359,-0.48414 0.0738,-0.0727 z"
           id="path15488-0" /><circle
           cx="599.8526"
           cy="175.66222"
           fill="#6c63ff"
           id="circle92-4"
           style="fill:#786fa6;fill-opacity:1;stroke-width:0.076504"
           r="13.182513" /><path
           d="m 590.11912,166.85733 a 13.183541,13.183541 0 0 0 21.96596,13.95199 13.183648,13.183648 0 1 1 -21.96596,-13.95199 z"
           opacity="0.2"
           style="isolation:isolate;stroke-width:0.076504"
           id="path94-5" /></g></g><polygon
       points=""
       fill="#3f3d56"
       id="polygon3030"
       transform="matrix(0.26458333,0,0,0.26458333,-328.53574,-238.99235)" /></g></svg>
