<?xml version="1.0" encoding="UTF-8" standalone="no"?>
<!-- Created with Inkscape (http://www.inkscape.org/) -->

<svg
   width="419.27838mm"
   height="263.62982mm"
   viewBox="0 0 381.16208 239.66347"
   version="1.1"
   id="svg431"
   inkscape:version="1.4 (86a8ad7, 2024-10-11)"
   sodipodi:docname="event_petcare.svg"
   xml:space="preserve"
   xmlns:inkscape="http://www.inkscape.org/namespaces/inkscape"
   xmlns:sodipodi="http://sodipodi.sourceforge.net/DTD/sodipodi-0.dtd"
   xmlns="http://www.w3.org/2000/svg"
   xmlns:svg="http://www.w3.org/2000/svg"><sodipodi:namedview
     id="namedview433"
     pagecolor="#ffffff"
     bordercolor="#000000"
     borderopacity="0.25"
     inkscape:showpageshadow="2"
     inkscape:pageopacity="0.0"
     inkscape:pagecheckerboard="0"
     inkscape:deskcolor="#d1d1d1"
     inkscape:document-units="mm"
     showgrid="false"
     inkscape:zoom="0.5"
     inkscape:cx="893"
     inkscape:cy="613"
     inkscape:window-width="1920"
     inkscape:window-height="1009"
     inkscape:window-x="-8"
     inkscape:window-y="-8"
     inkscape:window-maximized="1"
     inkscape:current-layer="g22894" /><defs
     id="defs428" /><g
     inkscape:label="Calque 1"
     inkscape:groupmode="layer"
     id="layer1"
     transform="translate(-57.077006,-76.333465)"><g
       id="g2240"
       transform="translate(-492.69047,40.347656)"><g
         id="g22894"><ellipse
           cx="-693.08527"
           cy="249.67776"
           rx="81.649323"
           ry="3.5130219"
           fill="#3f3d56"
           id="ellipse2832-5"
           transform="scale(-1,1)"
           style="stroke-width:0.141529" /><circle
           cx="616.06982"
           cy="96.935074"
           r="32.846645"
           fill="#ff6584"
           id="circle2621"
           style="fill:#f78fb3;fill-opacity:1;stroke-width:0.366742" /><ellipse
           cx="590.56952"
           cy="240.15244"
           rx="22.576513"
           ry="2.0810533"
           fill="#3f3d56"
           id="ellipse2623"
           style="stroke-width:0.299083" /><path
           d="m 649.00468,249.4299 c 0,0 16.766,-44.70934 7.5232,-72.22278 -9.24279,-27.51343 -16.55105,-26.43869 -16.55105,-26.43869 0,0 -12.46704,-3.22423 -27.94333,6.23351 -15.47631,9.45775 -19.56034,12.25208 -28.37324,8.38301 -8.8129,-3.86908 -10.5325,-9.88765 -32.02735,-9.2428 0,0 11.39227,-6.23351 22.56961,-0.64485 11.17733,5.58868 18.70053,8.59796 30.09282,0 11.39229,-8.59794 27.08355,-19.77528 42.3449,-13.11185 0,0 -11.17733,-10.96239 -14.83146,-10.96239 -3.65412,0 -24.38407,-4.33381 -25.18,-8.15255 0,0 -2.40813,-5.8906 -19.28343,4.39195 -3.82655,2.33163 -2.32628,8.51999 -15.00825,7.44524 -12.68198,-1.07475 -22.56962,-7.30827 -22.56962,-7.30827 0,0 14.83145,6.01857 23.8593,3.00928 9.02785,-3.00928 4.22987,-4.75937 12.18297,-8.62845 7.95311,-3.86907 12.68197,-9.02784 23.42941,-3.43919 0,0 -4.51392,-18.48559 -13.11187,-16.98094 -8.59795,1.50464 4.08402,-4.298967 4.08402,-4.298967 0,0 -2.36443,-31.38251 -6.87836,-33.532 -4.51392,-2.14949 -1.71958,-7.738136 -10.10259,-8.812893 0,0 10.31754,-1.289697 12.25209,5.803603 1.93453,7.0933 15.26135,45.354167 15.26135,45.354167 0,0 8.16806,16.33611 17.1959,12.46703 9.02785,-3.86906 -3.43918,-25.578887 -3.43918,-25.578887 l -15.4763,-7.09331 c 0,0 11.60724,-0.4299 18.70054,6.23352 7.09331,6.6634 7.5232,28.158267 7.5232,28.158267 0,0 17.84075,2.57939 22.13971,12.25209 0,0 2.79433,-8.59795 -2.57938,-13.75673 -1.34344,-1.28968 -2.75403,-3.53322 -4.11425,-6.17305 -5.20176,-10.09529 -6.96645,-21.603007 -5.33004,-32.841117 0.80078,-5.4994 1.29362,-10.87656 0.41644,-12.14362 -1.93453,-2.79433 -7.00427,-12.825331 -7.64911,-17.339257 -0.64485,-4.513926 0.64484,-13.97167 0.64484,-13.97167 0,0 0.21495,11.607233 2.79434,15.261365 2.57939,3.654124 6.78931,14.544922 6.78931,14.544922 0,0 0,22.78457 6.01856,33.961887 6.01857,11.17734 17.6258,23.64436 16.98096,31.81242 v 4.72887 c 0,0 12.89691,-12.25208 12.03712,-16.33611 -0.8598,-4.08402 -1.93453,-13.75671 -10.10258,-19.56032 -8.16807,-5.803617 -13.54176,-15.046407 -7.73815,-28.373227 5.80362,-13.326828 5.80361,-15.691264 5.80361,-15.691264 l -3.86908,16.551054 c 0,0 -2.14948,14.83145 3.86908,19.99023 6.01856,5.15877 13.97166,14.616507 13.97166,14.616507 l -1.71959,-30.952607 5.58866,12.25207 c 0,0 12.03713,-15.47631 26.22375,-20.63508 14.18662,-5.15877 22.99952,-23.214462 22.99952,-23.214462 l 12.03714,-9.457745 -9.88764,11.82219 c 0,0 -3.0093,13.971657 -19.99023,23.859307 -16.98095,9.88765 -27.94335,24.50415 -28.58819,33.531997 -0.64483,9.02784 -1.28969,16.98094 -1.28969,16.98094 0,0 31.8124,-1.07474 38.90572,-15.04641 7.09329,-13.971667 7.73815,-41.700037 14.6165,-46.213967 6.87837,-4.513917 19.77529,-10.102584 19.77529,-10.102584 l -14.40157,11.822174 c 0,0 -3.00927,9.6727 -2.36443,16.55105 0.64484,6.87836 -4.72887,13.32681 -4.72887,13.32681 l -4.08403,12.037127 -4.51391,10.31755 c 0,0 18.48559,0.42989 28.15827,11.39228 9.6727,10.96239 33.74696,14.18661 33.74696,14.18661 l -13.54177,3.65414 c 0,0 -12.89693,-4.29898 -25.149,-12.25207 -12.25207,-7.9531 -10.96239,-15.04642 -26.22375,-7.09332 -15.26136,7.95311 -36.11138,14.61652 -36.11138,14.61652 0,0 12.03712,-5.58868 33.74694,7.9531 21.70982,13.54177 -10.74743,-2.36444 -20.42012,2.79433 -9.6727,5.15877 -14.18662,-1.28969 -18.0557,11.60723 -3.86908,12.89692 -10.96238,48.14851 -2.79433,67.92379 l 8.16805,19.77529 z"
           fill="#3f3d56"
           id="path2625"
           style="stroke-width:0.267608"
           sodipodi:nodetypes="cscsscsscscsscsscscscscsccsccssssscscsccsssccscccscccsscssccscccsccsscsssscc" /><path
           d="m 729.9365,107.13383 c -5.7628,11.35106 -27.84138,14.1895 -35.92107,14.85496 -0.22658,2.91388 -0.37597,4.75662 -0.37597,4.75662 0,0 31.81242,-1.07476 38.9057,-15.04643 7.09329,-13.971647 7.73817,-41.700037 14.61655,-46.213957 0.72946,-0.47871 1.52715,-0.96957 2.36943,-1.46453 0.23629,-0.86754 0.39562,-1.38103 0.39562,-1.38103 l 14.40157,-11.822174 c 0,0 -12.8969,5.588659 -19.77527,10.102574 -6.87838,4.51393 -7.52322,32.24231 -14.61656,46.213967 z"
           opacity="0.1"
           id="path2627"
           style="stroke-width:0.267608" /><path
           d="m 692.86864,85.418433 c -0.0469,5.29221 -0.73381,8.43981 -0.73381,8.43981 0,0 12.0321,-15.46968 26.21484,-20.63174 0.83821,-0.53028 1.6886,-1.05238 2.55898,-1.5592 16.98096,-9.88765 19.99026,-23.859315 19.99026,-23.859315 l 9.88764,-11.82218 -12.03714,9.457753 c 0,0 -8.81291,18.055692 -22.99948,23.214452 -9.67022,3.51644 -18.34014,11.82548 -22.88129,16.76042 z"
           opacity="0.1"
           id="path2629"
           style="stroke-width:0.267608" /><path
           d="m 674.29409,136.63304 v 4.72888 c 0,0 12.89692,-12.25208 12.0371,-16.3361 -0.6575,-3.12332 -1.44476,-9.51405 -5.43035,-14.94433 1.79651,4.10377 2.34332,8.1067 2.8217,10.37916 0.61656,2.92863 -5.8406,10.05705 -9.54365,13.85624 a 9.8023729,9.8023729 0 0 1 0.1152,2.31615 z"
           opacity="0.1"
           id="path2631"
           style="stroke-width:0.267608" /><path
           d="m 656.99405,104.18108 c 0.10215,0.21786 0.20745,0.43223 0.31907,0.63955 3.29618,6.12145 8.26555,12.62846 11.98361,18.60553 -3.00496,-5.91917 -8.23445,-12.68784 -12.30268,-19.24508 z"
           opacity="0.1"
           id="path2633"
           style="stroke-width:0.267608" /><path
           d="m 667.47331,95.029963 c -1.73335,-4.24708 -2.01895,-9.3007 -0.0276,-15.22262 a 46.454416,46.454416 0 0 1 0.37064,-6.42043 l 3.38457,-14.478464 c -0.62402,2.087924 -2.05179,6.115904 -5.31914,13.618664 -4.13631,9.49821 -2.59259,16.92024 1.59152,22.50285 z"
           opacity="0.1"
           id="path2635"
           style="stroke-width:0.267608" /><path
           d="m 762.3938,126.26427 c -6.70805,-7.60247 -17.65287,-10.13873 -23.73292,-10.97965 l -1.81669,4.15251 c 0,0 18.48558,0.42992 28.15827,11.39229 5.36393,6.07914 15.15535,9.77768 22.8154,11.86732 l 8.32287,-2.24583 c 0,0 -24.07424,-3.22426 -33.74693,-14.18664 z"
           opacity="0.1"
           id="path2637"
           style="stroke-width:0.267608" /><path
           d="m 630.87442,123.30622 c 9.02786,-3.86909 -3.43915,-25.578887 -3.43915,-25.578887 l -0.34105,-0.15632 c 3.1081,6.557667 7.61576,18.408257 1.17154,21.170047 -6.03006,2.58433 -11.67571,-3.84521 -14.76071,-8.40053 0.112,0.32218 0.1735,0.49867 0.1735,0.49867 0,0 8.16802,16.33611 17.19587,12.46702 z"
           opacity="0.1"
           id="path2639"
           style="stroke-width:0.267608" /><path
           d="m 660.32242,137.27789 c 0,0 2.72031,-8.38512 -2.39008,-13.56223 1.25317,4.46001 -0.21858,8.99708 -0.21858,8.99708 -3.32558,-7.48251 -14.75276,-10.71966 -19.75803,-11.80228 0.19413,2.49118 0.22697,4.11536 0.22697,4.11536 0,0 17.84075,2.57938 22.13972,12.25207 z"
           opacity="0.1"
           id="path2641"
           style="stroke-width:0.267608" /><path
           d="m 671.20091,58.908441 c 0.4844,-1.620758 0.48451,-2.0726 0.48451,-2.0726 z"
           opacity="0.1"
           id="path2643"
           style="stroke-width:0.267608" /><path
           d="m 576.19146,135.47164 c 0,0.0455 0.0874,-0.0267 0.13043,-0.0411 9.02785,-3.00929 4.46951,-4.81611 12.42262,-8.68517 7.95312,-3.86905 12.68195,-9.02785 23.42937,-3.43919 0,0 -1.88023,-7.69631 -5.52382,-12.7527 1.20683,2.63968 2.18221,5.37915 2.91516,8.18754 -10.74742,-5.58865 -15.4763,-0.42988 -23.42937,3.43919 -7.95311,3.86908 -3.39477,5.67589 -12.42262,8.68518 -9.02785,3.00928 -23.8593,-3.0093 -23.8593,-3.0093 0,0 9.88764,6.23352 22.56962,7.30825 1.45074,0.12294 3.76791,-0.77471 3.76791,0.30725 z"
           opacity="0.1"
           id="path2645"
           style="stroke-width:0.267608"
           sodipodi:nodetypes="scsccccscsss" /><path
           d="m 653.50969,249.4299 c 3.93847,-12.07338 13.41013,-45.45951 5.95295,-67.65764 -3.22042,-9.58642 -6.20544,-15.69941 -8.72887,-19.59929 1.88711,3.69176 3.95032,8.57496 6.12022,15.03414 9.24278,27.51343 -7.52323,72.22279 -7.52323,72.22279 z"
           opacity="0.1"
           id="path2647"
           style="stroke-width:0.267608" /><path
           d="m 569.56615,157.8711 a 21.941824,21.941824 0 0 1 7.57111,2.19136 c 8.82751,4.41374 15.37715,7.21296 23.35219,3.96188 1.81673,-0.95971 3.84882,-2.14731 6.19229,-3.56118 0.18272,-0.13334 0.36367,-0.2613 0.54836,-0.4007 11.39227,-8.59796 27.08355,-19.77529 42.34485,-13.11188 0,0 -3.08436,-3.02421 -6.54186,-5.89588 -13.98806,-3.43144 -27.99643,6.58206 -38.41164,14.4426 -11.39231,8.59797 -18.91549,5.58867 -30.09285,0 -11.17736,-5.58865 -22.56962,0.64484 -22.56962,0.64484 8.30507,-0.24916 13.65662,0.49693 17.60717,1.72896 z"
           opacity="0.1"
           id="path2649"
           style="stroke-width:0.267608" /><path
           d="m 591.38418,61.842463 a 5.6229132,5.6229132 0 0 0 0.88395,1.13007 6.3436365,6.3436365 0 0 0 -0.88395,-1.13007 z"
           opacity="0.1"
           id="path2651"
           style="stroke-width:0.267608" /><path
           d="m 630.65948,96.867553 a 10.465669,10.465669 0 0 1 0.93188,1.00469 c -0.9416,-2.26351 -2.10437,-4.22077 -3.54053,-5.56985 -7.0933,-6.66342 -18.70055,-6.23351 -18.70055,-6.23351 l 14.55668,6.67181 a 20.787704,20.787704 0 0 1 6.75252,4.12686 z"
           opacity="0.1"
           id="path2653"
           style="stroke-width:0.267608" /><path
           d="m 646.10651,67.798223 c 0.87722,1.26706 0.38436,6.64423 -0.41644,12.14363 -1.63639,11.23811 0.12829,22.745827 5.33004,32.841117 0.68476,1.35483 1.44955,2.66769 2.29034,3.93163 -4.95321,-9.94189 -6.61403,-21.203547 -5.01172,-32.207597 0.80079,-5.4994 1.29367,-10.87657 0.41644,-12.14363 -1.93452,-2.79432 -7.33103,-12.76482 -7.97587,-17.278746 -0.19334,-1.75119 -0.23838,-3.515582 -0.13467,-5.274357 -1.66969,-4.73749 -1.82915,-13.262459 -1.82915,-13.262459 0,0 -1.28968,9.457762 -0.64484,13.97167 0.64484,4.5139 6.04135,14.484412 7.97587,17.278742 z"
           opacity="0.1"
           id="path2655"
           style="stroke-width:0.267608"
           sodipodi:nodetypes="ccccsccccsc" /><path
           d="m 666.27199,38.08236 a 6.1510367,6.1510367 0 0 0 -0.39021,-1.236741 c 0,0 0.1652,0.463913 0.39021,1.236741 z"
           opacity="0.1"
           id="path2657"
           style="stroke-width:0.267608" /><path
           d="m 590.3512,59.730493 c 1.89439,0.23191 4.07348,0.81314 5.73565,2.16112 -0.10842,-0.36673 -0.203,-0.69548 -0.2783,-0.97175 -1.93457,-7.093298 -12.25209,-5.803602 -12.25209,-5.803602 4.66262,0.597777 5.86696,2.592063 6.79474,4.614232 z"
           opacity="0.1"
           id="path2659"
           style="stroke-width:0.267608" /><path
           d="m 643.77591,240.24575 c 1.53258,5.66531 6.78198,9.17399 6.78198,9.17399 0,0 2.76462,-5.67662 1.23205,-11.34194 -1.53257,-5.6653 -6.78198,-9.17398 -6.78198,-9.17398 0,0 -2.76462,5.67661 -1.23205,11.34193 z"
           fill="#3f3d56"
           id="path2661"
           style="stroke-width:0.267608" /><path
           d="m 646.02792,239.02821 c 4.2054,4.0938 4.71906,10.38691 4.71906,10.38691 0,0 -6.30465,-0.34423 -10.51005,-4.43803 -4.20541,-4.09379 -4.71907,-10.38691 -4.71907,-10.38691 0,0 6.30466,0.34425 10.51006,4.43803 z"
           fill="#786fa6"
           id="path2663"
           style="stroke-width:0.267608" /><path
           d="m 632.08937,85.423763 c -0.36558,5.85755 -4.80496,10.34746 -4.80496,10.34746 0,0 -3.8466,-5.00707 -3.481,-10.86462 0.36559,-5.85756 4.80495,-10.34745 4.80495,-10.34745 0,0 3.84662,5.00706 3.48101,10.86461 z"
           fill="#786fa6"
           id="path2665"
           style="stroke-width:0.267608" /><path
           d="m 585.81301,48.393353 c 4.96463,3.130012 6.77544,9.17882 6.77544,9.17882 0,0 -6.23846,0.974055 -11.20309,-2.155958 -4.96462,-3.130005 -6.77544,-9.178822 -6.77544,-9.178822 0,0 6.23845,-0.974054 11.20309,2.15596 z"
           fill="#786fa6"
           id="path2667"
           style="stroke-width:0.267608" /><path
           d="m 574.72622,119.80537 c 4.96463,3.13003 6.77544,9.17883 6.77544,9.17883 0,0 -6.23846,0.97406 -11.20309,-2.15596 -4.96464,-3.13001 -6.77545,-9.17881 -6.77545,-9.17881 0,0 6.23845,-0.97406 11.2031,2.15594 z"
           fill="#786fa6"
           id="path2669"
           style="stroke-width:0.267608" /><path
           d="m 601.13889,147.1963 c 4.96463,3.13001 6.77545,9.17882 6.77545,9.17882 0,0 -6.23847,0.97406 -11.2031,-2.15595 -4.96462,-3.13001 -6.77544,-9.17883 -6.77544,-9.17883 0,0 6.23845,-0.97405 11.20309,2.15596 z"
           fill="#786fa6"
           id="path2671"
           style="stroke-width:0.267608" /><path
           d="m 675.65513,58.833218 c -1.49719,5.674765 -6.72461,9.216135 -6.72461,9.216135 0,0 -2.79998,-5.65926 -1.30279,-11.334027 1.49719,-5.674766 6.72462,-9.216132 6.72462,-9.216132 0,0 2.79998,5.659259 1.30278,11.334024 z"
           fill="#786fa6"
           id="path2673"
           style="stroke-width:0.267608" /><path
           d="m 722.88343,63.257973 c -1.75971,5.59892 -7.14631,8.89312 -7.14631,8.89312 0,0 -2.53353,-5.78346 -0.7738,-11.38239 1.75972,-5.598921 7.1463,-8.893116 7.1463,-8.893116 0,0 2.53353,5.78345 0.77381,11.382386 z"
           fill="#786fa6"
           id="path2675"
           style="stroke-width:0.267608" /><path
           d="m 773.9298,125.57138 c -3.18762,4.92785 -9.2571,6.66809 -9.2571,6.66809 0,0 -0.90134,-6.24938 2.28627,-11.17722 3.18761,-4.92785 9.25711,-6.6681 9.25711,-6.6681 0,0 0.90133,6.24938 -2.28628,11.17723 z"
           fill="#786fa6"
           id="path2677"
           style="stroke-width:0.267608" /><ellipse
           cx="-860.14264"
           cy="249.14777"
           rx="59.376152"
           ry="3.6588485"
           fill="#3f3d56"
           id="ellipse2832"
           transform="scale(-1,1)"
           style="stroke-width:0.12317" /><path
           d="m 830.69556,238.83149 -1.02401,3.15509 c 0,0 -4.93186,5.0952 -3.14814,6.47623 1.78373,1.38104 5.78569,-5.89919 5.78569,-5.89919 l 0.73756,-3.56193 z"
           fill="#ffb8b8"
           id="path2834"
           style="stroke-width:0.165855" /><path
           d="m 840.15712,214.41107 -1.4927,-0.49757 c 0,0 -2.32197,0.66343 -2.65368,2.9854 -0.33171,2.32197 -2.81954,14.09769 -2.81954,14.09769 0,0 -0.99513,0.49756 -0.33171,1.32684 0.66342,0.82927 -3.3171,8.29276 -3.3171,8.29276 l 3.15125,1.49269 c 0,0 6.30249,-6.6342 6.30249,-7.29762 0,-0.66342 -0.16585,-1.32685 -0.16585,-1.99027 0,-0.66342 0.16585,-0.66342 0,-1.16098 a 5.3350118,5.3350118 0 0 1 -0.16586,-1.32684 l 1.16099,-2.65369 z"
           fill="#786fa6"
           id="path2836"
           style="stroke-width:0.165855" /><ellipse
           cx="-915.93335"
           cy="197.97911"
           rx="14.996255"
           ry="30.598415"
           fill="#786fa6"
           id="ellipse2838"
           transform="scale(-1,1)"
           style="stroke-width:0.165855" /><path
           d="m 916.07103,198.29646 c -0.74805,-13.31927 -2.25524,-22.31602 -2.27039,-22.40535 l 0.32701,-0.0554 c 0.0151,0.0894 1.52501,9.10057 2.27428,22.43701 0.69144,12.30876 0.85826,30.92648 -2.2742,49.72108 l -0.32717,-0.0544 c 3.12712,-18.76269 2.9607,-37.35223 2.27047,-49.64293 z"
           fill="#3f3d56"
           id="path2840"
           style="stroke-width:0.165855" /><rect
           x="-901.59821"
           y="-256.81381"
           width="15.378948"
           height="0.33173022"
           transform="matrix(-0.88165868,-0.47188767,-0.47188767,0.88165868,0,0)"
           fill="#3f3d56"
           id="rect2842"
           style="stroke-width:0.165855" /><rect
           x="-611.39502"
           y="-728.11102"
           width="0.33173022"
           height="15.378948"
           transform="matrix(-0.47165224,-0.88178465,-0.88178465,0.47165224,0,0)"
           fill="#3f3d56"
           id="rect2844"
           style="stroke-width:0.165855" /><ellipse
           cx="-880.66382"
           cy="176.77325"
           rx="20.521189"
           ry="41.871517"
           fill="#e6e6e6"
           id="ellipse2846"
           transform="scale(-1,1)"
           style="stroke-width:0.165855" /><path
           d="m 880.91311,177.20218 c -1.0238,-18.22933 -3.0867,-30.54254 -3.10743,-30.66483 l 0.32701,-0.0554 c 0.0207,0.12237 2.08631,12.44999 3.11132,30.69649 0.94614,16.84053 1.17435,42.31258 -3.11124,68.02596 L 877.8056,245.15 c 4.28024,-25.68163 4.05235,-51.12534 3.10751,-67.94781 z"
           fill="#3f3d56"
           id="path2848"
           style="stroke-width:0.165855" /><rect
           x="-860.72833"
           y="-258.4942"
           width="21.044918"
           height="0.33173025"
           transform="matrix(-0.88165704,-0.47189074,-0.47189074,0.88165704,0,0)"
           fill="#3f3d56"
           id="rect2850"
           style="stroke-width:0.165855" /><rect
           x="-577.77502"
           y="-712.10883"
           width="0.33173022"
           height="21.044918"
           transform="matrix(-0.47165224,-0.88178465,-0.88178465,0.47165224,0,0)"
           fill="#3f3d56"
           id="rect2852"
           style="stroke-width:0.165855" /><ellipse
           cx="-897.75916"
           cy="219.31677"
           rx="7.6672573"
           ry="15.644303"
           fill="#e6e6e6"
           id="ellipse2854"
           transform="scale(-1,1)"
           style="stroke-width:0.165855" /><path
           d="m 897.76591,219.99072 -0.0454,0.0849 -6.93239,-3.71052 0.15646,-0.29251 6.80686,3.64334 c -0.37668,-6.93303 -1.14708,-11.58714 -1.16261,-11.67878 l 0.32702,-0.0554 c 0.0169,0.10008 0.9323,5.62689 1.2572,13.62416 l 6.86532,-3.67463 0.15647,0.29252 -6.93239,3.71051 -0.0828,-0.15471 c 0.25995,6.6006 0.11425,14.85393 -1.26376,23.12193 l -0.32718,-0.0544 c 1.50243,-9.01463 1.53552,-18.01233 1.17714,-24.85639 z"
           fill="#3f3d56"
           id="path2856"
           style="stroke-width:0.165855" /><path
           d="m 838.12764,198.6671 c 2.66598,-4.54368 7.94042,-4.75543 7.94042,-4.75543 0,0 5.13964,-0.66294 8.43669,6.25713 3.07311,6.45007 7.3144,12.67775 0.68281,14.18767 l -1.19785,-3.76053 -0.74183,4.04049 a 25.725878,25.725878 0 0 1 -2.83741,0.0489 c -7.10189,-0.23128 -13.86536,0.0677 -13.64759,-2.50285 0.28949,-3.41713 -1.20045,-9.14348 1.36476,-13.5154 z"
           fill="#2f2e41"
           id="path2858"
           style="stroke-width:0.165855" /><path
           d="m 856.71033,235.0615 a 10.156896,10.156896 0 0 0 0.32329,1.40372 c 0.15858,0.4498 0.40342,0.86577 0.54843,1.3202 0.4622,1.44855 -0.17855,3.06364 -1.20193,4.18173 a 6.7539542,6.7539542 0 0 1 -3.29843,1.97556 c -0.92322,0.23421 -1.88315,0.26791 -2.83457,0.30046 -2.63454,0.0901 -5.33687,0.17072 -7.83325,-0.68328 a 13.553668,13.553668 0 0 1 -2.2758,-1.04282 1.7062351,1.7062351 0 0 1 -0.59052,-0.46899 c -0.1904,-0.27341 -0.21476,-0.62801 -0.21309,-0.96213 0.006,-1.12651 0.23202,-2.24728 0.17826,-3.37251 -0.0298,-0.62326 -0.14542,-1.24604 -0.0885,-1.86738 a 3.4348921,3.4348921 0 0 1 2.61019,-2.96745 c 0.70817,-0.15339 1.44268,-0.0698 2.16367,1.1e-4 a 54.697247,54.697247 0 0 0 5.63103,0.25397 c 1.92095,-0.0124 3.83004,-0.30814 5.74144,-0.33903 0.56525,-0.009 0.55383,0.16664 0.73379,0.71843 a 13.534588,13.534588 0 0 1 0.40599,1.54941 z"
           fill="#2f2e41"
           id="path2860"
           style="stroke-width:0.165855" /><path
           d="m 864.22197,234.14593 a 5.6372995,5.6372995 0 0 1 1.58109,-0.16953 3.9905384,3.9905384 0 0 1 2.8824,1.51158 4.062017,4.062017 0 0 1 0.78127,3.18064 6.7225429,6.7225429 0 0 1 -0.62652,1.72683 c -0.41931,0.85831 -0.92222,1.71465 -1.69847,2.26467 a 6.590567,6.590567 0 0 1 -1.49895,0.71969 l -4.08838,1.55349 c -0.60145,0.22854 -1.20299,0.45711 -1.81039,0.66902 a 35.144626,35.144626 0 0 1 -9.45586,1.89611 c -0.98169,0.059 -1.97825,0.0754 -2.93595,-0.15006 a 0.95350137,0.95350137 0 0 1 -0.60127,-0.32765 1.0451828,1.0451828 0 0 1 -0.13435,-0.44757 l -0.25157,-1.77645 a 1.5004403,1.5004403 0 0 1 0.0214,-0.74887 c 0.11524,-0.29855 0.40412,-0.48636 0.67956,-0.64593 2.68782,-1.55711 5.82617,-2.41616 8.08855,-4.55326 0.5326,-0.50311 0.9783,-1.30059 1.62541,-1.64235 0.7338,-0.38754 1.598,-0.60872 2.35649,-0.96584 1.65815,-0.7807 3.28843,-1.67784 5.08555,-2.09452 z"
           fill="#2f2e41"
           id="path2862"
           style="stroke-width:0.165855" /><path
           d="m 860.14031,236.54083 c -1.44507,0.45673 -7.54616,3.62096 -8.5919,4.72574 0.14017,0.0509 4.89608,-2.63741 5.03878,-2.68061 1.29721,-0.39268 2.60162,-0.78795 3.83351,-1.36263 0.24782,-0.1156 1.61,-0.65901 1.54831,-0.9744 -0.0696,-0.35589 -1.57216,0.21082 -1.8287,0.2919 z"
           opacity="0.1"
           id="path2864"
           style="stroke-width:0.165855" /><path
           d="m 842.11215,248.41974 a 0.33739917,0.33739917 0 0 1 -0.22908,-0.068 0.3591262,0.3591262 0 0 1 -0.0716,-0.26589 l 0.007,-2.42014 c 0.68997,-0.33159 1.46175,-0.43786 2.21929,-0.54 l 3.53457,-0.47654 c -0.0812,0.0109 0.55266,1.53555 0.45547,1.73909 -0.1713,0.35874 -1.4804,0.67667 -1.84986,0.84606 -1.28436,0.58882 -2.61898,1.23616 -4.06552,1.18542 z"
           fill="#ffb8b8"
           id="path2866"
           style="stroke-width:0.165855" /><path
           d="m 853.20184,245.65733 c 0.66735,0.10722 1.41222,0.20199 1.84441,0.72598 0.54808,0.66449 0.31475,1.65509 0.0533,2.47826 a 1.0705072,1.0705072 0 0 1 -0.22735,0.45095 c -0.17842,0.17755 -0.45185,0.20356 -0.70199,0.21954 -0.60862,0.0389 -1.25632,0.0693 -1.7881,-0.23179 a 7.8423672,7.8423672 0 0 1 -0.6946,-0.52077 4.4354449,4.4354449 0 0 0 -1.27708,-0.58892 12.817137,12.817137 0 0 0 -2.56353,-0.53287 3.9561434,3.9561434 0 0 1 -1.00987,-0.17956 1.1235311,1.1235311 0 0 1 -0.7112,-0.69646 c -0.12318,-0.43981 0.13025,-0.88822 0.3733,-1.27392 0.30276,-0.48049 0.62352,-0.9864 1.07496,-1.3401 0.65861,-0.51602 0.98439,-0.1199 1.64781,0.21031 a 13.895126,13.895126 0 0 0 3.97993,1.27935 z"
           fill="#ffb8b8"
           id="path2868"
           style="stroke-width:0.165855" /><path
           d="m 854.94585,246.26366 4.23749,-1.2633 a 5.566403,5.566403 0 0 1 1.57692,-0.30822 c 0.53739,3.3e-4 1.09965,0.17813 1.44817,0.59072 0.32859,0.38899 0.42264,0.92063 0.50456,1.42494 l 0.17523,1.0788 a 5.46415,5.46415 0 0 1 0.0981,1.65663 c -0.0802,0.54963 -0.35832,1.09874 -0.84182,1.36481 -0.58638,0.32269 -1.30508,0.16508 -1.95952,0.0301 a 21.15762,21.15762 0 0 0 -4.01565,-0.43435 c -0.5072,-0.006 -1.0392,3.3e-4 -1.48739,-0.2393 -0.53275,-0.2848 -0.85148,-0.88699 -0.90628,-1.49265 -0.0834,-0.92154 0.22114,-2.12526 1.17018,-2.40819 z"
           fill="#2f2e41"
           id="path2870"
           style="stroke-width:0.165855" /><path
           d="m 840.44646,245.16277 c -0.54933,-0.0971 -1.03414,-0.41201 -1.56051,-0.59789 -0.7409,-0.26163 -1.5438,-0.26163 -2.32879,-0.25873 -0.28817,9.9e-4 -0.59504,0.008 -0.83492,0.16865 -0.34577,0.2322 -0.43439,0.69686 -0.49318,1.11163 l -0.35473,2.50248 c -0.0667,0.4707 -0.13305,0.95398 -0.029,1.41773 0.10407,0.46375 0.41745,0.91082 0.87369,1.03046 0.55411,0.1453 1.09732,-0.21173 1.6205,-0.44627 1.30766,-0.58619 2.82773,-0.43636 4.1912,-0.8745 0.25303,-0.0813 0.52403,-0.20563 0.62727,-0.45243 a 1.0378072,1.0378072 0 0 0 0.0488,-0.43245 c -0.0233,-0.80437 0.14484,-1.90275 -0.0953,-2.67151 -0.21593,-0.69137 -1.05192,-0.49717 -1.66511,-0.49717 z"
           fill="#2f2e41"
           id="path2872"
           style="stroke-width:0.165855" /><path
           d="m 831.47901,233.13869 a 7.2973107,7.2973107 0 0 0 -2.59219,-0.17864 c -0.69299,0.077 -1.40699,0.27151 -1.91295,0.75531 -0.61582,0.58886 -0.81369,1.49955 -0.8302,2.3553 a 7.3994626,7.3994626 0 0 0 1.58566,4.69945 4.2439021,4.2439021 0 0 0 0.90655,0.88025 5.9451748,5.9451748 0 0 0 1.17948,0.57331 l 9.15576,3.64255 c 2.40868,0.95827 4.82586,1.91932 7.33824,2.55107 a 0.56993475,0.56993475 0 0 0 0.76957,-0.28142 19.184232,19.184232 0 0 0 2.00668,-3.70252 0.33464598,0.33464598 0 0 0 0.0258,-0.27729 0.32905666,0.32905666 0 0 0 -0.13517,-0.11609 l -6.47594,-3.75308 a 6.5464313,6.5464313 0 0 1 -1.31809,-0.91604 3.3000203,3.3000203 0 0 1 -0.67671,-0.95028 c -0.13424,-0.2828 -0.14676,-0.95018 -0.31822,-1.15921 -0.16788,-0.20466 -0.74216,-0.22099 -1.00739,-0.30149 a 9.0923579,9.0923579 0 0 1 -1.0967,-0.41816 c -1.44862,-0.65367 -2.7386,-1.60343 -4.12729,-2.36881 a 10.53963,10.53963 0 0 0 -2.47694,-1.03421 z"
           fill="#2f2e41"
           id="path2874"
           style="stroke-width:0.165855" /><path
           d="m 835.15029,235.94147 c 1.11259,0.84287 2.55319,1.61765 3.65589,2.48272 0.37633,0.29524 6.64997,3.85287 6.73868,4.32536 -1.02876,0.17484 -7.58199,-4.44932 -8.5196,-4.91074 -0.93761,-0.46141 -1.76876,-1.11211 -2.59236,-1.75801 -0.20989,-0.1646 -1.09939,-0.65941 -0.49687,-0.84331 0.33942,-0.10359 0.96368,0.53548 1.21426,0.70398 z"
           opacity="0.1"
           id="path2876"
           style="stroke-width:0.165855" /><circle
           cx="-846.29376"
           cy="203.79637"
           r="6.3024964"
           fill="#ffb8b8"
           id="circle2878"
           transform="scale(-1,1)"
           style="stroke-width:0.165855" /><path
           d="m 843.64008,209.1037 c 0,0 0.99513,2.48783 -0.82928,3.48296 -1.8244,0.99513 5.63908,8.95618 5.63908,8.95618 l 3.3171,-9.6196 c 0,0 -2.81954,-0.99513 -2.32197,-3.64881 z"
           fill="#ffb8b8"
           id="path2880"
           style="stroke-width:0.165855" /><path
           d="m 847.78646,215.90377 -4.01668,-4.43426 -5.43707,2.7757 0.82928,19.57091 1.32684,1.4927 c 0,0 5.63908,4.97566 14.26355,0.82928 0,0 2.98539,-2.48783 2.81953,-6.3025 -0.16585,-3.81467 0.33171,-4.31223 0.33171,-4.31223 l 0.16586,-13.43427 -8.18846,-1.60681 z"
           fill="#786fa6"
           id="path2882"
           style="stroke-width:0.165855" /><path
           d="m 866.2042,237.00708 1.024,3.15509 c 0,0 4.93188,5.09519 3.14815,6.47624 -1.78374,1.38104 -5.78569,-5.8992 -5.78569,-5.8992 l -0.73756,-3.56193 z"
           fill="#ffb8b8"
           id="path2884"
           style="stroke-width:0.165855" /><path
           d="m 856.74264,212.58666 1.49269,-0.49756 c 0,0 2.32198,0.66342 2.65369,2.98539 0.33171,2.32197 2.81953,14.09769 2.81953,14.09769 0,0 0.99514,0.49757 0.33171,1.32684 -0.66342,0.82928 3.31711,8.29276 3.31711,8.29276 l -3.15125,1.4927 c 0,0 -6.3025,-6.63421 -6.3025,-7.29763 0,-0.66342 0.16586,-1.32684 0.16586,-1.99026 0,-0.66342 -0.16586,-0.66342 0,-1.16099 a 5.3350118,5.3350118 0 0 0 0.16585,-1.32684 l -1.16098,-2.65368 z"
           fill="#786fa6"
           id="path2886"
           style="stroke-width:0.165855" /><polygon
           points="492.488,411.138 498.73,396.446 498.73,410.895 509.041,410.495 515.026,387.105 518.766,412.005 555.421,411.25 553.925,381.823 522.506,365.224 479.119,372.014 470.142,412.005 "
           fill="#2f2e41"
           id="polygon2888"
           transform="matrix(-0.16585517,0,0,0.16585517,931.17756,134.90172)" /><path
           d="m 877.56781,242.15693 v 7.67247 h 23.4351 a 7.6728833,7.6728833 0 0 0 -7.67248,-7.67247 c -2.19745,-0.68504 -4.7381,-0.90319 -7.49423,-0.83136 -2.6005,0.0665 -5.39254,0.3924 -8.26839,0.83136 z"
           fill="#ff6584"
           id="path2890"
           style="fill:#f78fb3;fill-opacity:1;stroke-width:0.133018" /><path
           d="m 880.91556,248.15569 h -11.0202 a 0.69747934,0.69747934 0 0 0 -0.69747,0.69747 v 0 a 0.69747934,0.69747934 0 0 0 0.69747,0.69748 h 11.0202 z"
           fill="#3f3d56"
           id="path2892"
           style="stroke-width:0.133018" /><path
           d="m 879.00692,235.59089 -2.95384,-3.58061 a 0.77538126,0.77538126 0 0 0 -1.44524,0.12385 l -1.16486,4.11271 z"
           fill="#3f3d56"
           id="path2894"
           style="stroke-width:0.133018" /><path
           d="m 882.58951,237.41448 -1.11597,-4.50561 a 0.77537994,0.77537994 0 0 0 -1.35678,-0.51301 l -2.8281,3.20518 z"
           fill="#ff6584"
           id="path2896"
           style="fill:#f78fb3;fill-opacity:1;stroke-width:0.133018" /><path
           d="m 901.003,249.74197 h -2.23193 v 4.74288 a 2.2319365,2.2319365 0 0 0 2.23193,2.23193 v 0 z"
           fill="#ff6584"
           id="path2898"
           style="fill:#f78fb3;fill-opacity:1;stroke-width:0.133018" /><path
           d="m 881.33405,248.43468 h -11.0202 a 0.69747934,0.69747934 0 0 0 -0.69748,0.69747 v 0 a 0.69748067,0.69748067 0 0 0 0.69748,0.69748 h 11.0202 z"
           fill="#ff6584"
           id="path2900"
           style="fill:#f78fb3;fill-opacity:1;stroke-width:0.133018" /><path
           d="m 877.56781,242.15693 v 7.6299 a 7.534844,7.534844 0 0 0 8.26839,-8.46126 c -2.6005,0.0665 -5.39254,0.3924 -8.26839,0.83136 z"
           opacity="0.2"
           id="path2902"
           style="stroke-width:0.133018" /><circle
           cx="-877.56763"
           cy="242.29691"
           r="7.5327911"
           fill="#ff6584"
           id="circle2904"
           transform="scale(-1,1)"
           style="fill:#f78fb3;fill-opacity:1;stroke-width:0.133018" /><ellipse
           cx="-870.31384"
           cy="242.85492"
           rx="0.83697653"
           ry="1.9529462"
           fill="#3f3d56"
           id="ellipse2906"
           transform="scale(-1,1)"
           style="stroke-width:0.133018" /><ellipse
           cx="-872.33655"
           cy="240.83218"
           rx="0.2092438"
           ry="0.48823687"
           fill="#3f3d56"
           id="ellipse2908"
           transform="scale(-1,1)"
           style="stroke-width:0.133018" /><ellipse
           cx="-870.80206"
           cy="239.85571"
           rx="0.2092438"
           ry="0.48823687"
           fill="#3f3d56"
           id="ellipse2910"
           transform="scale(-1,1)"
           style="stroke-width:0.133018" /><path
           d="m 878.19963,234.68021 c 0,0 0.41868,-0.7283 0.41868,-1.17259"
           fill="#3f3d56"
           id="path2912"
           style="stroke-width:0.133018" /><path
           d="m 878.01546,234.20916 c 0,0 -0.22813,-0.80849 -0.54584,-1.11907"
           fill="#3f3d56"
           id="path2914"
           style="stroke-width:0.133018" /><circle
           cx="677.15594"
           cy="227.45839"
           r="7.9032011"
           fill="#3f3d56"
           id="circle3002"
           style="stroke-width:0.0475442"
           transform="rotate(-9.8218465)" /><path
           d="m 701.23746,110.08561 a 2.091362,2.091362 0 0 1 3.16309,-0.54761 2.3244717,2.3244717 0 1 0 -3.16309,0.54761 z"
           fill="#ffffff"
           id="path3004"
           style="stroke-width:0.0475442" /><path
           d="m 707.42154,109.015 a 2.0913583,2.0913583 0 0 1 3.16309,-0.54761 2.3244702,2.3244702 0 1 0 -3.16309,0.54761 z"
           fill="#ffffff"
           id="path3006"
           style="stroke-width:0.0475442" /><circle
           cx="672.99249"
           cy="225.61995"
           r="0.79959404"
           fill="#3f3d56"
           id="circle3008"
           style="stroke-width:0.0475442"
           transform="rotate(-9.8218465)" /><circle
           cx="679.26837"
           cy="225.61995"
           r="0.79959404"
           fill="#3f3d56"
           id="circle3010"
           style="stroke-width:0.0475442"
           transform="rotate(-9.8218465)" /><circle
           cx="671.461"
           cy="229.4342"
           r="0.92978823"
           fill="#ff6584"
           id="circle3012"
           style="fill:#f78fb3;fill-opacity:1;stroke-width:0.0475442"
           transform="rotate(-9.8218465)" /><circle
           cx="682.15356"
           cy="229.4342"
           r="0.92978823"
           fill="#ff6584"
           id="circle3014"
           style="fill:#f78fb3;fill-opacity:1;stroke-width:0.0475442"
           transform="rotate(-9.8218465)" /><polygon
           points="434.943,505.926 420.276,569.484 444.721,545.039 "
           fill="#ff6584"
           id="polygon3016"
           transform="matrix(0.04684743,-0.00811035,0.00811035,0.04684743,681.22892,88.611913)"
           style="fill:#f78fb3;fill-opacity:1" /><polygon
           points="493.655,736.404 494.043,750.38 488.871,750.38 488.458,735.602 465.975,750.38 456.563,750.38 488.29,729.526 487.061,685.737 486.143,652.666 491.302,652.524 492.233,685.737 493.461,729.487 518.348,750.38 510.307,750.38 "
           fill="#3f3d56"
           id="polygon3018"
           transform="matrix(0.04684743,-0.00811035,0.00811035,0.04684743,681.22892,88.611913)" /><polygon
           points="415.424,736.404 415.812,750.38 410.654,750.38 410.24,735.602 387.757,750.38 378.345,750.38 410.059,729.526 408.831,685.737 407.913,652.666 413.084,652.524 414.015,685.737 415.23,729.487 440.118,750.38 432.076,750.38 "
           fill="#3f3d56"
           id="polygon3020"
           transform="matrix(0.04684743,-0.00811035,0.00811035,0.04684743,681.22892,88.611913)" /><path
           d="m 704.69907,100.23195 c -0.21368,0.037 -0.37343,0.2356 -0.45533,0.51236 -0.17743,-0.36413 -0.45697,-0.59033 -0.72951,-0.54314 a 0.4206309,0.4206309 0 0 0 -0.0535,0.0187 c -0.17563,-0.391187 -0.46881,-0.636087 -0.75267,-0.586937 -0.37949,0.0658 -0.59837,0.631667 -0.48886,1.264147 0.1095,0.63249 0.50589,1.09195 0.88537,1.02625 a 0.42063186,0.42063186 0 0 0 0.0533,-0.0187 c 0.17562,0.39118 0.4688,0.63608 0.75268,0.58693 0.21366,-0.0369 0.37342,-0.2356 0.45532,-0.51236 0.17745,0.36412 0.45697,0.59033 0.72953,0.54314 0.37947,-0.0658 0.59835,-0.63169 0.48886,-1.26415 -0.1095,-0.63248 -0.5059,-1.09195 -0.88539,-1.02624 z"
           fill="#3f3d56"
           id="path3022"
           style="stroke-width:0.0475442" /><polygon
           points=""
           fill="#3f3d56"
           id="polygon3030-0"
           transform="matrix(0.26458333,0,0,0.26458333,156.39602,-279.34001)" /><ellipse
           cx="-693.08527"
           cy="249.67776"
           rx="81.649323"
           ry="3.5130219"
           fill="#3f3d56"
           id="ellipse1730-5"
           transform="scale(-1,1)"
           style="stroke-width:0.141529" /><circle
           cx="616.06982"
           cy="96.935074"
           r="32.846645"
           fill="#ff6584"
           id="circle1732-0"
           style="fill:#f78fb3;fill-opacity:1;stroke-width:0.366742" /><ellipse
           cx="590.56952"
           cy="240.15244"
           rx="22.576513"
           ry="2.0810533"
           fill="#3f3d56"
           id="ellipse1734-5"
           style="stroke-width:0.299083" /><path
           d="m 649.00468,249.4299 c 0,0 16.766,-44.70934 7.5232,-72.22278 -9.24279,-27.51343 -16.55105,-26.43869 -16.55105,-26.43869 0,0 -12.46704,-3.22423 -27.94333,6.23351 -15.47631,9.45775 -19.56034,12.25208 -28.37324,8.38301 -8.8129,-3.86908 -10.5325,-9.88765 -32.02735,-9.2428 0,0 11.39227,-6.23351 22.56961,-0.64485 11.17733,5.58868 18.70053,8.59796 30.09282,0 11.39229,-8.59794 27.08355,-19.77528 42.3449,-13.11185 0,0 -11.17733,-10.96239 -14.83146,-10.96239 -3.65412,0 -24.38407,-4.33381 -25.18,-8.15255 0,0 -2.40813,-5.8906 -19.28343,4.39195 -3.82655,2.33163 -2.32628,8.51999 -15.00825,7.44524 -12.68198,-1.07475 -22.56962,-7.30827 -22.56962,-7.30827 0,0 14.83145,6.01857 23.8593,3.00928 9.02785,-3.00928 4.22987,-4.75937 12.18297,-8.62845 7.95311,-3.86907 12.68197,-9.02784 23.42941,-3.43919 0,0 -4.51392,-18.48559 -13.11187,-16.98094 -8.59795,1.50464 4.08402,-4.298967 4.08402,-4.298967 0,0 -2.36443,-31.38251 -6.87836,-33.532 -4.51392,-2.14949 -1.71958,-7.738136 -10.10259,-8.812893 0,0 10.31754,-1.289697 12.25209,5.803603 1.93453,7.0933 15.26135,45.354167 15.26135,45.354167 0,0 8.16806,16.33611 17.1959,12.46703 9.02785,-3.86906 -3.43918,-25.578887 -3.43918,-25.578887 l -15.4763,-7.09331 c 0,0 11.60724,-0.4299 18.70054,6.23352 7.09331,6.6634 7.5232,28.158267 7.5232,28.158267 0,0 17.84075,2.57939 22.13971,12.25209 0,0 2.79433,-8.59795 -2.57938,-13.75673 -1.34344,-1.28968 -2.75403,-3.53322 -4.11425,-6.17305 -5.20176,-10.09529 -6.96645,-21.603007 -5.33004,-32.841117 0.80078,-5.4994 1.29362,-10.87656 0.41644,-12.14362 -1.93453,-2.79433 -7.00427,-12.825331 -7.64911,-17.339257 -0.64485,-4.513926 0.64484,-13.97167 0.64484,-13.97167 0,0 0.21495,11.607233 2.79434,15.261365 2.57939,3.654124 6.78931,14.544922 6.78931,14.544922 0,0 0,22.78457 6.01856,33.961887 6.01857,11.17734 17.6258,23.64436 16.98096,31.81242 v 4.72887 c 0,0 12.89691,-12.25208 12.03712,-16.33611 -0.8598,-4.08402 -1.93453,-13.75671 -10.10258,-19.56032 -8.16807,-5.803617 -13.54176,-15.046407 -7.73815,-28.373227 5.80362,-13.326828 5.80361,-15.691264 5.80361,-15.691264 l -3.86908,16.551054 c 0,0 -2.14948,14.83145 3.86908,19.99023 6.01856,5.15877 13.97166,14.616507 13.97166,14.616507 l -1.71959,-30.952607 5.58866,12.25207 c 0,0 12.03713,-15.47631 26.22375,-20.63508 14.18662,-5.15877 22.99952,-23.214462 22.99952,-23.214462 l 12.03714,-9.457745 -9.88764,11.82219 c 0,0 -3.0093,13.971657 -19.99023,23.859307 -16.98095,9.88765 -27.94335,24.50415 -28.58819,33.531997 -0.64483,9.02784 -1.28969,16.98094 -1.28969,16.98094 0,0 31.8124,-1.07474 38.90572,-15.04641 7.09329,-13.971667 7.73815,-41.700037 14.6165,-46.213967 6.87837,-4.513917 19.77529,-10.102584 19.77529,-10.102584 l -14.40157,11.822174 c 0,0 -3.00927,9.6727 -2.36443,16.55105 0.64484,6.87836 -4.72887,13.32681 -4.72887,13.32681 l -4.08403,12.037127 -4.51391,10.31755 c 0,0 18.48559,0.42989 28.15827,11.39228 9.6727,10.96239 33.74696,14.18661 33.74696,14.18661 l -13.54177,3.65414 c 0,0 -12.89693,-4.29898 -25.149,-12.25207 -12.25207,-7.9531 -10.96239,-15.04642 -26.22375,-7.09332 -15.26136,7.95311 -36.11138,14.61652 -36.11138,14.61652 0,0 12.03712,-5.58868 33.74694,7.9531 21.70982,13.54177 -10.74743,-2.36444 -20.42012,2.79433 -9.6727,5.15877 -14.18662,-1.28969 -18.0557,11.60723 -3.86908,12.89692 -10.96238,48.14851 -2.79433,67.92379 l 8.16805,19.77529 z"
           fill="#3f3d56"
           id="path1736-9"
           style="stroke-width:0.267608"
           sodipodi:nodetypes="cscsscsscscsscsscscscscsccsccssssscscsccsssccscccscccsscssccscccsccsscsssscc" /><path
           d="m 729.9365,107.13383 c -5.7628,11.35106 -27.84138,14.1895 -35.92107,14.85496 -0.22658,2.91388 -0.37597,4.75662 -0.37597,4.75662 0,0 31.81242,-1.07476 38.9057,-15.04643 7.09329,-13.971647 7.73817,-41.700037 14.61655,-46.213957 0.72946,-0.47871 1.52715,-0.96957 2.36943,-1.46453 0.23629,-0.86754 0.39562,-1.38103 0.39562,-1.38103 l 14.40157,-11.822174 c 0,0 -12.8969,5.588659 -19.77527,10.102574 -6.87838,4.51393 -7.52322,32.24231 -14.61656,46.213967 z"
           opacity="0.1"
           id="path1738-1"
           style="stroke-width:0.267608" /><path
           d="m 692.86864,85.418433 c -0.0469,5.29221 -0.73381,8.43981 -0.73381,8.43981 0,0 12.0321,-15.46968 26.21484,-20.63174 0.83821,-0.53028 1.6886,-1.05238 2.55898,-1.5592 16.98096,-9.88765 19.99026,-23.859315 19.99026,-23.859315 l 9.88764,-11.82218 -12.03714,9.457753 c 0,0 -8.81291,18.055692 -22.99948,23.214452 -9.67022,3.51644 -18.34014,11.82548 -22.88129,16.76042 z"
           opacity="0.1"
           id="path1740-3"
           style="stroke-width:0.267608" /><path
           d="m 674.29409,136.63304 v 4.72888 c 0,0 12.89692,-12.25208 12.0371,-16.3361 -0.6575,-3.12332 -1.44476,-9.51405 -5.43035,-14.94433 1.79651,4.10377 2.34332,8.1067 2.8217,10.37916 0.61656,2.92863 -5.8406,10.05705 -9.54365,13.85624 a 9.8023729,9.8023729 0 0 1 0.1152,2.31615 z"
           opacity="0.1"
           id="path1742-5"
           style="stroke-width:0.267608" /><path
           d="m 656.99405,104.18108 c 0.10215,0.21786 0.20745,0.43223 0.31907,0.63955 3.29618,6.12145 8.26555,12.62846 11.98361,18.60553 -3.00496,-5.91917 -8.23445,-12.68784 -12.30268,-19.24508 z"
           opacity="0.1"
           id="path1744-5"
           style="stroke-width:0.267608" /><path
           d="m 667.47331,95.029963 c -1.73335,-4.24708 -2.01895,-9.3007 -0.0276,-15.22262 a 46.454416,46.454416 0 0 1 0.37064,-6.42043 l 3.38457,-14.478464 c -0.62402,2.087924 -2.05179,6.115904 -5.31914,13.618664 -4.13631,9.49821 -2.59259,16.92024 1.59152,22.50285 z"
           opacity="0.1"
           id="path1746-1"
           style="stroke-width:0.267608" /><path
           d="m 762.3938,126.26427 c -6.70805,-7.60247 -17.65287,-10.13873 -23.73292,-10.97965 l -1.81669,4.15251 c 0,0 18.48558,0.42992 28.15827,11.39229 5.36393,6.07914 15.15535,9.77768 22.8154,11.86732 l 8.32287,-2.24583 c 0,0 -24.07424,-3.22426 -33.74693,-14.18664 z"
           opacity="0.1"
           id="path1748-1"
           style="stroke-width:0.267608" /><path
           d="m 630.87442,123.30622 c 9.02786,-3.86909 -3.43915,-25.578887 -3.43915,-25.578887 l -0.34105,-0.15632 c 3.1081,6.557667 7.61576,18.408257 1.17154,21.170047 -6.03006,2.58433 -11.67571,-3.84521 -14.76071,-8.40053 0.112,0.32218 0.1735,0.49867 0.1735,0.49867 0,0 8.16802,16.33611 17.19587,12.46702 z"
           opacity="0.1"
           id="path1750-2"
           style="stroke-width:0.267608" /><path
           d="m 660.32242,137.27789 c 0,0 2.72031,-8.38512 -2.39008,-13.56223 1.25317,4.46001 -0.21858,8.99708 -0.21858,8.99708 -3.32558,-7.48251 -14.75276,-10.71966 -19.75803,-11.80228 0.19413,2.49118 0.22697,4.11536 0.22697,4.11536 0,0 17.84075,2.57938 22.13972,12.25207 z"
           opacity="0.1"
           id="path1752-9"
           style="stroke-width:0.267608" /><path
           d="m 671.20091,58.908441 c 0.4844,-1.620758 0.48451,-2.0726 0.48451,-2.0726 z"
           opacity="0.1"
           id="path1754-7"
           style="stroke-width:0.267608" /><path
           d="m 576.19146,135.47164 c 0,0.0455 0.0874,-0.0267 0.13043,-0.0411 9.02785,-3.00929 4.46951,-4.81611 12.42262,-8.68517 7.95312,-3.86905 12.68195,-9.02785 23.42937,-3.43919 0,0 -1.88023,-7.69631 -5.52382,-12.7527 1.20683,2.63968 2.18221,5.37915 2.91516,8.18754 -10.74742,-5.58865 -15.4763,-0.42988 -23.42937,3.43919 -7.95311,3.86908 -3.39477,5.67589 -12.42262,8.68518 -9.02785,3.00928 -23.8593,-3.0093 -23.8593,-3.0093 0,0 9.88764,6.23352 22.56962,7.30825 1.45074,0.12294 3.76791,-0.77471 3.76791,0.30725 z"
           opacity="0.1"
           id="path1756-7"
           style="stroke-width:0.267608"
           sodipodi:nodetypes="scsccccscsss" /><path
           d="m 653.50969,249.4299 c 3.93847,-12.07338 13.41013,-45.45951 5.95295,-67.65764 -3.22042,-9.58642 -6.20544,-15.69941 -8.72887,-19.59929 1.88711,3.69176 3.95032,8.57496 6.12022,15.03414 9.24278,27.51343 -7.52323,72.22279 -7.52323,72.22279 z"
           opacity="0.1"
           id="path1758-3"
           style="stroke-width:0.267608" /><path
           d="m 569.56615,157.8711 a 21.941824,21.941824 0 0 1 7.57111,2.19136 c 8.82751,4.41374 15.37715,7.21296 23.35219,3.96188 1.81673,-0.95971 3.84882,-2.14731 6.19229,-3.56118 0.18272,-0.13334 0.36367,-0.2613 0.54836,-0.4007 11.39227,-8.59796 27.08355,-19.77529 42.34485,-13.11188 0,0 -3.08436,-3.02421 -6.54186,-5.89588 -13.98806,-3.43144 -27.99643,6.58206 -38.41164,14.4426 -11.39231,8.59797 -18.91549,5.58867 -30.09285,0 -11.17736,-5.58865 -22.56962,0.64484 -22.56962,0.64484 8.30507,-0.24916 13.65662,0.49693 17.60717,1.72896 z"
           opacity="0.1"
           id="path1760-1"
           style="stroke-width:0.267608" /><path
           d="m 591.38418,61.842463 a 5.6229132,5.6229132 0 0 0 0.88395,1.13007 6.3436365,6.3436365 0 0 0 -0.88395,-1.13007 z"
           opacity="0.1"
           id="path1762-1"
           style="stroke-width:0.267608" /><path
           d="m 630.65948,96.867553 a 10.465669,10.465669 0 0 1 0.93188,1.00469 c -0.9416,-2.26351 -2.10437,-4.22077 -3.54053,-5.56985 -7.0933,-6.66342 -18.70055,-6.23351 -18.70055,-6.23351 l 14.55668,6.67181 a 20.787704,20.787704 0 0 1 6.75252,4.12686 z"
           opacity="0.1"
           id="path1764-3"
           style="stroke-width:0.267608" /><path
           d="m 646.10651,67.798223 c 0.87722,1.26706 0.38436,6.64423 -0.41644,12.14363 -1.63639,11.23811 0.12829,22.745827 5.33004,32.841117 0.68476,1.35483 1.44955,2.66769 2.29034,3.93163 -4.95321,-9.94189 -6.61403,-21.203547 -5.01172,-32.207597 0.80079,-5.4994 1.29367,-10.87657 0.41644,-12.14363 -1.93452,-2.79432 -7.33103,-12.76482 -7.97587,-17.278746 -0.19334,-1.75119 -0.23838,-3.515582 -0.13467,-5.274357 -1.66969,-4.73749 -1.82915,-13.262459 -1.82915,-13.262459 0,0 -1.28968,9.457762 -0.64484,13.97167 0.64484,4.5139 6.04135,14.484412 7.97587,17.278742 z"
           opacity="0.1"
           id="path1766-0"
           style="stroke-width:0.267608"
           sodipodi:nodetypes="ccccsccccsc" /><path
           d="m 666.27199,38.08236 a 6.1510367,6.1510367 0 0 0 -0.39021,-1.236741 c 0,0 0.1652,0.463913 0.39021,1.236741 z"
           opacity="0.1"
           id="path1768-8"
           style="stroke-width:0.267608" /><path
           d="m 590.3512,59.730493 c 1.89439,0.23191 4.07348,0.81314 5.73565,2.16112 -0.10842,-0.36673 -0.203,-0.69548 -0.2783,-0.97175 -1.93457,-7.093298 -12.25209,-5.803602 -12.25209,-5.803602 4.66262,0.597777 5.86696,2.592063 6.79474,4.614232 z"
           opacity="0.1"
           id="path1770-5"
           style="stroke-width:0.267608" /><path
           d="m 643.77591,240.24575 c 1.53258,5.66531 6.78198,9.17399 6.78198,9.17399 0,0 2.76462,-5.67662 1.23205,-11.34194 -1.53257,-5.6653 -6.78198,-9.17398 -6.78198,-9.17398 0,0 -2.76462,5.67661 -1.23205,11.34193 z"
           fill="#3f3d56"
           id="path1772-9"
           style="stroke-width:0.267608" /><path
           d="m 646.02792,239.02821 c 4.2054,4.0938 4.71906,10.38691 4.71906,10.38691 0,0 -6.30465,-0.34423 -10.51005,-4.43803 -4.20541,-4.09379 -4.71907,-10.38691 -4.71907,-10.38691 0,0 6.30466,0.34425 10.51006,4.43803 z"
           fill="#786fa6"
           id="path1774-3"
           style="stroke-width:0.267608" /><path
           d="m 632.08937,85.423763 c -0.36558,5.85755 -4.80496,10.34746 -4.80496,10.34746 0,0 -3.8466,-5.00707 -3.481,-10.86462 0.36559,-5.85756 4.80495,-10.34745 4.80495,-10.34745 0,0 3.84662,5.00706 3.48101,10.86461 z"
           fill="#786fa6"
           id="path1776-3"
           style="stroke-width:0.267608" /><path
           d="m 585.81301,48.393353 c 4.96463,3.130012 6.77544,9.17882 6.77544,9.17882 0,0 -6.23846,0.974055 -11.20309,-2.155958 -4.96462,-3.130005 -6.77544,-9.178822 -6.77544,-9.178822 0,0 6.23845,-0.974054 11.20309,2.15596 z"
           fill="#786fa6"
           id="path1778-5"
           style="stroke-width:0.267608" /><path
           d="m 574.72622,119.80537 c 4.96463,3.13003 6.77544,9.17883 6.77544,9.17883 0,0 -6.23846,0.97406 -11.20309,-2.15596 -4.96464,-3.13001 -6.77545,-9.17881 -6.77545,-9.17881 0,0 6.23845,-0.97406 11.2031,2.15594 z"
           fill="#786fa6"
           id="path1780-5"
           style="stroke-width:0.267608" /><path
           d="m 601.13889,147.1963 c 4.96463,3.13001 6.77545,9.17882 6.77545,9.17882 0,0 -6.23847,0.97406 -11.2031,-2.15595 -4.96462,-3.13001 -6.77544,-9.17883 -6.77544,-9.17883 0,0 6.23845,-0.97405 11.20309,2.15596 z"
           fill="#786fa6"
           id="path1782-0"
           style="stroke-width:0.267608" /><path
           d="m 675.65513,58.833218 c -1.49719,5.674765 -6.72461,9.216135 -6.72461,9.216135 0,0 -2.79998,-5.65926 -1.30279,-11.334027 1.49719,-5.674766 6.72462,-9.216132 6.72462,-9.216132 0,0 2.79998,5.659259 1.30278,11.334024 z"
           fill="#786fa6"
           id="path1784-5"
           style="stroke-width:0.267608" /><path
           d="m 722.88343,63.257973 c -1.75971,5.59892 -7.14631,8.89312 -7.14631,8.89312 0,0 -2.53353,-5.78346 -0.7738,-11.38239 1.75972,-5.598921 7.1463,-8.893116 7.1463,-8.893116 0,0 2.53353,5.78345 0.77381,11.382386 z"
           fill="#786fa6"
           id="path1786-3"
           style="stroke-width:0.267608" /><path
           d="m 773.9298,125.57138 c -3.18762,4.92785 -9.2571,6.66809 -9.2571,6.66809 0,0 -0.90134,-6.24938 2.28627,-11.17722 3.18761,-4.92785 9.25711,-6.6681 9.25711,-6.6681 0,0 0.90133,6.24938 -2.28628,11.17723 z"
           fill="#786fa6"
           id="path1788-4"
           style="stroke-width:0.267608" /><ellipse
           cx="-860.14264"
           cy="249.14777"
           rx="59.376152"
           ry="3.6588485"
           fill="#3f3d56"
           id="ellipse1790-0"
           transform="scale(-1,1)"
           style="stroke-width:0.12317" /><path
           d="m 830.69556,238.83149 -1.02401,3.15509 c 0,0 -4.93186,5.0952 -3.14814,6.47623 1.78373,1.38104 5.78569,-5.89919 5.78569,-5.89919 l 0.73756,-3.56193 z"
           fill="#ffb8b8"
           id="path1792-7"
           style="stroke-width:0.165855;fill:#a0616a;fill-opacity:1" /><path
           d="m 840.15712,214.41107 -1.4927,-0.49757 c 0,0 -2.32197,0.66343 -2.65368,2.9854 -0.33171,2.32197 -2.81954,14.09769 -2.81954,14.09769 0,0 -0.99513,0.49756 -0.33171,1.32684 0.66342,0.82927 -3.3171,8.29276 -3.3171,8.29276 l 3.15125,1.49269 c 0,0 6.30249,-6.6342 6.30249,-7.29762 0,-0.66342 -0.16585,-1.32685 -0.16585,-1.99027 0,-0.66342 0.16585,-0.66342 0,-1.16098 a 5.3350118,5.3350118 0 0 1 -0.16586,-1.32684 l 1.16099,-2.65369 z"
           fill="#786fa6"
           id="path1794-9"
           style="stroke-width:0.165855" /><ellipse
           cx="-915.93335"
           cy="197.97911"
           rx="14.996255"
           ry="30.598415"
           fill="#786fa6"
           id="ellipse1796-0"
           transform="scale(-1,1)"
           style="stroke-width:0.165855" /><path
           d="m 916.07103,198.29646 c -0.74805,-13.31927 -2.25524,-22.31602 -2.27039,-22.40535 l 0.32701,-0.0554 c 0.0151,0.0894 1.52501,9.10057 2.27428,22.43701 0.69144,12.30876 0.85826,30.92648 -2.2742,49.72108 l -0.32717,-0.0544 c 3.12712,-18.76269 2.9607,-37.35223 2.27047,-49.64293 z"
           fill="#3f3d56"
           id="path1798-3"
           style="stroke-width:0.165855" /><rect
           x="-901.59821"
           y="-256.81381"
           width="15.378948"
           height="0.33173022"
           transform="matrix(-0.88165868,-0.47188767,-0.47188767,0.88165868,0,0)"
           fill="#3f3d56"
           id="rect1800-4"
           style="stroke-width:0.165855" /><rect
           x="-611.39502"
           y="-728.11102"
           width="0.33173022"
           height="15.378948"
           transform="matrix(-0.47165224,-0.88178465,-0.88178465,0.47165224,0,0)"
           fill="#3f3d56"
           id="rect1802-0"
           style="stroke-width:0.165855" /><ellipse
           cx="-880.66382"
           cy="176.77325"
           rx="20.521189"
           ry="41.871517"
           fill="#e6e6e6"
           id="ellipse1804-1"
           transform="scale(-1,1)"
           style="stroke-width:0.165855" /><path
           d="m 880.91311,177.20218 c -1.0238,-18.22933 -3.0867,-30.54254 -3.10743,-30.66483 l 0.32701,-0.0554 c 0.0207,0.12237 2.08631,12.44999 3.11132,30.69649 0.94614,16.84053 1.17435,42.31258 -3.11124,68.02596 L 877.8056,245.15 c 4.28024,-25.68163 4.05235,-51.12534 3.10751,-67.94781 z"
           fill="#3f3d56"
           id="path1806-1"
           style="stroke-width:0.165855" /><rect
           x="-860.72833"
           y="-258.4942"
           width="21.044918"
           height="0.33173025"
           transform="matrix(-0.88165704,-0.47189074,-0.47189074,0.88165704,0,0)"
           fill="#3f3d56"
           id="rect1808-0"
           style="stroke-width:0.165855" /><rect
           x="-577.77502"
           y="-712.10883"
           width="0.33173022"
           height="21.044918"
           transform="matrix(-0.47165224,-0.88178465,-0.88178465,0.47165224,0,0)"
           fill="#3f3d56"
           id="rect1810-9"
           style="stroke-width:0.165855" /><ellipse
           cx="-897.75916"
           cy="219.31677"
           rx="7.6672573"
           ry="15.644303"
           fill="#e6e6e6"
           id="ellipse1812-0"
           transform="scale(-1,1)"
           style="stroke-width:0.165855" /><path
           d="m 897.76591,219.99072 -0.0454,0.0849 -6.93239,-3.71052 0.15646,-0.29251 6.80686,3.64334 c -0.37668,-6.93303 -1.14708,-11.58714 -1.16261,-11.67878 l 0.32702,-0.0554 c 0.0169,0.10008 0.9323,5.62689 1.2572,13.62416 l 6.86532,-3.67463 0.15647,0.29252 -6.93239,3.71051 -0.0828,-0.15471 c 0.25995,6.6006 0.11425,14.85393 -1.26376,23.12193 l -0.32718,-0.0544 c 1.50243,-9.01463 1.53552,-18.01233 1.17714,-24.85639 z"
           fill="#3f3d56"
           id="path1814-9"
           style="stroke-width:0.165855" /><path
           d="m 838.12764,198.6671 c 2.66598,-4.54368 7.94042,-4.75543 7.94042,-4.75543 0,0 5.13964,-0.66294 8.43669,6.25713 3.07311,6.45007 7.3144,12.67775 0.68281,14.18767 l -1.19785,-3.76053 -0.74183,4.04049 a 25.725878,25.725878 0 0 1 -2.83741,0.0489 c -7.10189,-0.23128 -13.86536,0.0677 -13.64759,-2.50285 0.28949,-3.41713 -1.20045,-9.14348 1.36476,-13.5154 z"
           fill="#2f2e41"
           id="path1816-4"
           style="stroke-width:0.165855" /><path
           d="m 856.71033,235.0615 a 10.156896,10.156896 0 0 0 0.32329,1.40372 c 0.15858,0.4498 0.40342,0.86577 0.54843,1.3202 0.4622,1.44855 -0.17855,3.06364 -1.20193,4.18173 a 6.7539542,6.7539542 0 0 1 -3.29843,1.97556 c -0.92322,0.23421 -1.88315,0.26791 -2.83457,0.30046 -2.63454,0.0901 -5.33687,0.17072 -7.83325,-0.68328 a 13.553668,13.553668 0 0 1 -2.2758,-1.04282 1.7062351,1.7062351 0 0 1 -0.59052,-0.46899 c -0.1904,-0.27341 -0.21476,-0.62801 -0.21309,-0.96213 0.006,-1.12651 0.23202,-2.24728 0.17826,-3.37251 -0.0298,-0.62326 -0.14542,-1.24604 -0.0885,-1.86738 a 3.4348921,3.4348921 0 0 1 2.61019,-2.96745 c 0.70817,-0.15339 1.44268,-0.0698 2.16367,1.1e-4 a 54.697247,54.697247 0 0 0 5.63103,0.25397 c 1.92095,-0.0124 3.83004,-0.30814 5.74144,-0.33903 0.56525,-0.009 0.55383,0.16664 0.73379,0.71843 a 13.534588,13.534588 0 0 1 0.40599,1.54941 z"
           fill="#2f2e41"
           id="path1818-2"
           style="stroke-width:0.165855" /><path
           d="m 864.22197,234.14593 a 5.6372995,5.6372995 0 0 1 1.58109,-0.16953 3.9905384,3.9905384 0 0 1 2.8824,1.51158 4.062017,4.062017 0 0 1 0.78127,3.18064 6.7225429,6.7225429 0 0 1 -0.62652,1.72683 c -0.41931,0.85831 -0.92222,1.71465 -1.69847,2.26467 a 6.590567,6.590567 0 0 1 -1.49895,0.71969 l -4.08838,1.55349 c -0.60145,0.22854 -1.20299,0.45711 -1.81039,0.66902 a 35.144626,35.144626 0 0 1 -9.45586,1.89611 c -0.98169,0.059 -1.97825,0.0754 -2.93595,-0.15006 a 0.95350137,0.95350137 0 0 1 -0.60127,-0.32765 1.0451828,1.0451828 0 0 1 -0.13435,-0.44757 l -0.25157,-1.77645 a 1.5004403,1.5004403 0 0 1 0.0214,-0.74887 c 0.11524,-0.29855 0.40412,-0.48636 0.67956,-0.64593 2.68782,-1.55711 5.82617,-2.41616 8.08855,-4.55326 0.5326,-0.50311 0.9783,-1.30059 1.62541,-1.64235 0.7338,-0.38754 1.598,-0.60872 2.35649,-0.96584 1.65815,-0.7807 3.28843,-1.67784 5.08555,-2.09452 z"
           fill="#2f2e41"
           id="path1820-5"
           style="stroke-width:0.165855" /><path
           d="m 860.14031,236.54083 c -1.44507,0.45673 -7.54616,3.62096 -8.5919,4.72574 0.14017,0.0509 4.89608,-2.63741 5.03878,-2.68061 1.29721,-0.39268 2.60162,-0.78795 3.83351,-1.36263 0.24782,-0.1156 1.61,-0.65901 1.54831,-0.9744 -0.0696,-0.35589 -1.57216,0.21082 -1.8287,0.2919 z"
           opacity="0.1"
           id="path1822-6"
           style="stroke-width:0.165855" /><path
           d="m 842.11215,248.41974 a 0.33739917,0.33739917 0 0 1 -0.22908,-0.068 0.3591262,0.3591262 0 0 1 -0.0716,-0.26589 l 0.007,-2.42014 c 0.68997,-0.33159 1.46175,-0.43786 2.21929,-0.54 l 3.53457,-0.47654 c -0.0812,0.0109 0.55266,1.53555 0.45547,1.73909 -0.1713,0.35874 -1.4804,0.67667 -1.84986,0.84606 -1.28436,0.58882 -2.61898,1.23616 -4.06552,1.18542 z"
           fill="#ffb8b8"
           id="path1824-9"
           style="stroke-width:0.165855;fill:#a0616a;fill-opacity:1" /><path
           d="m 853.20184,245.65733 c 0.66735,0.10722 1.41222,0.20199 1.84441,0.72598 0.54808,0.66449 0.31475,1.65509 0.0533,2.47826 a 1.0705072,1.0705072 0 0 1 -0.22735,0.45095 c -0.17842,0.17755 -0.45185,0.20356 -0.70199,0.21954 -0.60862,0.0389 -1.25632,0.0693 -1.7881,-0.23179 a 7.8423672,7.8423672 0 0 1 -0.6946,-0.52077 4.4354449,4.4354449 0 0 0 -1.27708,-0.58892 12.817137,12.817137 0 0 0 -2.56353,-0.53287 3.9561434,3.9561434 0 0 1 -1.00987,-0.17956 1.1235311,1.1235311 0 0 1 -0.7112,-0.69646 c -0.12318,-0.43981 0.13025,-0.88822 0.3733,-1.27392 0.30276,-0.48049 0.62352,-0.9864 1.07496,-1.3401 0.65861,-0.51602 0.98439,-0.1199 1.64781,0.21031 a 13.895126,13.895126 0 0 0 3.97993,1.27935 z"
           fill="#ffb8b8"
           id="path1826-2"
           style="stroke-width:0.165855;fill:#a0616a;fill-opacity:1" /><path
           d="m 854.94585,246.26366 4.23749,-1.2633 a 5.566403,5.566403 0 0 1 1.57692,-0.30822 c 0.53739,3.3e-4 1.09965,0.17813 1.44817,0.59072 0.32859,0.38899 0.42264,0.92063 0.50456,1.42494 l 0.17523,1.0788 a 5.46415,5.46415 0 0 1 0.0981,1.65663 c -0.0802,0.54963 -0.35832,1.09874 -0.84182,1.36481 -0.58638,0.32269 -1.30508,0.16508 -1.95952,0.0301 a 21.15762,21.15762 0 0 0 -4.01565,-0.43435 c -0.5072,-0.006 -1.0392,3.3e-4 -1.48739,-0.2393 -0.53275,-0.2848 -0.85148,-0.88699 -0.90628,-1.49265 -0.0834,-0.92154 0.22114,-2.12526 1.17018,-2.40819 z"
           fill="#2f2e41"
           id="path1828-5"
           style="stroke-width:0.165855" /><path
           d="m 840.44646,245.16277 c -0.54933,-0.0971 -1.03414,-0.41201 -1.56051,-0.59789 -0.7409,-0.26163 -1.5438,-0.26163 -2.32879,-0.25873 -0.28817,9.9e-4 -0.59504,0.008 -0.83492,0.16865 -0.34577,0.2322 -0.43439,0.69686 -0.49318,1.11163 l -0.35473,2.50248 c -0.0667,0.4707 -0.13305,0.95398 -0.029,1.41773 0.10407,0.46375 0.41745,0.91082 0.87369,1.03046 0.55411,0.1453 1.09732,-0.21173 1.6205,-0.44627 1.30766,-0.58619 2.82773,-0.43636 4.1912,-0.8745 0.25303,-0.0813 0.52403,-0.20563 0.62727,-0.45243 a 1.0378072,1.0378072 0 0 0 0.0488,-0.43245 c -0.0233,-0.80437 0.14484,-1.90275 -0.0953,-2.67151 -0.21593,-0.69137 -1.05192,-0.49717 -1.66511,-0.49717 z"
           fill="#2f2e41"
           id="path1830-9"
           style="stroke-width:0.165855" /><path
           d="m 831.47901,233.13869 a 7.2973107,7.2973107 0 0 0 -2.59219,-0.17864 c -0.69299,0.077 -1.40699,0.27151 -1.91295,0.75531 -0.61582,0.58886 -0.81369,1.49955 -0.8302,2.3553 a 7.3994626,7.3994626 0 0 0 1.58566,4.69945 4.2439021,4.2439021 0 0 0 0.90655,0.88025 5.9451748,5.9451748 0 0 0 1.17948,0.57331 l 9.15576,3.64255 c 2.40868,0.95827 4.82586,1.91932 7.33824,2.55107 a 0.56993475,0.56993475 0 0 0 0.76957,-0.28142 19.184232,19.184232 0 0 0 2.00668,-3.70252 0.33464598,0.33464598 0 0 0 0.0258,-0.27729 0.32905666,0.32905666 0 0 0 -0.13517,-0.11609 l -6.47594,-3.75308 a 6.5464313,6.5464313 0 0 1 -1.31809,-0.91604 3.3000203,3.3000203 0 0 1 -0.67671,-0.95028 c -0.13424,-0.2828 -0.14676,-0.95018 -0.31822,-1.15921 -0.16788,-0.20466 -0.74216,-0.22099 -1.00739,-0.30149 a 9.0923579,9.0923579 0 0 1 -1.0967,-0.41816 c -1.44862,-0.65367 -2.7386,-1.60343 -4.12729,-2.36881 a 10.53963,10.53963 0 0 0 -2.47694,-1.03421 z"
           fill="#2f2e41"
           id="path1832-9"
           style="stroke-width:0.165855" /><path
           d="m 835.15029,235.94147 c 1.11259,0.84287 2.55319,1.61765 3.65589,2.48272 0.37633,0.29524 6.64997,3.85287 6.73868,4.32536 -1.02876,0.17484 -7.58199,-4.44932 -8.5196,-4.91074 -0.93761,-0.46141 -1.76876,-1.11211 -2.59236,-1.75801 -0.20989,-0.1646 -1.09939,-0.65941 -0.49687,-0.84331 0.33942,-0.10359 0.96368,0.53548 1.21426,0.70398 z"
           opacity="0.1"
           id="path1834-0"
           style="stroke-width:0.165855" /><circle
           cx="-846.29376"
           cy="203.79637"
           r="6.3024964"
           fill="#ffb8b8"
           id="circle1836-3"
           transform="scale(-1,1)"
           style="stroke-width:0.165855;fill:#a0616a;fill-opacity:1" /><path
           d="m 843.64008,209.1037 c 0,0 0.99513,2.48783 -0.82928,3.48296 -1.8244,0.99513 5.63908,8.95618 5.63908,8.95618 l 3.3171,-9.6196 c 0,0 -2.81954,-0.99513 -2.32197,-3.64881 z"
           fill="#ffb8b8"
           id="path1838-1"
           style="stroke-width:0.165855;fill:#a0616a;fill-opacity:1" /><path
           d="m 847.78646,215.90377 -4.01668,-4.43426 -5.43707,2.7757 0.82928,19.57091 1.32684,1.4927 c 0,0 5.63908,4.97566 14.26355,0.82928 0,0 2.98539,-2.48783 2.81953,-6.3025 -0.16585,-3.81467 0.33171,-4.31223 0.33171,-4.31223 l 0.16586,-13.43427 -8.18846,-1.60681 z"
           fill="#786fa6"
           id="path1840-3"
           style="stroke-width:0.165855" /><path
           d="m 866.2042,237.00708 1.024,3.15509 c 0,0 4.93188,5.09519 3.14815,6.47624 -1.78374,1.38104 -5.78569,-5.8992 -5.78569,-5.8992 l -0.73756,-3.56193 z"
           fill="#ffb8b8"
           id="path1842-3"
           style="stroke-width:0.165855;fill:#a0616a;fill-opacity:1" /><path
           d="m 856.74264,212.58666 1.49269,-0.49756 c 0,0 2.32198,0.66342 2.65369,2.98539 0.33171,2.32197 2.81953,14.09769 2.81953,14.09769 0,0 0.99514,0.49757 0.33171,1.32684 -0.66342,0.82928 3.31711,8.29276 3.31711,8.29276 l -3.15125,1.4927 c 0,0 -6.3025,-6.63421 -6.3025,-7.29763 0,-0.66342 0.16586,-1.32684 0.16586,-1.99026 0,-0.66342 -0.16586,-0.66342 0,-1.16099 a 5.3350118,5.3350118 0 0 0 0.16585,-1.32684 l -1.16098,-2.65368 z"
           fill="#786fa6"
           id="path1844-2"
           style="stroke-width:0.165855" /><polygon
           points="492.488,411.138 498.73,396.446 498.73,410.895 509.041,410.495 515.026,387.105 518.766,412.005 555.421,411.25 553.925,381.823 522.506,365.224 479.119,372.014 470.142,412.005 "
           fill="#2f2e41"
           id="polygon1846-6"
           transform="matrix(-0.16585517,0,0,0.16585517,931.17756,134.90172)" /><path
           d="m 877.56781,242.15693 v 7.67247 h 23.4351 a 7.6728833,7.6728833 0 0 0 -7.67248,-7.67247 c -2.19745,-0.68504 -4.7381,-0.90319 -7.49423,-0.83136 -2.6005,0.0665 -5.39254,0.3924 -8.26839,0.83136 z"
           fill="#ff6584"
           id="path1848-7"
           style="fill:#f78fb3;fill-opacity:1;stroke-width:0.133018" /><path
           d="m 880.91556,248.15569 h -11.0202 a 0.69747934,0.69747934 0 0 0 -0.69747,0.69747 v 0 a 0.69747934,0.69747934 0 0 0 0.69747,0.69748 h 11.0202 z"
           fill="#3f3d56"
           id="path1850-1"
           style="stroke-width:0.133018" /><path
           d="m 879.00692,235.59089 -2.95384,-3.58061 a 0.77538126,0.77538126 0 0 0 -1.44524,0.12385 l -1.16486,4.11271 z"
           fill="#3f3d56"
           id="path1852-3"
           style="stroke-width:0.133018" /><path
           d="m 882.58951,237.41448 -1.11597,-4.50561 a 0.77537994,0.77537994 0 0 0 -1.35678,-0.51301 l -2.8281,3.20518 z"
           fill="#ff6584"
           id="path1854-1"
           style="fill:#f78fb3;fill-opacity:1;stroke-width:0.133018" /><path
           d="m 901.003,249.74197 h -2.23193 v 4.74288 a 2.2319365,2.2319365 0 0 0 2.23193,2.23193 v 0 z"
           fill="#ff6584"
           id="path1856-4"
           style="fill:#f78fb3;fill-opacity:1;stroke-width:0.133018" /><path
           d="m 881.33405,248.43468 h -11.0202 a 0.69747934,0.69747934 0 0 0 -0.69748,0.69747 v 0 a 0.69748067,0.69748067 0 0 0 0.69748,0.69748 h 11.0202 z"
           fill="#ff6584"
           id="path1858-5"
           style="fill:#f78fb3;fill-opacity:1;stroke-width:0.133018" /><path
           d="m 877.56781,242.15693 v 7.6299 a 7.534844,7.534844 0 0 0 8.26839,-8.46126 c -2.6005,0.0665 -5.39254,0.3924 -8.26839,0.83136 z"
           opacity="0.2"
           id="path1860-3"
           style="stroke-width:0.133018" /><circle
           cx="-877.56763"
           cy="242.29691"
           r="7.5327911"
           fill="#ff6584"
           id="circle1862-9"
           transform="scale(-1,1)"
           style="fill:#f78fb3;fill-opacity:1;stroke-width:0.133018" /><ellipse
           cx="-870.31384"
           cy="242.85492"
           rx="0.83697653"
           ry="1.9529462"
           fill="#3f3d56"
           id="ellipse1864-5"
           transform="scale(-1,1)"
           style="stroke-width:0.133018" /><ellipse
           cx="-872.33655"
           cy="240.83218"
           rx="0.2092438"
           ry="0.48823687"
           fill="#3f3d56"
           id="ellipse1866-5"
           transform="scale(-1,1)"
           style="stroke-width:0.133018" /><ellipse
           cx="-870.80206"
           cy="239.85571"
           rx="0.2092438"
           ry="0.48823687"
           fill="#3f3d56"
           id="ellipse1868-0"
           transform="scale(-1,1)"
           style="stroke-width:0.133018" /><path
           d="m 878.19963,234.68021 c 0,0 0.41868,-0.7283 0.41868,-1.17259"
           fill="#3f3d56"
           id="path1870-4"
           style="stroke-width:0.133018" /><path
           d="m 878.01546,234.20916 c 0,0 -0.22813,-0.80849 -0.54584,-1.11907"
           fill="#3f3d56"
           id="path1872-0"
           style="stroke-width:0.133018" /><circle
           cx="677.15594"
           cy="227.45839"
           r="7.9032011"
           fill="#3f3d56"
           id="circle1874-5"
           style="stroke-width:0.0475442"
           transform="rotate(-9.8218465)" /><path
           d="m 701.23746,110.08561 a 2.091362,2.091362 0 0 1 3.16309,-0.54761 2.3244717,2.3244717 0 1 0 -3.16309,0.54761 z"
           fill="#ffffff"
           id="path1876-1"
           style="stroke-width:0.0475442" /><path
           d="m 707.42154,109.015 a 2.0913583,2.0913583 0 0 1 3.16309,-0.54761 2.3244702,2.3244702 0 1 0 -3.16309,0.54761 z"
           fill="#ffffff"
           id="path1878-2"
           style="stroke-width:0.0475442" /><circle
           cx="672.99249"
           cy="225.61995"
           r="0.79959404"
           fill="#3f3d56"
           id="circle1880-5"
           style="stroke-width:0.0475442"
           transform="rotate(-9.8218465)" /><circle
           cx="679.26837"
           cy="225.61995"
           r="0.79959404"
           fill="#3f3d56"
           id="circle1882-5"
           style="stroke-width:0.0475442"
           transform="rotate(-9.8218465)" /><circle
           cx="671.461"
           cy="229.4342"
           r="0.92978823"
           fill="#ff6584"
           id="circle1884-8"
           style="fill:#f78fb3;fill-opacity:1;stroke-width:0.0475442"
           transform="rotate(-9.8218465)" /><circle
           cx="682.15356"
           cy="229.4342"
           r="0.92978823"
           fill="#ff6584"
           id="circle1886-5"
           style="fill:#f78fb3;fill-opacity:1;stroke-width:0.0475442"
           transform="rotate(-9.8218465)" /><polygon
           points="434.943,505.926 420.276,569.484 444.721,545.039 "
           fill="#ff6584"
           id="polygon1888-5"
           transform="matrix(0.04684743,-0.00811035,0.00811035,0.04684743,681.22892,88.611913)"
           style="fill:#f78fb3;fill-opacity:1" /><polygon
           points="493.655,736.404 494.043,750.38 488.871,750.38 488.458,735.602 465.975,750.38 456.563,750.38 488.29,729.526 487.061,685.737 486.143,652.666 491.302,652.524 492.233,685.737 493.461,729.487 518.348,750.38 510.307,750.38 "
           fill="#3f3d56"
           id="polygon1890-7"
           transform="matrix(0.04684743,-0.00811035,0.00811035,0.04684743,681.22892,88.611913)" /><polygon
           points="415.424,736.404 415.812,750.38 410.654,750.38 410.24,735.602 387.757,750.38 378.345,750.38 410.059,729.526 408.831,685.737 407.913,652.666 413.084,652.524 414.015,685.737 415.23,729.487 440.118,750.38 432.076,750.38 "
           fill="#3f3d56"
           id="polygon1892-5"
           transform="matrix(0.04684743,-0.00811035,0.00811035,0.04684743,681.22892,88.611913)" /><path
           d="m 704.69907,100.23195 c -0.21368,0.037 -0.37343,0.2356 -0.45533,0.51236 -0.17743,-0.36413 -0.45697,-0.59033 -0.72951,-0.54314 a 0.4206309,0.4206309 0 0 0 -0.0535,0.0187 c -0.17563,-0.391187 -0.46881,-0.636087 -0.75267,-0.586937 -0.37949,0.0658 -0.59837,0.631667 -0.48886,1.264147 0.1095,0.63249 0.50589,1.09195 0.88537,1.02625 a 0.42063186,0.42063186 0 0 0 0.0533,-0.0187 c 0.17562,0.39118 0.4688,0.63608 0.75268,0.58693 0.21366,-0.0369 0.37342,-0.2356 0.45532,-0.51236 0.17745,0.36412 0.45697,0.59033 0.72953,0.54314 0.37947,-0.0658 0.59835,-0.63169 0.48886,-1.26415 -0.1095,-0.63248 -0.5059,-1.09195 -0.88539,-1.02624 z"
           fill="#3f3d56"
           id="path1894-6"
           style="stroke-width:0.0475442" /><path
           d="m 684.2206,152.0047 c 0,0 -0.59599,2.18532 0.596,2.97997 1.19199,0.79466 1.58932,4.56929 1.58932,4.56929 l -2.38398,6.55593 -6.35727,1.19198 -2.38398,-4.56928 V 155.978 c 0,0 0.79466,-3.3773 0.596,-4.37063 -0.19867,-0.99333 8.34391,0.39733 8.34391,0.39733 z"
           fill="#ffb9b9"
           id="path2679"
           style="stroke-width:0.311498" /><path
           d="m 684.2206,152.0047 c 0,0 -0.59599,2.18532 0.596,2.97997 1.19199,0.79466 1.58932,4.56929 1.58932,4.56929 l -2.38398,6.55593 -6.35727,1.19198 -2.38398,-4.56928 V 155.978 c 0,0 0.79466,-3.3773 0.596,-4.37063 -0.19867,-0.99333 8.34391,0.39733 8.34391,0.39733 z"
           opacity="0.2"
           id="path2681"
           style="stroke-width:0.311498" /><path
           d="m 690.57788,189.55233 5.16528,0.99332 c 0,0 0.39732,5.76128 0,7.15193 -0.39733,1.39066 -0.79466,2.97998 -0.39733,3.3773 0.39733,0.39733 -1.788,10.52923 -1.58932,11.12523 0.19868,0.59599 0.59599,2.38397 0.39733,3.57596 -0.19866,1.19199 -0.79466,0.79466 -0.39733,1.98665 0.39733,1.19199 0.79466,1.39065 0.39733,2.18531 -0.39733,0.79466 -2.38398,20.06513 -2.97997,20.2638 -0.596,0.19866 -5.95994,0.39733 -5.95994,0 0,-0.39733 1.78798,-3.3773 1.19199,-4.17196 -0.596,-0.79466 0.19866,-14.30386 0.19866,-14.89985 0,-0.596 1.19199,-1.58932 0.596,-1.98665 -0.596,-0.39733 -0.99333,-0.79466 -0.79466,-1.39065 0.19866,-0.596 0.59599,-0.79466 0.19866,-1.39065 -0.39733,-0.596 -0.39733,-12.51588 -1.78798,-12.91321 0,0 -1.788,8.74126 -1.19199,10.92656 0.59601,2.18529 -0.19867,2.97997 -0.19867,2.97997 l 2.78131,2.38398 -3.77463,7.15192 -3.97329,-4.56928 c 0,0 0,-1.19199 -0.79466,-1.39066 -0.79466,-0.19866 -1.19199,-0.39732 -1.19199,-0.99332 0,-0.596 -1.39065,-4.37063 -1.39065,-4.37063 0,0 -3.9733,-12.51587 -1.98665,-18.87315 1.98665,-6.35727 2.75199,-6.14684 2.75199,-6.14684 z"
           fill="#2f2e41"
           id="path2683"
           style="stroke-width:0.311498" /><polygon
           points="622.664,770.45 620.113,791.496 614.373,791.496 605.444,771.725 615.648,762.797 "
           fill="#ffb9b9"
           id="polygon2685"
           transform="matrix(0.31149814,0,0,0.31149814,501.98324,-6.933793)" /><path
           d="m 695.14716,235.04655 c 0,0 -0.79466,1.788 -1.39065,1.39065 -0.596,-0.39735 -0.79355,-0.99332 -1.68809,-0.99332 -0.89455,0 -1.68921,0.19866 -1.49054,0.59599 0.19866,0.39733 2.58263,4.76795 2.58263,4.76795 a 5.6157134,5.6157134 0 0 1 0,4.76796 c -1.19199,2.58263 3.17863,3.97329 3.97329,1.19198 0.79466,-2.7813 0.99332,-5.95994 0.79466,-7.15192 -0.19867,-1.19199 0.99332,-7.3506 0.99332,-7.3506 0,0 -3.20939,-1.47954 -4.18734,-1.53444 1e-5,1e-5 0.81005,3.52109 0.41272,4.31575 z"
           fill="#2f2e41"
           id="path2687"
           style="stroke-width:0.311498" /><path
           d="m 689.78322,239.41717 0.79466,2.38398 c 0,0 0,2.38397 0.79465,3.57596 0.79466,1.19199 1.58932,3.77463 -1.58931,3.97329 -3.17864,0.19867 -4.56929,-0.99332 -4.56929,-0.99332 0,0 0.59599,-1.58932 0,-2.18531 -0.596,-0.59599 0,-1.78798 0,-1.78798 l 0.59599,-4.76795 z"
           fill="#2f2e41"
           id="path2689"
           style="stroke-width:0.311498" /><path
           d="m 684.41927,219.5507 h 1.788 l 8.93991,11.72122 c 0,0 -1.58932,3.77463 -3.9733,4.17196 0,0 -0.39732,-0.19867 -2.18531,-1.39066 -1.78798,-1.19198 -6.55593,-7.15193 -6.55593,-7.15193 l -0.59601,-3.37731 z"
           fill="#2f2e41"
           id="path2691"
           style="stroke-width:0.311498" /><circle
           cx="680.04871"
           cy="148.23007"
           r="6.3572688"
           fill="#ffb9b9"
           id="circle2693"
           style="stroke-width:0.311498" /><path
           d="m 687.79657,156.37533 -1.98665,-0.79466 c 0,0 -0.19866,6.95326 -3.97329,6.95326 -3.77463,0 -7.74793,-0.99333 -7.74793,-2.97997 0,-1.98665 -3.17863,3.57596 -3.17863,3.57596 0,0 2.97997,19.86647 2.7813,20.06514 -0.19866,0.19867 2.18532,10.72789 2.18532,10.72789 0,0 10.1319,0.39733 13.50919,-0.99332 3.3773,-1.39065 4.37063,-3.9733 4.37063,-3.9733 l -1.39065,-17.48249 -2.7813,-13.5092 z"
           fill="#786fa6"
           id="path2695"
           style="stroke-width:0.311498" /><path
           d="m 684.42042,154.58734 c 0,0 0.79351,-0.79466 1.98549,0 1.19197,0.79466 8.54258,2.58264 8.54258,3.17864 v 7.54926 c 0,0 0.19866,1.19198 -0.39733,1.98663 -0.59599,0.79466 -1.98665,3.77464 -1.19199,5.1653 0.79466,1.39065 3.77463,17.48249 3.17864,19.46914 -0.596,1.98665 -2.18532,3.77463 -2.18532,3.77463 0,0 -8.54258,-18.07849 -8.54258,-23.24377 0,-5.1653 0.0829,-11.50222 0.0829,-11.50222 z"
           fill="#575a89"
           id="path2697"
           style="stroke-width:0.311498" /><path
           d="m 693.16052,157.96464 h 1.78798 c 0,0 6.7546,12.91321 6.7546,15.49585 0,2.58264 -4.37063,16.8865 -4.76796,17.08516 -0.39732,0.19867 -1.58931,-2.18531 -1.58931,-2.18531 l -0.99333,-7.94659 c 0,0 1.98665,-4.76795 1.39066,-5.56261 -0.596,-0.79466 -3.57597,-6.95327 -3.57597,-6.95327 z"
           fill="#575a89"
           id="path2699"
           style="stroke-width:0.311498" /><path
           d="m 675.57449,154.58734 c 0,0 -2.28044,1.58932 -2.67778,2.18532 -0.39733,0.59599 -6.35726,3.97329 -6.55593,4.76795 -0.19866,0.79466 4.56929,7.54925 4.56929,7.54925 0,0 1.98664,11.12523 1.98664,11.91989 0,0.79466 0.79466,14.30386 0.79466,14.30386 0,0 8.14526,2.38397 8.14526,0.99332 0,-1.39065 0.19866,-21.25712 -0.99333,-25.62775 -1.19198,-4.37062 -5.26881,-16.09184 -5.26881,-16.09184 z"
           fill="#575a89"
           id="path2701"
           style="stroke-width:0.311498" /><path
           d="m 676.87001,195.71094 c 0,0 6.7546,9.13858 3.17863,8.93991 -3.57596,-0.19866 -5.95994,-7.94659 -5.95994,-7.94659 z"
           fill="#ffb9b9"
           id="path2703"
           style="stroke-width:0.311498" /><path
           d="m 668.72476,160.94461 -2.38398,0.596 c 0,0 -1.98665,17.48249 -0.79466,19.86647 1.19199,2.38397 7.54926,17.87982 7.54926,17.28383 0,-0.59599 5.59236,-1.6583 5.37882,-2.2198 -0.21354,-0.56151 -1.40553,-2.94549 -1.80285,-3.74014 -0.39733,-0.79466 -0.99333,-1.788 -0.79466,-2.78131 0.19866,-0.99331 -2.18532,-5.24506 -2.18532,-5.24506 0,0 -0.59599,-2.50286 -0.79466,-3.69485 -0.19866,-1.19199 -1.98664,-14.30387 -1.98664,-14.30387 z"
           fill="#575a89"
           id="path2705"
           style="stroke-width:0.311498" /><path
           d="m 686.28183,143.30885 a 1.5797535,1.5797535 0 0 0 -0.71937,-0.8838 3.384935,3.384935 0 0 0 -0.15188,-1.16634 c -0.39572,-1.10115 -1.33317,-1.03802 -2.21767,-1.52486 -0.38377,-0.21122 -0.36005,-0.3979 -0.55982,-0.74483 a 2.851454,2.851454 0 0 0 -1.13168,-1.08679 4.2086919,4.2086919 0 0 0 -1.83778,-0.73385 c -1.41077,-0.0905 -2.4924,1.15846 -3.84079,1.5593 -0.59433,0.17667 -1.23296,0.18395 -1.83043,0.35097 -0.59747,0.16703 -1.19356,0.56585 -1.2826,1.14647 -0.0411,0.26805 0.0314,0.54304 -0.0103,0.81102 -0.0829,0.53262 -0.57935,0.90564 -0.91169,1.34373 -0.73494,0.96876 -0.65087,2.33735 -0.0632,3.39141 a 4.7411606,4.7411606 0 0 0 0.42379,0.62421 3.6739928,3.6739928 0 0 0 0.44746,1.42593 c 0.58773,1.05405 1.59906,1.8417 2.65552,2.49608 a 5.5746548,5.5746548 0 0 1 -0.1567,-1.06439 0.69460659,0.69460659 0 0 1 0.0481,-0.35267 c 0.11765,-0.23149 0.42854,-0.29305 0.66557,-0.41984 a 1.551865,1.551865 0 0 0 0.69769,-1.37508 c 0.0142,-0.53134 -0.10544,-1.06356 -0.0463,-1.59214 a 0.85025286,0.85025286 0 0 1 0.31641,-0.63995 1.147961,1.147961 0 0 1 0.59652,-0.13386 c 1.00592,-0.0386 2.05695,-0.056 2.94423,-0.50376 a 4.4738983,4.4738983 0 0 1 0.9164,-0.43634 c 0.75405,-0.18508 1.52473,0.31238 1.95931,0.92122 0.43458,0.60883 0.65125,1.33335 1.0522,1.9623 0.40096,0.62894 1.09364,1.18981 1.86887,1.1153 a 0.31908,0.31908 0 0 0 0.23151,-0.0969 0.3109281,0.3109281 0 0 0 0.0426,-0.18565 l 0.0433,-2.78922 a 3.9792486,3.9792486 0 0 0 -0.14938,-1.41767 z"
           fill="#2f2e41"
           id="path2707"
           style="stroke-width:0.311498" /><path
           d="m 733.05886,247.49655 c 0.41221,1.97861 2.76181,-0.45343 2.76181,-0.45343 l 2.80303,-0.32977 c 0,0 1.77251,0.0412 2.9267,0.94809 1.15419,0.90686 1.93739,-0.28855 1.93739,-0.28855 1.30034,0.43345 2.89346,0.43169 4.27319,0.29288 1.98817,-0.20003 3.58179,-1.73462 3.85503,-3.71405 1.5414,-11.16609 -6.93281,-16.65349 -6.93281,-16.65349 l -2.47327,-6.67781 c 0,0 0.7832,-1.93739 1.03053,-3.66868 0.24732,-1.73128 -1.5664,-3.38012 -3.79234,-5.02897 -0.97385,-0.72136 -2.08972,-0.66952 -3.03693,-0.38294 -1.0626,0.32148 -1.98951,0.98257 -2.6744,1.85628 -0.56741,0.72384 -1.54063,1.74898 -2.61038,1.92658 -0.37017,0.061 -0.73538,0.20775 -1.0767,0.47486 -0.35285,0.27618 -0.50866,0.73704 -0.51361,1.31001 -0.0264,2.50294 2.04044,5.5162 3.85252,5.98612 2.22594,0.5771 1.03053,6.0595 1.03053,6.0595 -3.62746,5.11141 -1.07175,10.79992 -1.07175,10.79992 l -0.65954,4.61676 c 0,0 -0.0412,0.94808 0.37099,2.9267 z"
           fill="#3f3d56"
           id="path2794"
           style="fill:#2f2e41;fill-opacity:1;stroke-width:0.082442" /><path
           d="m 745.17785,236.86152 -0.90686,11.29457 c 0,0 1.23663,3.1328 -2.96792,2.96792 -4.20455,-0.16489 -1.73128,-6.59537 -1.73128,-6.59537 l 1.31907,-8.4091"
           fill="#3f3d56"
           id="path2796"
           style="fill:#2f2e41;fill-opacity:1;stroke-width:0.082442" /><path
           d="m 741.61593,251.21273 c -0.10281,0 -0.20803,-0.002 -0.31608,-0.006 -0.93077,-0.0365 -1.61615,-0.37928 -2.03722,-1.01885 -1.20387,-1.8287 0.13509,-5.43345 0.22905,-5.68021 l 1.31771,-8.40057 c 0.007,-0.045 0.049,-0.0753 0.0943,-0.0687 0.0449,0.007 0.0757,0.0493 0.0687,0.0943 l -1.31908,8.4091 c -9.3e-4,0.006 -0.002,0.0113 -0.005,0.0168 -0.0144,0.0373 -1.42228,3.7557 -0.24829,5.53876 0.39015,0.59247 1.03133,0.91032 1.90583,0.94462 1.37286,0.0535 2.29622,-0.23936 2.74515,-0.87128 0.58732,-0.82675 0.14733,-1.97257 0.14282,-1.98408 -0.005,-0.0117 -0.006,-0.0243 -0.005,-0.0368 l 0.90687,-11.29457 c 0.004,-0.0453 0.0426,-0.0784 0.0888,-0.0756 0.0454,0.004 0.0792,0.0434 0.0756,0.0888 l -0.90542,11.27605 c 0.0599,0.16166 0.43548,1.26996 -0.1681,2.12071 -0.44659,0.62951 -1.3107,0.94784 -2.5706,0.94784 z"
           fill="#2f2e41"
           id="path2798"
           style="stroke-width:0.082442" /><path
           d="m 737.67562,239.1699 c 0,0 0.24732,10.47015 -4.94653,10.22282 -5.19385,-0.24732 -0.49465,-3.54501 -0.49465,-3.54501 l 0.45343,-1.27785"
           fill="#3f3d56"
           id="path2800"
           style="fill:#2f2e41;fill-opacity:1;stroke-width:0.082442" /><path
           d="m 732.90734,249.47943 c -0.0603,0 -0.12093,-0.002 -0.18219,-0.004 -1.483,-0.0706 -2.3209,-0.40287 -2.49042,-0.98754 -0.30537,-1.05355 1.68507,-2.51625 1.93071,-2.692 l 0.44474,-1.25322 c 0.0152,-0.043 0.0623,-0.0654 0.10522,-0.0502 0.0429,0.0152 0.0654,0.0623 0.0502,0.10523 l -0.45343,1.27785 c -0.006,0.0162 -0.0163,0.0301 -0.0303,0.0399 -0.0217,0.0153 -2.17461,1.54039 -1.88864,2.52648 0.14778,0.50954 0.935,0.80179 2.3399,0.8687 0.93561,0.045 1.75576,-0.26963 2.43623,-0.934 2.55176,-2.49105 2.42552,-9.13771 2.42391,-9.20453 -9.3e-4,-0.0455 0.0349,-0.0832 0.0805,-0.0844 0.0431,8e-5 0.0832,0.035 0.0844,0.0805 0.006,0.27583 0.12962,6.78481 -2.4735,9.32627 -0.67009,0.65422 -1.46915,0.9852 -2.37722,0.9852 z"
           fill="#2f2e41"
           id="path2802"
           style="stroke-width:0.082442" /><path
           d="m 729.53611,217.10756 c 0.59193,0.0709 1.51858,0.0676 2.28612,-0.44436 0.82194,-0.54825 -0.0313,-1.05939 -0.69582,-1.34052 -0.37016,0.061 -0.73538,0.20776 -1.07669,0.47487 -0.35285,0.27618 -0.50867,0.73704 -0.51361,1.31001 z"
           fill="#2f2e41"
           id="path2804"
           style="fill:#3f3d56;fill-opacity:1;stroke-width:0.082442" /><path
           d="m 739.10174,215.62518 c 0,0 -1.43859,-3.69476 0.62181,-3.74646 2.0604,-0.0517 3.68785,3.1501 3.68785,3.1501 0,0 5.17143,9.42664 -1.91379,8.91829 -7.08522,-0.50835 -3.69949,-4.27138 -3.69949,-4.27138 0,0 1.616,-1.98679 1.30362,-4.05055 h -10e-6 v 0 0 z"
           fill="#2f2e41"
           id="path2806"
           style="fill:#3f3d56;fill-opacity:1;stroke-width:0.082442" /><path
           d="m 746.99476,243.2356 c 0.91246,0.40592 1.8658,0.82013 2.86369,0.78051 0.99789,-0.0396 2.04799,-0.68226 2.20349,-1.66875 0.0803,-0.50924 -0.0789,-1.05559 0.11605,-1.53282 0.26234,-0.64211 1.10857,-0.88974 1.76638,-0.6697 0.65781,0.22005 1.14106,0.78748 1.48756,1.38838 0.64826,1.12424 0.90802,2.59978 0.21295,3.6957 -0.60255,0.95003 -1.74537,1.37934 -2.80841,1.74756 -1.41597,0.49047 -2.99686,0.97727 -4.36894,0.3748 -1.37992,-0.60592 -2.13159,-2.35656 -1.6206,-3.77438"
           fill="#3f3d56"
           id="path2808"
           style="fill:#2f2e41;fill-opacity:1;stroke-width:0.082442" /><path
           d="m 743.95064,225.43393 c 0,0 1.81372,0.90687 0.90686,1.89617 -0.90686,0.98931 -6.51293,3.79234 -8.57398,3.38013 -2.06106,-0.41221 -2.55571,-1.64884 -2.55571,-1.97861 0,-0.32977 0.15547,-4.31887 0.81501,-4.15398 0.65954,0.16488 4.79106,3.90665 9.40782,0.85629 z"
           fill="#786fa6"
           id="path2810"
           style="stroke-width:0.082442" /><path
           d="m 684.2206,152.0047 c 0,0 -0.59599,2.18532 0.596,2.97997 1.19199,0.79466 1.58932,4.56929 1.58932,4.56929 l -2.38398,6.55593 -6.35727,1.19198 -2.38398,-4.56928 V 155.978 c 0,0 0.79466,-3.3773 0.596,-4.37063 -0.19867,-0.99333 8.34391,0.39733 8.34391,0.39733 z"
           fill="#ffb9b9"
           id="path1896-6"
           style="stroke-width:0.311498" /><path
           d="m 684.2206,152.0047 c 0,0 -0.59599,2.18532 0.596,2.97997 1.19199,0.79466 1.58932,4.56929 1.58932,4.56929 l -2.38398,6.55593 -6.35727,1.19198 -2.38398,-4.56928 V 155.978 c 0,0 0.79466,-3.3773 0.596,-4.37063 -0.19867,-0.99333 8.34391,0.39733 8.34391,0.39733 z"
           opacity="0.2"
           id="path1898-2"
           style="stroke-width:0.311498" /><path
           d="m 690.57788,189.55233 5.16528,0.99332 c 0,0 0.39732,5.76128 0,7.15193 -0.39733,1.39066 -0.79466,2.97998 -0.39733,3.3773 0.39733,0.39733 -1.788,10.52923 -1.58932,11.12523 0.19868,0.59599 0.59599,2.38397 0.39733,3.57596 -0.19866,1.19199 -0.79466,0.79466 -0.39733,1.98665 0.39733,1.19199 0.79466,1.39065 0.39733,2.18531 -0.39733,0.79466 -2.38398,20.06513 -2.97997,20.2638 -0.596,0.19866 -5.95994,0.39733 -5.95994,0 0,-0.39733 1.78798,-3.3773 1.19199,-4.17196 -0.596,-0.79466 0.19866,-14.30386 0.19866,-14.89985 0,-0.596 1.19199,-1.58932 0.596,-1.98665 -0.596,-0.39733 -0.99333,-0.79466 -0.79466,-1.39065 0.19866,-0.596 0.59599,-0.79466 0.19866,-1.39065 -0.39733,-0.596 -0.39733,-12.51588 -1.78798,-12.91321 0,0 -1.788,8.74126 -1.19199,10.92656 0.59601,2.18529 -0.19867,2.97997 -0.19867,2.97997 l 2.78131,2.38398 -3.77463,7.15192 -3.97329,-4.56928 c 0,0 0,-1.19199 -0.79466,-1.39066 -0.79466,-0.19866 -1.19199,-0.39732 -1.19199,-0.99332 0,-0.596 -1.39065,-4.37063 -1.39065,-4.37063 0,0 -3.9733,-12.51587 -1.98665,-18.87315 1.98665,-6.35727 2.75199,-6.14684 2.75199,-6.14684 z"
           fill="#2f2e41"
           id="path1900-8"
           style="stroke-width:0.311498" /><polygon
           points="622.664,770.45 620.113,791.496 614.373,791.496 605.444,771.725 615.648,762.797 "
           fill="#ffb9b9"
           id="polygon1902-7"
           transform="matrix(0.31149814,0,0,0.31149814,501.98324,-6.933793)" /><path
           d="m 695.14716,235.04655 c 0,0 -0.79466,1.788 -1.39065,1.39065 -0.596,-0.39735 -0.79355,-0.99332 -1.68809,-0.99332 -0.89455,0 -1.68921,0.19866 -1.49054,0.59599 0.19866,0.39733 2.58263,4.76795 2.58263,4.76795 a 5.6157134,5.6157134 0 0 1 0,4.76796 c -1.19199,2.58263 3.17863,3.97329 3.97329,1.19198 0.79466,-2.7813 0.99332,-5.95994 0.79466,-7.15192 -0.19867,-1.19199 0.99332,-7.3506 0.99332,-7.3506 0,0 -3.20939,-1.47954 -4.18734,-1.53444 1e-5,1e-5 0.81005,3.52109 0.41272,4.31575 z"
           fill="#2f2e41"
           id="path1904-7"
           style="stroke-width:0.311498" /><path
           d="m 689.78322,239.41717 0.79466,2.38398 c 0,0 0,2.38397 0.79465,3.57596 0.79466,1.19199 1.58932,3.77463 -1.58931,3.97329 -3.17864,0.19867 -4.56929,-0.99332 -4.56929,-0.99332 0,0 0.59599,-1.58932 0,-2.18531 -0.596,-0.59599 0,-1.78798 0,-1.78798 l 0.59599,-4.76795 z"
           fill="#2f2e41"
           id="path1906-2"
           style="stroke-width:0.311498" /><path
           d="m 684.41927,219.5507 h 1.788 l 8.93991,11.72122 c 0,0 -1.58932,3.77463 -3.9733,4.17196 0,0 -0.39732,-0.19867 -2.18531,-1.39066 -1.78798,-1.19198 -6.55593,-7.15193 -6.55593,-7.15193 l -0.59601,-3.37731 z"
           fill="#2f2e41"
           id="path1908-0"
           style="stroke-width:0.311498" /><circle
           cx="680.04871"
           cy="148.23007"
           r="6.3572688"
           fill="#ffb9b9"
           id="circle1910-2"
           style="stroke-width:0.311498" /><path
           d="m 687.79657,156.37533 -1.98665,-0.79466 c 0,0 -0.19866,6.95326 -3.97329,6.95326 -3.77463,0 -7.74793,-0.99333 -7.74793,-2.97997 0,-1.98665 -3.17863,3.57596 -3.17863,3.57596 0,0 2.97997,19.86647 2.7813,20.06514 -0.19866,0.19867 2.18532,10.72789 2.18532,10.72789 0,0 10.1319,0.39733 13.50919,-0.99332 3.3773,-1.39065 4.37063,-3.9733 4.37063,-3.9733 l -1.39065,-17.48249 -2.7813,-13.5092 z"
           fill="#786fa6"
           id="path1912-4"
           style="stroke-width:0.311498" /><path
           d="m 684.42042,154.58734 c 0,0 0.79351,-0.79466 1.98549,0 1.19197,0.79466 8.54258,2.58264 8.54258,3.17864 v 7.54926 c 0,0 0.19866,1.19198 -0.39733,1.98663 -0.59599,0.79466 -1.98665,3.77464 -1.19199,5.1653 0.79466,1.39065 3.77463,17.48249 3.17864,19.46914 -0.596,1.98665 -2.18532,3.77463 -2.18532,3.77463 0,0 -8.54258,-18.07849 -8.54258,-23.24377 0,-5.1653 0.0829,-11.50222 0.0829,-11.50222 z"
           fill="#575a89"
           id="path1914-5"
           style="stroke-width:0.311498" /><path
           d="m 693.16052,157.96464 h 1.78798 c 0,0 6.7546,12.91321 6.7546,15.49585 0,2.58264 -4.37063,16.8865 -4.76796,17.08516 -0.39732,0.19867 -1.58931,-2.18531 -1.58931,-2.18531 l -0.99333,-7.94659 c 0,0 1.98665,-4.76795 1.39066,-5.56261 -0.596,-0.79466 -3.57597,-6.95327 -3.57597,-6.95327 z"
           fill="#575a89"
           id="path1916-5"
           style="stroke-width:0.311498" /><path
           d="m 675.57449,154.58734 c 0,0 -2.28044,1.58932 -2.67778,2.18532 -0.39733,0.59599 -6.35726,3.97329 -6.55593,4.76795 -0.19866,0.79466 4.56929,7.54925 4.56929,7.54925 0,0 1.98664,11.12523 1.98664,11.91989 0,0.79466 0.79466,14.30386 0.79466,14.30386 0,0 8.14526,2.38397 8.14526,0.99332 0,-1.39065 0.19866,-21.25712 -0.99333,-25.62775 -1.19198,-4.37062 -5.26881,-16.09184 -5.26881,-16.09184 z"
           fill="#575a89"
           id="path1918-8"
           style="stroke-width:0.311498" /><path
           d="m 676.87001,195.71094 c 0,0 6.7546,9.13858 3.17863,8.93991 -3.57596,-0.19866 -5.95994,-7.94659 -5.95994,-7.94659 z"
           fill="#ffb9b9"
           id="path1920-6"
           style="stroke-width:0.311498" /><path
           d="m 668.72476,160.94461 -2.38398,0.596 c 0,0 -1.98665,17.48249 -0.79466,19.86647 1.19199,2.38397 7.54926,17.87982 7.54926,17.28383 0,-0.59599 5.59236,-1.6583 5.37882,-2.2198 -0.21354,-0.56151 -1.40553,-2.94549 -1.80285,-3.74014 -0.39733,-0.79466 -0.99333,-1.788 -0.79466,-2.78131 0.19866,-0.99331 -2.18532,-5.24506 -2.18532,-5.24506 0,0 -0.59599,-2.50286 -0.79466,-3.69485 -0.19866,-1.19199 -1.98664,-14.30387 -1.98664,-14.30387 z"
           fill="#575a89"
           id="path1922-4"
           style="stroke-width:0.311498" /><path
           d="m 686.28183,143.30885 a 1.5797535,1.5797535 0 0 0 -0.71937,-0.8838 3.384935,3.384935 0 0 0 -0.15188,-1.16634 c -0.39572,-1.10115 -1.33317,-1.03802 -2.21767,-1.52486 -0.38377,-0.21122 -0.36005,-0.3979 -0.55982,-0.74483 a 2.851454,2.851454 0 0 0 -1.13168,-1.08679 4.2086919,4.2086919 0 0 0 -1.83778,-0.73385 c -1.41077,-0.0905 -2.4924,1.15846 -3.84079,1.5593 -0.59433,0.17667 -1.23296,0.18395 -1.83043,0.35097 -0.59747,0.16703 -1.19356,0.56585 -1.2826,1.14647 -0.0411,0.26805 0.0314,0.54304 -0.0103,0.81102 -0.0829,0.53262 -0.57935,0.90564 -0.91169,1.34373 -0.73494,0.96876 -0.65087,2.33735 -0.0632,3.39141 a 4.7411606,4.7411606 0 0 0 0.42379,0.62421 3.6739928,3.6739928 0 0 0 0.44746,1.42593 c 0.58773,1.05405 1.59906,1.8417 2.65552,2.49608 a 5.5746548,5.5746548 0 0 1 -0.1567,-1.06439 0.69460659,0.69460659 0 0 1 0.0481,-0.35267 c 0.11765,-0.23149 0.42854,-0.29305 0.66557,-0.41984 a 1.551865,1.551865 0 0 0 0.69769,-1.37508 c 0.0142,-0.53134 -0.10544,-1.06356 -0.0463,-1.59214 a 0.85025286,0.85025286 0 0 1 0.31641,-0.63995 1.147961,1.147961 0 0 1 0.59652,-0.13386 c 1.00592,-0.0386 2.05695,-0.056 2.94423,-0.50376 a 4.4738983,4.4738983 0 0 1 0.9164,-0.43634 c 0.75405,-0.18508 1.52473,0.31238 1.95931,0.92122 0.43458,0.60883 0.65125,1.33335 1.0522,1.9623 0.40096,0.62894 1.09364,1.18981 1.86887,1.1153 a 0.31908,0.31908 0 0 0 0.23151,-0.0969 0.3109281,0.3109281 0 0 0 0.0426,-0.18565 l 0.0433,-2.78922 a 3.9792486,3.9792486 0 0 0 -0.14938,-1.41767 z"
           fill="#2f2e41"
           id="path1924-5"
           style="stroke-width:0.311498" /><path
           d="m 733.05886,247.49655 c 0.41221,1.97861 2.76181,-0.45343 2.76181,-0.45343 l 2.80303,-0.32977 c 0,0 1.77251,0.0412 2.9267,0.94809 1.15419,0.90686 1.93739,-0.28855 1.93739,-0.28855 1.30034,0.43345 2.89346,0.43169 4.27319,0.29288 1.98817,-0.20003 3.58179,-1.73462 3.85503,-3.71405 1.5414,-11.16609 -6.93281,-16.65349 -6.93281,-16.65349 l -2.47327,-6.67781 c 0,0 0.7832,-1.93739 1.03053,-3.66868 0.24732,-1.73128 -1.5664,-3.38012 -3.79234,-5.02897 -0.97385,-0.72136 -2.08972,-0.66952 -3.03693,-0.38294 -1.0626,0.32148 -1.98951,0.98257 -2.6744,1.85628 -0.56741,0.72384 -1.54063,1.74898 -2.61038,1.92658 -0.37017,0.061 -0.73538,0.20775 -1.0767,0.47486 -0.35285,0.27618 -0.50866,0.73704 -0.51361,1.31001 -0.0264,2.50294 2.04044,5.5162 3.85252,5.98612 2.22594,0.5771 1.03053,6.0595 1.03053,6.0595 -3.62746,5.11141 -1.07175,10.79992 -1.07175,10.79992 l -0.65954,4.61676 c 0,0 -0.0412,0.94808 0.37099,2.9267 z"
           fill="#3f3d56"
           id="path1926-3"
           style="fill:#2f2e41;fill-opacity:1;stroke-width:0.082442" /><path
           d="m 745.17785,236.86152 -0.90686,11.29457 c 0,0 1.23663,3.1328 -2.96792,2.96792 -4.20455,-0.16489 -1.73128,-6.59537 -1.73128,-6.59537 l 1.31907,-8.4091"
           fill="#3f3d56"
           id="path1928-6"
           style="fill:#2f2e41;fill-opacity:1;stroke-width:0.082442" /><path
           d="m 741.61593,251.21273 c -0.10281,0 -0.20803,-0.002 -0.31608,-0.006 -0.93077,-0.0365 -1.61615,-0.37928 -2.03722,-1.01885 -1.20387,-1.8287 0.13509,-5.43345 0.22905,-5.68021 l 1.31771,-8.40057 c 0.007,-0.045 0.049,-0.0753 0.0943,-0.0687 0.0449,0.007 0.0757,0.0493 0.0687,0.0943 l -1.31908,8.4091 c -9.3e-4,0.006 -0.002,0.0113 -0.005,0.0168 -0.0144,0.0373 -1.42228,3.7557 -0.24829,5.53876 0.39015,0.59247 1.03133,0.91032 1.90583,0.94462 1.37286,0.0535 2.29622,-0.23936 2.74515,-0.87128 0.58732,-0.82675 0.14733,-1.97257 0.14282,-1.98408 -0.005,-0.0117 -0.006,-0.0243 -0.005,-0.0368 l 0.90687,-11.29457 c 0.004,-0.0453 0.0426,-0.0784 0.0888,-0.0756 0.0454,0.004 0.0792,0.0434 0.0756,0.0888 l -0.90542,11.27605 c 0.0599,0.16166 0.43548,1.26996 -0.1681,2.12071 -0.44659,0.62951 -1.3107,0.94784 -2.5706,0.94784 z"
           fill="#2f2e41"
           id="path1930-1"
           style="stroke-width:0.082442" /><path
           d="m 737.67562,239.1699 c 0,0 0.24732,10.47015 -4.94653,10.22282 -5.19385,-0.24732 -0.49465,-3.54501 -0.49465,-3.54501 l 0.45343,-1.27785"
           fill="#3f3d56"
           id="path1932-6"
           style="fill:#2f2e41;fill-opacity:1;stroke-width:0.082442" /><path
           d="m 732.90734,249.47943 c -0.0603,0 -0.12093,-0.002 -0.18219,-0.004 -1.483,-0.0706 -2.3209,-0.40287 -2.49042,-0.98754 -0.30537,-1.05355 1.68507,-2.51625 1.93071,-2.692 l 0.44474,-1.25322 c 0.0152,-0.043 0.0623,-0.0654 0.10522,-0.0502 0.0429,0.0152 0.0654,0.0623 0.0502,0.10523 l -0.45343,1.27785 c -0.006,0.0162 -0.0163,0.0301 -0.0303,0.0399 -0.0217,0.0153 -2.17461,1.54039 -1.88864,2.52648 0.14778,0.50954 0.935,0.80179 2.3399,0.8687 0.93561,0.045 1.75576,-0.26963 2.43623,-0.934 2.55176,-2.49105 2.42552,-9.13771 2.42391,-9.20453 -9.3e-4,-0.0455 0.0349,-0.0832 0.0805,-0.0844 0.0431,8e-5 0.0832,0.035 0.0844,0.0805 0.006,0.27583 0.12962,6.78481 -2.4735,9.32627 -0.67009,0.65422 -1.46915,0.9852 -2.37722,0.9852 z"
           fill="#2f2e41"
           id="path1934-4"
           style="stroke-width:0.082442" /><path
           d="m 729.53611,217.10756 c 0.59193,0.0709 1.51858,0.0676 2.28612,-0.44436 0.82194,-0.54825 -0.0313,-1.05939 -0.69582,-1.34052 -0.37016,0.061 -0.73538,0.20776 -1.07669,0.47487 -0.35285,0.27618 -0.50867,0.73704 -0.51361,1.31001 z"
           fill="#2f2e41"
           id="path1936-5"
           style="fill:#3f3d56;fill-opacity:1;stroke-width:0.082442" /><path
           d="m 739.10174,215.62518 c 0,0 -1.43859,-3.69476 0.62181,-3.74646 2.0604,-0.0517 3.68785,3.1501 3.68785,3.1501 0,0 5.17143,9.42664 -1.91379,8.91829 -7.08522,-0.50835 -3.69949,-4.27138 -3.69949,-4.27138 0,0 1.616,-1.98679 1.30362,-4.05055 h -10e-6 v 0 0 z"
           fill="#2f2e41"
           id="path1938-2"
           style="fill:#3f3d56;fill-opacity:1;stroke-width:0.082442" /><path
           d="m 746.99476,243.2356 c 0.91246,0.40592 1.8658,0.82013 2.86369,0.78051 0.99789,-0.0396 2.04799,-0.68226 2.20349,-1.66875 0.0803,-0.50924 -0.0789,-1.05559 0.11605,-1.53282 0.26234,-0.64211 1.10857,-0.88974 1.76638,-0.6697 0.65781,0.22005 1.14106,0.78748 1.48756,1.38838 0.64826,1.12424 0.90802,2.59978 0.21295,3.6957 -0.60255,0.95003 -1.74537,1.37934 -2.80841,1.74756 -1.41597,0.49047 -2.99686,0.97727 -4.36894,0.3748 -1.37992,-0.60592 -2.13159,-2.35656 -1.6206,-3.77438"
           fill="#3f3d56"
           id="path1940-5"
           style="fill:#2f2e41;fill-opacity:1;stroke-width:0.082442" /><path
           d="m 743.95064,225.43393 c 0,0 1.81372,0.90687 0.90686,1.89617 -0.90686,0.98931 -6.51293,3.79234 -8.57398,3.38013 -2.06106,-0.41221 -2.55571,-1.64884 -2.55571,-1.97861 0,-0.32977 0.15547,-4.31887 0.81501,-4.15398 0.65954,0.16488 4.79106,3.90665 9.40782,0.85629 z"
           fill="#786fa6"
           id="path1942-2"
           style="stroke-width:0.082442" /></g></g><polygon
       points=""
       fill="#3f3d56"
       id="polygon3030"
       transform="matrix(0.26458333,0,0,0.26458333,-328.53574,-238.99235)" /></g></svg>
