<?xml version="1.0" encoding="UTF-8" standalone="no"?>
<!-- Created with Inkscape (http://www.inkscape.org/) -->

<svg
   width="419.27838mm"
   height="263.62982mm"
   viewBox="0 0 381.16208 239.66347"
   version="1.1"
   id="svg431"
   inkscape:version="1.2.1 (9c6d41e410, 2022-07-14)"
   sodipodi:docname="home_event_calendar.svg"
   xml:space="preserve"
   xmlns:inkscape="http://www.inkscape.org/namespaces/inkscape"
   xmlns:sodipodi="http://sodipodi.sourceforge.net/DTD/sodipodi-0.dtd"
   xmlns="http://www.w3.org/2000/svg"
   xmlns:svg="http://www.w3.org/2000/svg"><sodipodi:namedview
     id="namedview433"
     pagecolor="#ffffff"
     bordercolor="#000000"
     borderopacity="0.25"
     inkscape:showpageshadow="2"
     inkscape:pageopacity="0.0"
     inkscape:pagecheckerboard="0"
     inkscape:deskcolor="#d1d1d1"
     inkscape:document-units="mm"
     showgrid="false"
     inkscape:zoom="0.35355339"
     inkscape:cx="274.35743"
     inkscape:cy="675.99408"
     inkscape:window-width="1920"
     inkscape:window-height="1027"
     inkscape:window-x="1912"
     inkscape:window-y="-8"
     inkscape:window-maximized="1"
     inkscape:current-layer="g2240" /><defs
     id="defs428" /><g
     inkscape:label="Calque 1"
     inkscape:groupmode="layer"
     id="layer1"
     transform="translate(-57.077006,-76.333465)"><g
       id="g2240"
       transform="translate(-492.69047,40.347656)"><g
         id="g1789"
         transform="translate(0,-0.48106055)"
         style="opacity:1"><ellipse
           cx="-607.57617"
           cy="249.14777"
           rx="51.198124"
           ry="3.6588485"
           fill="#3f3d56"
           id="ellipse1790-0-2-0"
           transform="scale(-1,1)"
           style="stroke-width:0.114374;opacity:1" /><ellipse
           cx="-838.37036"
           cy="249.67776"
           rx="81.649323"
           ry="3.5130219"
           fill="#3f3d56"
           id="ellipse1730-5-1-0"
           transform="scale(-1,1)"
           style="stroke-width:0.141529;opacity:1" /><path
           d="M 835.33394,173.86206 H 621.03005 a 2.0815484,2.0815484 0 0 1 -2.07928,-2.07927 V 45.08566 a 2.0815484,2.0815484 0 0 1 2.07928,-2.079275 h 214.30389 a 2.0815455,2.0815455 0 0 1 2.07927,2.079275 v 126.69712 a 2.0815455,2.0815455 0 0 1 -2.07927,2.07928 z M 621.03005,43.838095 a 1.2489285,1.2489285 0 0 0 -1.24757,1.247565 v 126.69712 a 1.2489285,1.2489285 0 0 0 1.24757,1.24757 h 214.30389 a 1.2489256,1.2489256 0 0 0 1.24756,-1.24757 V 45.08566 a 1.2489256,1.2489256 0 0 0 -1.24756,-1.247565 z"
           fill="#e6e6e6"
           id="path1490"
           style="stroke-width:0.288888;opacity:1" /><path
           id="bbcc4262-a9b8-4c1e-bf70-e1245b5187b9-684"
           data-name="a332a05d-d774-4fd2-8531-ab97682a63e9"
           d="m 707.52473,53.125068 a 1.6486866,1.6486866 0 0 0 0,3.296911 h 41.332 a 1.6486866,1.6486866 0 0 0 0.059,-3.29683 l -0.005,-8.1e-5 q -0.0271,-4.62e-4 -0.0541,0 z"
           fill="#3f3d56"
           style="stroke-width:0.288888;opacity:1" /><path
           d="m 758.22983,52.666059 a 0.3243871,0.3243871 0 0 0 -4e-5,0.458726 l 4e-5,2.6e-5 1.39251,1.392524 h -3.4338 a 0.32438421,0.32438421 0 0 0 0,0.648765 h 3.4338 l -1.39251,1.392526 a 0.32438156,0.32438156 0 0 0 0.45873,0.458755 v 0 l 1.94629,-1.946282 a 0.32440443,0.32440443 0 0 0 0,-0.458755 l -1.94629,-1.946282 a 0.32435821,0.32435821 0 0 0 -0.45872,0 z"
           fill="#e6e6e6"
           id="path1493"
           style="stroke-width:0.288888;opacity:1" /><path
           d="m 698.13416,52.666059 a 0.32437265,0.32437265 0 0 1 2e-5,0.458726 l -2e-5,2.6e-5 -1.39251,1.392524 h 3.4338 a 0.32438421,0.32438421 0 1 1 8.6e-4,0.648765 h -3.43456 l 1.3925,1.392526 a 0.3243836,0.3243836 0 1 1 -0.45874,0.458755 v 0 l -1.94628,-1.946282 a 0.32440443,0.32440443 0 0 1 0,-0.458755 l 1.94628,-1.946282 a 0.32437554,0.32437554 0 0 1 0.45873,-1.7e-5 z"
           fill="#e6e6e6"
           id="path1495"
           style="stroke-width:0.288888;opacity:1" /><rect
           x="636.27808"
           y="70.003006"
           width="28.55537"
           height="19.406563"
           fill="#f1f1f1"
           id="rect1501-8"
           style="stroke-width:0.288888;opacity:1" /><rect
           x="675.09119"
           y="70.003006"
           width="28.55537"
           height="19.406563"
           fill="#f1f1f1"
           id="rect1503-5"
           style="stroke-width:0.288888;opacity:1" /><rect
           x="713.9043"
           y="70.003006"
           width="28.55537"
           height="19.406563"
           fill="#f1f1f1"
           id="rect1505-8"
           style="stroke-width:0.288888;opacity:1" /><rect
           x="752.71741"
           y="70.003006"
           width="28.55537"
           height="19.406563"
           fill="#f1f1f1"
           id="rect1507-1"
           style="stroke-width:0.288888;opacity:1" /><rect
           x="791.53058"
           y="70.003006"
           width="28.55537"
           height="19.406563"
           fill="#f1f1f1"
           id="rect1509-3"
           style="stroke-width:0.288888;opacity:1" /><rect
           x="636.38275"
           y="104.1031"
           width="28.55537"
           height="19.406563"
           fill="#f1f1f1"
           id="rect1511-9"
           style="stroke-width:0.288888;opacity:1" /><rect
           x="675.19586"
           y="104.1031"
           width="28.55537"
           height="19.406563"
           fill="#f1f1f1"
           id="rect1513-1"
           style="stroke-width:0.288888;opacity:1" /><rect
           x="714.00903"
           y="104.1031"
           width="28.55537"
           height="19.406563"
           fill="#f1f1f1"
           id="rect1515-5"
           style="stroke-width:0.288888;opacity:1" /><rect
           x="752.82214"
           y="104.1031"
           width="28.55537"
           height="19.406563"
           fill="#f1f1f1"
           id="rect1517-4"
           style="stroke-width:0.288888;opacity:1" /><rect
           x="791.63525"
           y="104.1031"
           width="28.55537"
           height="19.406563"
           fill="#f1f1f1"
           id="rect1519-9"
           style="stroke-width:0.288888;opacity:1" /><rect
           x="636.48749"
           y="138.2032"
           width="28.55537"
           height="19.406563"
           fill="#f1f1f1"
           id="rect1521-2"
           style="stroke-width:0.288888;opacity:1" /><rect
           x="675.3006"
           y="138.2032"
           width="28.55537"
           height="19.406563"
           fill="#f1f1f1"
           id="rect1523"
           style="stroke-width:0.288888;opacity:1" /><rect
           x="714.11371"
           y="138.2032"
           width="28.55537"
           height="19.406563"
           fill="#f1f1f1"
           id="rect1525"
           style="stroke-width:0.288888;opacity:1" /><rect
           x="752.92682"
           y="138.2032"
           width="28.55537"
           height="19.406563"
           fill="#f1f1f1"
           id="rect1527"
           style="stroke-width:0.288888;opacity:1" /><rect
           x="791.73999"
           y="138.2032"
           width="28.55537"
           height="19.406563"
           fill="#f1f1f1"
           id="rect1529"
           style="stroke-width:0.288888;opacity:1" /><circle
           cx="719.83099"
           cy="76.102211"
           r="3.6040745"
           fill="#786fa6"
           id="circle1531"
           style="stroke-width:0.288888;opacity:1;fill:#f78fb3;fill-opacity:1" /><circle
           cx="680.46338"
           cy="110.20231"
           r="3.6040745"
           fill="#786fa6"
           id="circle1533"
           style="stroke-width:0.288888;opacity:1" /><circle
           cx="719.81744"
           cy="109.77879"
           r="3.6040745"
           fill="#786fa6"
           id="circle1535"
           style="stroke-width:0.288888;opacity:1" /><circle
           cx="758.99469"
           cy="109.72124"
           r="3.6040745"
           fill="#3f3d56"
           id="circle1537"
           style="stroke-width:0.288888;opacity:1" /><circle
           cx="797.53058"
           cy="109.72124"
           r="3.6040745"
           fill="#3f3d56"
           id="circle1539"
           style="stroke-width:0.288888;opacity:1" /><circle
           cx="680.46045"
           cy="143.87146"
           r="3.6040745"
           fill="#3f3d56"
           id="circle1541"
           style="stroke-width:0.288888;opacity:1;fill:#f78fb3;fill-opacity:1" /><circle
           cx="608.20227"
           cy="152.87183"
           r="6.6940255"
           fill="#ffb8b8"
           id="circle1543-3"
           style="stroke-width:0.288888;opacity:1" /><path
           d="m 605.78571,192.48159 q -0.12646,0 -0.25404,-0.0112 a 2.9987433,2.9987433 0 0 1 -2.6914,-3.57478 2.8077447,2.8077447 0 0 1 0.0736,-0.28505 l -9.87981,-11.6849 a 2.3288225,2.3288225 0 0 1 -0.16203,-2.77578 l 0.0179,-0.0218 8.89302,-8.76887 a 2.5706836,2.5706836 0 0 1 3.60974,3.66107 q -0.0167,0.0165 -0.0338,0.0327 l -6.44091,6.12325 7.05121,11.31707 a 2.8537906,2.8537906 0 0 1 0.39771,0.049 2.9986624,2.9986624 0 0 1 -0.58123,5.93933 z"
           fill="#ffb8b8"
           id="path1545-5"
           style="stroke-width:0.288888;opacity:1" /><polygon
           points="139.328,769.118 150.895,769.118 156.397,724.505 139.326,724.506 "
           fill="#ffb8b8"
           id="polygon1547"
           transform="matrix(0.28888848,0,0,0.28888848,578.9773,23.8465)"
           style="opacity:1" /><path
           d="m 618.37535,244.94506 6.5803,-2.6e-4 h 2.7e-4 a 4.1934156,4.1934156 0 0 1 4.19354,4.19329 v 0.13646 l -10.77392,2.9e-4 z"
           fill="#2f2e41"
           id="path1549-0"
           style="stroke-width:0.288888;opacity:1" /><polygon
           points="24.366,753.127 34.304,759.044 61.857,723.527 47.189,714.794 "
           fill="#ffb8b8"
           id="polygon1551"
           transform="matrix(0.28888848,0,0,0.28888848,578.9773,23.8465)"
           style="opacity:1" /><path
           d="m 585.84212,240.04276 5.65402,3.36639 2.3e-4,1.4e-4 a 4.1934243,4.1934243 0 0 1 1.45777,5.74843 l -9e-5,1.4e-4 -0.0697,0.11709 -9.25727,-5.5118 z"
           fill="#2f2e41"
           id="path1553-0"
           style="stroke-width:0.288888;opacity:1" /><path
           d="m 623.35745,241.48383 h -3.74159 a 1.2242256,1.2242256 0 0 1 -1.21954,-1.09683 l -3.77208,-35.45743 a 0.40889853,0.40889853 0 0 0 -0.77918,-0.12509 l -6.80488,15.06805 -12.04767,19.6452 a 1.2322971,1.2322971 0 0 1 -1.53946,0.48122 l -4.81295,-2.11756 a 1.22684,1.22684 0 0 1 -0.55894,-1.75186 l 11.07513,-18.54435 3.39665,-15.62459 c -1.06829,-6.77588 3.51143,-16.84971 3.55788,-16.95087 l 0.0227,-0.0492 12.61503,-4.93065 0.0633,0.0774 c 4.975,16.32616 8.00655,33.8959 5.76815,60.25282 a 1.2347498,1.2347498 0 0 1 -1.22253,1.12372 z"
           fill="#2f2e41"
           id="path1555-2"
           style="stroke-width:0.288888;opacity:1" /><path
           d="m 605.62528,186.61145 -0.0588,-0.12349 c -0.0281,-0.0591 -2.83312,-5.97527 -4.99545,-12.29841 a 9.3267646,9.3267646 0 0 1 0.6467,-7.47454 9.4285371,9.4285371 0 0 1 6.01252,-4.62345 v 0 a 9.4400089,9.4400089 0 0 1 10.95689,5.65348 c 1.7152,4.28915 1.16856,8.86729 0.65413,12.46762 l -0.0103,0.0721 -0.0656,0.0314 z"
           fill="#786fa6"
           id="path1557-9"
           style="stroke-width:0.288888;opacity:1" /><path
           d="m 616.31888,149.0905 h -10.62932 v -4.63329 c 2.33302,-0.92686 4.61599,-1.7151 5.99603,0 a 4.6333292,4.6333292 0 0 1 4.6333,4.63329 z"
           fill="#2f2e41"
           id="path1559-1"
           style="stroke-width:0.288888;opacity:1" /><path
           d="m 605.10108,143.63958 c -6.3544,0 -8.133,7.965 -8.133,12.45846 0,2.50596 1.1333,3.40224 2.91417,3.70552 l 0.62893,-3.35428 1.47305,3.49862 c 0.50024,0.003 1.02577,-0.007 1.5706,-0.0173 l 0.49944,-1.02841 1.11374,1.00996 c 4.46068,0.007 8.06594,0.65688 8.06594,-3.81411 0,-4.49346 -1.55981,-12.45846 -8.13287,-12.45846 z"
           fill="#2f2e41"
           id="path1561-6"
           style="stroke-width:0.288888;opacity:1" /><path
           d="m 633.34592,152.55394 q 0.0606,0.11098 0.11199,0.22831 a 2.9987549,2.9987549 0 0 1 -1.84677,4.0758 2.8090014,2.8090014 0 0 1 -0.28544,0.0721 l -5.51761,14.2725 a 2.3288254,2.3288254 0 0 1 -2.35826,1.47299 l -0.0277,-0.005 -11.959,-3.60017 a 2.5706821,2.5706821 0 0 1 1.48243,-4.92301 q 0.0224,0.007 0.0446,0.0139 l 8.46164,2.71665 6.55096,-11.61382 a 2.8529673,2.8529673 0 0 1 -0.1477,-0.3725 2.9986769,2.9986769 0 0 1 5.49088,-2.33749 z"
           fill="#ffb8b8"
           id="path1563-5"
           style="stroke-width:0.288888;opacity:1" /><path
           d="m 814.80518,243.5805 c 5.72537,-3.51332 9.99487,-9.99227 9.33879,-16.67745 a 30.949544,30.949544 0 0 1 -19.34464,8.7922 c -2.80982,0.20422 -5.95628,0.13881 -8.00043,2.07744 -1.27195,1.20624 -1.84731,3.00416 -1.92199,4.75547 -0.0746,1.75139 0.29947,3.48735 0.67147,5.20041 l -0.11434,0.4224 c 6.71706,-0.0656 13.64578,-1.05715 19.37114,-4.57047 z"
           fill="#f0f0f0"
           id="path3120"
           style="stroke-width:0.196425;opacity:1" /><path
           d="m 824.00312,226.89778 a 26.453534,26.453534 0 0 1 -10.83183,12.14796 11.391774,11.391774 0 0 1 -3.30077,1.35816 6.5337174,6.5337174 0 0 1 -3.43128,-0.22522 c -1.03568,-0.33374 -2.05643,-0.79507 -3.15521,-0.87124 a 4.0006048,4.0006048 0 0 0 -3.05403,1.17364 c -1.01663,0.9704 -1.62395,2.24823 -2.17443,3.51847 -0.6112,1.41036 -1.2237,2.88497 -2.41826,3.90941 -0.14474,0.12413 0.0563,0.34145 0.20084,0.21751 2.07834,-1.78236 2.38172,-4.72431 4.03407,-6.8127 0.77102,-0.97448 1.84038,-1.72251 3.12279,-1.72051 1.12142,0.002 2.17443,0.47657 3.22016,0.82356 a 6.9719629,6.9719629 0 0 0 3.34685,0.34521 10.53148,10.53148 0 0 0 3.34081,-1.22624 25.664664,25.664664 0 0 0 6.32438,-4.93398 26.922663,26.922663 0 0 0 5.05912,-7.61759 c 0.0766,-0.17389 -0.20706,-0.25921 -0.28321,-0.0864 z"
           fill="#ffffff"
           id="path3122"
           style="stroke-width:0.196425;opacity:1" /><path
           d="m 814.76934,238.23174 a 3.9688743,3.9688743 0 0 0 5.03506,1.02972 c 0.16663,-0.0923 0.031,-0.35558 -0.13584,-0.26314 a 3.6750915,3.6750915 0 0 1 -4.6817,-0.96742 c -0.11682,-0.15049 -0.33367,0.0512 -0.21752,0.20084 z"
           fill="#ffffff"
           id="path3124"
           style="stroke-width:0.196425;opacity:1" /><path
           d="m 806.94209,240.41707 a 7.6496758,7.6496758 0 0 1 2.59701,-4.93302 c 0.14429,-0.12463 -0.0567,-0.342 -0.20085,-0.21751 a 7.9568293,7.9568293 0 0 0 -2.69199,5.13874 c -0.0207,0.18975 0.27523,0.20051 0.29582,0.0118 z"
           fill="#ffffff"
           id="path3126"
           style="stroke-width:0.196425;opacity:1" /><path
           d="m 820.96665,232.2357 a 2.2465701,2.2465701 0 0 1 -0.78267,-1.98285 c 0.0231,-0.1894 -0.27287,-0.19995 -0.29581,-0.0118 a 2.5174753,2.5174753 0 0 0 0.86098,2.19549 0.15301497,0.15301497 0 0 0 0.20918,0.008 0.14878005,0.14878005 0 0 0 0.008,-0.20918 z"
           fill="#ffffff"
           id="path3128"
           style="stroke-width:0.196425;opacity:1" /><path
           d="m 805.28562,214.18938 c -0.0178,0.11786 -0.0356,0.23571 -0.0556,0.3547 a 29.586392,29.586392 0 0 1 -1.12315,4.66603 c -0.0368,0.11832 -0.0759,0.23768 -0.11599,0.35468 a 31.190359,31.190359 0 0 1 -5.63807,10.00399 30.289627,30.289627 0 0 1 -3.22128,3.28691 c -1.59595,1.39803 -3.43761,2.78686 -4.44876,4.57774 a 5.1962841,5.1962841 0 0 0 -0.28741,0.57533 l 4.53224,9.96995 c 0.0217,0.0175 0.0411,0.0361 0.0629,0.0537 l 0.16275,0.40635 c 0.0633,-0.048 0.12781,-0.0992 0.19105,-0.1473 0.0368,-0.0277 0.0726,-0.0577 0.10941,-0.0854 0.0242,-0.0192 0.0484,-0.0385 0.0713,-0.0544 0.008,-0.006 0.0161,-0.0128 0.0219,-0.0181 0.023,-0.0159 0.0426,-0.0332 0.0633,-0.0481 q 0.54251,-0.42775 1.08089,-0.86461 c 0.002,-9.8e-4 0.002,-9.8e-4 0.004,-0.004 2.72913,-2.22609 5.2964,-4.69959 7.40663,-7.4841 0.0635,-0.0838 0.12925,-0.16852 0.19064,-0.25688 a 28.903217,28.903217 0 0 0 2.51051,-3.99308 25.552594,25.552594 0 0 0 1.06778,-2.35459 21.248043,21.248043 0 0 0 1.42541,-6.48876 c 0.26244,-4.43411 -0.89615,-8.90279 -3.78665,-12.20006 -0.074,-0.0843 -0.14703,-0.16648 -0.22331,-0.24974 z"
           fill="#f0f0f0"
           id="path3130"
           style="stroke-width:0.196425;opacity:1" /><path
           d="m 805.16927,214.26932 a 26.453518,26.453518 0 0 1 -1.3347,16.22097 11.391744,11.391744 0 0 1 -1.81777,3.0717 6.5337253,6.5337253 0 0 1 -2.87528,1.88605 c -1.02788,0.35708 -2.12063,0.6033 -3.0438,1.20401 a 4.0006067,4.0006067 0 0 0 -1.73187,2.77583 c -0.22747,1.38689 0.057,2.77281 0.38221,4.11845 0.36112,1.49408 0.75989,3.04024 0.42288,4.57741 -0.0408,0.18625 0.25055,0.23872 0.29133,0.0528 0.58633,-2.67441 -0.9427,-5.20606 -0.88074,-7.86835 0.0289,-1.24227 0.43236,-2.48336 1.45751,-3.25386 0.89644,-0.67378 2.02308,-0.92865 3.06695,-1.2812 a 6.9719531,6.9719531 0 0 0 2.88011,-1.73939 10.531454,10.531454 0 0 0 1.92917,-2.99049 25.664676,25.664676 0 0 0 2.07907,-7.74722 26.922602,26.922602 0 0 0 -0.5469,-9.12816 c -0.0435,-0.18499 -0.32138,-0.0823 -0.27817,0.10149 z"
           fill="#ffffff"
           id="path3132"
           style="stroke-width:0.196425;opacity:1" /><path
           d="m 804.62044,228.87823 a 3.9688723,3.9688723 0 0 0 4.64018,-2.20928 c 0.0775,-0.17404 -0.18933,-0.30257 -0.26689,-0.12832 a 3.6750875,3.6750875 0 0 1 -4.32053,2.04628 c -0.18388,-0.0498 -0.23558,0.24178 -0.0528,0.29132 z"
           fill="#ffffff"
           id="path3134"
           style="stroke-width:0.196425;opacity:1" /><path
           d="m 799.68654,235.33563 a 7.6496758,7.6496758 0 0 1 -0.89645,-5.50232 c 0.0402,-0.18639 -0.2512,-0.23891 -0.29133,-0.0528 a 7.9568195,7.9568195 0 0 0 0.94448,5.72376 c 0.0977,0.16398 0.34047,-0.006 0.2433,-0.16869 z"
           fill="#ffffff"
           id="path3136"
           style="stroke-width:0.196425;opacity:1" /><path
           d="m 805.95861,220.35952 a 2.2465701,2.2465701 0 0 1 -1.81873,-1.11198 c -0.0956,-0.16514 -0.33825,0.005 -0.2433,0.16869 a 2.5174655,2.5174655 0 0 0 2.00928,1.23461 0.15301497,0.15301497 0 0 0 0.17204,-0.11929 0.14877808,0.14877808 0 0 0 -0.11929,-0.17203 z"
           fill="#ffffff"
           id="path3138"
           style="stroke-width:0.196425;opacity:1" /><polygon
           points="102.687,565.457 117.324,565.456 124.287,509 102.685,509.001 "
           fill="#ffb6b6"
           id="polygon3140"
           transform="matrix(0.19642486,0,0,0.19642486,757.53703,135.41778)"
           style="opacity:1" /><path
           d="m 776.97402,245.54894 0.80924,-4e-5 3.15941,-1.28485 1.69334,1.28466 h 2e-4 a 3.6084563,3.6084563 0 0 1 3.60826,3.6082 v 0.11726 l -9.27031,3.9e-4 z"
           fill="#2f2e41"
           id="path3142"
           style="stroke-width:0.196425;opacity:1" /><polygon
           points="170.687,565.457 185.324,565.456 192.287,509 170.685,509.001 "
           fill="#ffb6b6"
           id="polygon3144"
           transform="matrix(0.19642486,0,0,0.19642486,757.53703,135.41778)"
           style="opacity:1" /><path
           d="m 790.33091,245.54894 0.80924,-4e-5 3.15941,-1.28485 1.69334,1.28466 h 2e-4 a 3.6084563,3.6084563 0 0 1 3.60827,3.6082 v 0.11726 l -9.27032,3.9e-4 z"
           fill="#2f2e41"
           id="path3146"
           style="stroke-width:0.196425;opacity:1" /><polygon
           points="91.037,204.001 110.387,263.5 171.387,261.5 152.643,204.001 "
           fill="#e6e6e6"
           id="polygon3148"
           transform="matrix(0.19642486,0,0,0.19642486,757.53703,135.41778)"
           style="opacity:1" /><path
           d="m 793.36242,185.80076 -22.58885,0.58927 0.39285,10.99979 c 0,0 -0.39285,2.94638 0.39285,3.73207 0.78569,0.7857 1.17854,0.7857 0.78569,2.16068 -0.39285,1.37497 1.68276,3.62071 1.43066,3.87282 -0.25211,0.2521 -0.84138,1.62707 -0.84138,1.62707 l 1.96425,11.19622 c 0,0 1.37497,19.44606 1.76782,19.83891 0.39285,0.39285 0.7857,0 0.39285,0.98213 -0.39285,0.98212 -0.7857,0.58927 -0.39285,0.98212 a 14.466715,14.466715 0 0 1 0.98213,1.17855 h 4.74899 c 0,0 0.35805,-1.96425 0.35805,-2.16067 0,-0.19643 0.39285,-1.37498 0.39285,-1.5714 0,-0.19643 -0.34722,-0.54365 -0.34722,-0.54365 a 6.4622129,6.4622129 0 0 1 -0.24205,-1.22418 c 0,-0.39285 -1.17855,-15.51756 -1.17855,-15.51756 l 2.3571,-19.64249 5.69632,19.24964 c 0,0 0,16.89254 0.39285,17.28539 0.39285,0.39285 0.39285,0.19642 0.19642,0.98212 -0.19642,0.7857 -0.98212,0.58928 -0.39285,1.17855 0.58928,0.58928 0.7857,-0.39285 0.58928,0.58928 l -0.19643,0.98212 5.89275,0.0843 c 0,0 0.7857,-1.65569 0.39285,-2.24496 -0.39285,-0.58928 -0.36928,-0.42843 0.11,-1.39276 0.47927,-0.96434 0.6757,-1.16077 0.47927,-1.35719 -0.19642,-0.19643 -0.19642,-1.24119 -0.19642,-1.24119 l -0.98213,-18.79415 c 0,0 -0.19642,-19.83891 -0.19642,-20.42818 a 1.9592417,1.9592417 0 0 1 0.16317,-0.88367 v -0.79986 l -0.75245,-2.83424 z"
           fill="#2f2e41"
           id="path3150"
           style="stroke-width:0.196425;opacity:1" /><path
           d="m 791.29996,157.22094 -6.87487,-2.55352 -11.39264,0.78569 -2.63791,1.23103 a 4.564462,4.564462 0 0 0 -2.54391,5.03967 l 3.414,16.90743 -2.16068,16.69612 c 0,0 10.70516,5.20526 14.04438,-8.34806 l 1.17855,-5.10705 c 0,0 0.39285,15.71399 11.58907,12.37477 0,0 -0.19643,-3.1428 -0.39285,-4.32135 -0.19643,-1.17855 -0.58928,-1.17855 -0.7857,-1.76782 -0.19643,-0.58927 -0.58928,0 -0.19643,-1.17855 0.39285,-1.17855 -3.14279,-9.42839 -3.14279,-9.42839 z"
           fill="#2f2e41"
           id="path3152"
           style="stroke-width:0.196425;opacity:1" /><polygon
           points="127.698,84.5 139.705,99.047 125.387,177.5 88.033,101.369 97.387,84.5 "
           fill="#e6e6e6"
           id="polygon3154"
           transform="matrix(0.19642486,0,0,0.19642486,757.53703,135.41778)"
           style="opacity:1" /><path
           d="m 778.50504,186.55705 a 2.1934312,2.1934312 0 0 1 -2.30423,-2.45004 l -7.00879,-3.41096 3.4848,-2.06472 6.12141,3.55564 a 2.2053208,2.2053208 0 0 1 -0.29319,4.37008 z"
           fill="#ffb8b8"
           id="path3156"
           style="stroke-width:0.196425;opacity:1" /><path
           d="m 764.10979,178.22641 c -0.33434,-0.4082 -0.72307,-3.25338 0.01,-3.92102 0.61804,-0.56299 0.4832,-0.82473 0.0903,-1.4142 -0.34125,-0.51188 2.27835,-9.96319 3.78415,-14.35492 a 2.4398069,2.4398069 0 0 1 4.70259,1.25719 c 0.53154,5.62266 -0.22433,9.45727 -2.37829,12.05414 l 6.65446,8.81591 -1.22113,4.47758 c 0,0 -11.33711,-6.54274 -11.64182,-6.91468 z"
           fill="#2f2e41"
           id="path3158"
           style="stroke-width:0.196425;opacity:1" /><circle
           cx="779.711"
           cy="143.86404"
           r="6.0891705"
           fill="#ffb8b8"
           id="circle3160"
           style="stroke-width:0.196425;opacity:1" /><path
           d="m 786.15914,139.44672 c -0.1618,-1.45631 -2.26536,-2.91261 -5.98703,-3.88348 -3.72166,-0.97088 -5.66341,3.23623 -5.66341,3.23623 -2.589,1.29449 -1.0518,8.1715 -0.24272,7.52425 0.80907,-0.64724 1.53722,0.40454 1.53722,0.40454 l 0.59868,-5.38829 c 0.85228,0.65312 1.81292,1.20609 2.84404,1.04173 l -1.26197,-1.24255 q 1.79406,0.78062 3.58814,1.56123 -0.59392,-0.81723 -1.18782,-1.63445 c 0.0409,-0.001 0.0819,-0.003 0.12281,-0.005 a 5.6907641,5.6907641 0 0 0 1.81585,1.01537 c 0.78485,0.22495 1.72527,0.10326 2.263,-0.5111 a 1.6694758,1.6694758 0 0 0 0.32166,-0.57889 c 0.97648,0.6688 1.17065,2.10086 1.17065,2.10086 0,0 0.24271,-2.18447 0.0809,-3.64078 z"
           fill="#2f2e41"
           id="path3162"
           style="stroke-width:0.196425;opacity:1" /><circle
           cx="780.83356"
           cy="172.59776"
           r="10.536577"
           fill="#786fa6"
           id="circle3164"
           style="stroke-width:0.196425;opacity:1" /><path
           d="m 782.73948,179.72959 a 2.1934332,2.1934332 0 0 1 3.34073,-0.38955 l 6.91671,-3.59401 -0.4196,4.02876 -6.5039,2.79526 a 2.2053189,2.2053189 0 0 1 -3.33394,-2.84046 z"
           fill="#ffb8b8"
           id="path3166"
           style="stroke-width:0.196425;opacity:1" /><path
           d="m 787.0094,182.39114 -1.22113,-4.47758 6.06519,-5.86954 c -2.15396,-2.59688 -2.90983,-6.43149 -2.37829,-12.05415 a 2.4397657,2.4397657 0 0 1 4.70259,-1.25719 c 1.50579,4.39174 3.2154,9.79784 2.80817,10.61231 -0.0542,0.10838 -0.10339,0.20515 -0.14761,0.29205 -0.36475,0.71722 -0.36475,0.71722 -0.01,1.17864 0.0443,0.0576 0.0937,0.12181 0.14799,0.19432 0.13753,0.18328 0.28571,0.35563 0.429,0.52223 0.46153,0.53662 0.89754,1.04351 0.55628,1.55538 -0.39295,0.58947 -0.52779,0.85121 0.0902,1.4142 0.73286,0.66764 0.34413,3.51282 0.01,3.92102 -0.3047,0.37194 -9.17834,3.34354 -10.95404,3.9354 z"
           fill="#2f2e41"
           id="path3168"
           style="stroke-width:0.196425;opacity:1" /><path
           d="m 779.59268,177.52708 a 0.88392562,0.88392562 0 0 1 -0.42642,-0.11107 0.87242298,0.87242298 0 0 1 -0.45826,-0.77467 v -7.30187 a 0.88387455,0.88387455 0 0 1 1.35781,-0.74608 l 6.92656,3.65093 a 0.88392758,0.88392758 0 0 1 0,1.49217 l -6.92656,3.65093 a 0.87969266,0.87969266 0 0 1 -0.47313,0.13966 z"
           fill="#ffffff"
           id="path3184"
           style="stroke-width:0.196425;opacity:1" /><g
           id="g3335"
           transform="matrix(0.24053027,0,0,0.24053027,832.61985,134.83139)"
           style="opacity:1"><polygon
             points="267.15483,422.94517 267.15244,468.68793 255.29333,468.68678 249.65187,422.94394 "
             fill="#a0616a"
             id="polygon3331" /><path
             d="m 226.52161,468.41891 v 0 c -0.36925,0.62189 -0.56409,2.62907 -0.56409,3.35227 v 0 c 0,2.22294 1.80202,4.02503 4.02503,4.02503 h 36.72631 c 1.51648,0 2.7459,-1.22935 2.7459,-2.7459 v -1.52903 c 0,0 1.81681,-4.59554 -1.92369,-10.2598 0,0 -4.64894,4.4352 -11.59566,-2.51151 l -2.04852,-3.71106 -14.8285,10.84481 -8.21921,1.01171 c -1.7982,0.22132 -3.39246,-0.0343 -4.31743,1.52348 z"
             fill="#2f2e41"
             id="path3333" /></g><g
           id="g3341"
           transform="matrix(0.24053027,0,0,0.24053027,832.61985,134.83139)"
           style="opacity:1"><polygon
             points="322.15483,422.94517 322.15244,468.68793 310.29333,468.68678 304.65187,422.94394 "
             fill="#a0616a"
             id="polygon3337" /><path
             d="m 281.52161,468.41891 v 0 c -0.36925,0.62189 -0.56409,2.62907 -0.56409,3.35227 v 0 c 0,2.22294 1.80202,4.02503 4.02503,4.02503 h 36.72631 c 1.51648,0 2.7459,-1.22935 2.7459,-2.7459 v -1.52903 c 0,0 1.81681,-4.59554 -1.92369,-10.2598 0,0 -4.64894,4.4352 -11.59566,-2.51151 l -2.04852,-3.71106 -14.8285,10.84481 -8.21921,1.01171 c -1.7982,0.22132 -3.39246,-0.0343 -4.31743,1.52348 z"
             fill="#2f2e41"
             id="path3339" /></g><path
           d="m 894.82954,154.11206 c -0.61332,-0.47727 -1.2498,-0.98336 -1.56688,-1.69288 -0.31708,-0.70951 -0.19051,-1.6825 0.48262,-2.0709 0.90623,-0.52291 2.09436,0.28054 3.08176,-0.0655 0.67045,-0.23497 1.04862,-0.92275 1.41323,-1.53248 0.36462,-0.60973 0.87722,-1.25341 1.58696,-1.28469 0.9162,-0.0404 1.55536,0.94861 2.4469,1.16358 0.99947,0.24099 1.99882,-0.54556 3.02081,-0.43358 0.93802,0.10277 1.66869,1.01299 1.71524,1.95548 0.0465,0.94249 -0.49925,1.85199 -1.26779,2.39953 -1.04915,0.74746 -2.40482,0.87007 -3.68929,0.96793 l -7.22984,0.55083"
           fill="#e6e6e6"
           id="path3343"
           style="stroke-width:0.24053;opacity:1" /><circle
           cx="898.04285"
           cy="143.19719"
           r="6.521533"
           fill="#a0616a"
           id="circle3345"
           style="stroke-width:0.24053;opacity:1" /><path
           d="m 901.52838,144.87184 2.00289,2.56257 c 0,0 2.95358,-4.86566 0.69468,-8.09835 0,0 -1.07574,-1.07372 -0.99141,-1.92507 0.0843,-0.85135 -1.82168,-2.22223 -3.14087,-1.92304 -1.31918,0.29918 -1.1179,-0.64804 -1.1179,-0.64804 l -1.35081,0.61844 -0.90506,-0.62696 -0.72283,0.7881 c 0,0 -4.35161,0.53614 -3.45507,3.41897 0,0 -3.90384,1.44019 -2.54047,2.86478 1.36337,1.4246 3.09769,1.27399 3.56553,0.89048 0.46783,-0.38351 4.44748,-0.41917 4.44748,-0.41917 l 0.23594,1.95769 1.80811,-0.89553 c 0,0 1.8829,-0.56574 1.46979,1.43514 z"
           fill="#2f2e41"
           id="path3347"
           style="stroke-width:0.24053;opacity:1" /><path
           d="m 853.21517,176.44641 c -0.12309,0 -0.24617,-0.047 -0.34013,-0.14093 -0.18791,-0.1878 -0.18791,-0.49245 0,-0.68025 l 6.39085,-6.39096 c 0.48024,-0.48024 0.70738,-1.14217 0.62317,-1.81608 l -0.31523,-2.52157 c -0.033,-0.26367 0.15397,-0.50408 0.41764,-0.53697 0.26461,-0.0338 0.50396,0.15409 0.53697,0.41764 l 0.31522,2.52158 c 0.12144,0.97069 -0.20576,1.92412 -0.89752,2.61576 l -6.39085,6.39085 c -0.0938,0.094 -0.21704,0.14094 -0.34012,0.14094 z"
           fill="#3f3d56"
           id="path3349"
           style="stroke-width:0.24053;opacity:1" /><rect
           x="832.34851"
           y="255.91531"
           width="5.564199"
           height="3.4974952"
           transform="rotate(-6.3070595)"
           fill="#3f3d56"
           id="rect3351"
           style="stroke-width:0.24053;opacity:1" /><rect
           x="850.98987"
           y="164.04205"
           width="5.564199"
           height="1.7487489"
           fill="#3f3d56"
           id="rect3353"
           style="stroke-width:0.24053;opacity:1" /><path
           d="m 853.03596,165.40157 -4.57344,1.63544 c -0.94093,0.33925 -1.98108,-0.14402 -2.33312,-1.08175 l -6.07768,1.75705 c -0.23683,0.0736 -0.48006,0.1088 -0.71369,0.11521 -0.25283,0.0128 -0.48648,0.0448 -0.70411,0.0864 -1.05934,0.19522 -1.07633,0.17536 -1.27156,-1.09202 -0.003,-0.0256 -0.95571,-2.86076 -0.96212,-2.88636 -0.13441,-0.92494 -0.12825,-1.15835 0.57906,-1.43999 0.32004,-0.12482 0.69769,-0.24324 1.09134,-0.40646 0.0384,-0.0192 0.0768,-0.0352 0.11844,-0.0512 l 6.03605,-2.21793 v -0.8449 h -1.05296 l -0.63689,-1.48502 5.6424,-2.54436 c 0.59209,-0.26883 1.25777,-0.32645 1.88827,-0.16962 0.48646,0.1216 0.92494,0.36484 1.27698,0.6977 0.35525,0.33284 0.62409,0.7521 0.77771,1.22896 l 0.15361,0.48648 1.56183,4.89669 0.32965,1.03374 c 0.30084,0.94093 -0.19842,1.94908 -1.12977,2.28192 z"
           fill="#3f3d56"
           id="path3355"
           style="stroke-width:0.24053;opacity:1" /><polygon
           points="337.55961,251.03715 237.88951,241.48308 247.71691,441 270.71691,440 286.26931,285.73353 303.71691,441 323.71691,439 "
           fill="#2f2e41"
           id="polygon3357"
           transform="matrix(0.24053027,0,0,0.24053027,832.61985,134.83139)"
           style="opacity:1" /><path
           d="m 904.80241,150.40156 c -3.84839,0.38962 -7.08976,1.31572 -9.55502,1.33045 l -6.16845,3.02374 1.17617,21.21615 -0.5962,17.28989 c 0,0 10.06361,2.49591 16.59489,3.58445 6.53128,1.08855 8.00078,0 8.00078,0 l -3.43046,-15.21041 -1.19241,-29.51205 z"
           fill="#e6e6e6"
           id="path3359"
           style="stroke-width:0.24053;opacity:1" /><path
           d="m 915.44364,179.97335 0.1516,-11.80292 -4.5307,-1.2463 0.13703,13.05099 -1.04238,9.6441 0.0271,0.0101 c -0.43698,0.43942 -0.79154,1.14085 -0.94251,1.96992 -0.27546,1.51294 0.22946,2.872 1.12775,3.03555 0.89831,0.16355 1.84983,-0.93031 2.12528,-2.44326 0.11308,-0.62105 0.0929,-1.21451 -0.0303,-1.71164 l 0.0403,0.0151 z"
           fill="#a0616a"
           id="path3361"
           style="stroke-width:0.24053;opacity:1" /><path
           d="m 879.49884,180.58899 10.14576,-6.03286 -1.30246,-4.51487 -11.05954,6.93062 -8.76959,4.14604 0.006,0.0284 c -0.60292,-0.14328 -1.38627,-0.0795 -2.17219,0.22462 -1.4342,0.55494 -2.32971,1.69513 -2.00022,2.54666 0.32951,0.85155 1.75924,1.09201 3.19342,0.53705 0.58873,-0.22781 1.08434,-0.55487 1.44404,-0.91946 l 0.008,0.0423 10.50703,-2.98842 z"
           fill="#a0616a"
           id="path3363"
           style="stroke-width:0.24053;opacity:1" /><path
           d="m 907.20365,152.22862 c 0,0 2.05614,-1.57234 3.50754,0.7257 1.45139,2.29805 5.44273,13.90922 5.44273,13.90922 0,0 1.15426,5.32178 0.87951,6.10796 -0.27476,0.78617 -0.63761,7.70554 -0.63761,7.70554 l -5.67082,-1.02855 0.13714,-6.67699 -5.40385,-8.62556 z"
           fill="#e6e6e6"
           id="path3365"
           style="stroke-width:0.24053;opacity:1" /><path
           d="m 890.71176,154.81623 c 0,0 -3.99134,-0.27047 -4.47513,2.34423 -0.4838,2.6147 -3.50755,14.83062 -3.50755,14.83062 l -6.28938,3.99134 2.63851,5.58893 c 0,0 1.59473,-1.11379 2.92518,-1.11379 1.33044,0 4.23324,-2.04043 4.23324,-2.04043 0,0 5.21089,-4.57959 5.21089,-5.42624 0,-0.84665 -0.73575,-18.17466 -0.73575,-18.17466 z"
           fill="#e6e6e6"
           id="path3367"
           style="stroke-width:0.24053;opacity:1" /><rect
           x="506.91754"
           y="710.76178"
           width="2.298043"
           height="26.509876"
           transform="rotate(-43.05446)"
           fill="#3f3d56"
           id="rect3369"
           style="stroke-width:0.24053;opacity:1" /><ellipse
           cx="725.64124"
           cy="459.48599"
           rx="0.99162215"
           ry="0.59497327"
           transform="rotate(-21.830549)"
           fill="#786fa6"
           id="ellipse3371"
           style="stroke-width:0.24053;opacity:1" /><path
           d="m 895.46124,152.1445 c -0.20234,0.0526 -0.36659,0.21966 -0.41733,0.42247 -0.0238,0.0951 -0.0246,0.18721 -0.007,0.27248 0.14045,0.6806 0.28595,1.36016 0.28595,2.05511 v 11.89377 c 0,0.13283 0.10768,0.24053 0.24053,0.24053 h 0.11514 c 0.13285,0 0.24053,-0.1077 0.24053,-0.24053 v -11.49636 c 0,-0.83506 0.16087,-1.65478 0.29092,-2.47967 0.005,-0.03 0.007,-0.0609 0.007,-0.0923 0,-0.38123 -0.3578,-0.67889 -0.7559,-0.57548 z"
           fill="#786fa6"
           id="path3373"
           style="stroke-width:0.24053;opacity:1" /><path
           d="m 902.61579,151.25018 c -0.20235,0.0525 -0.36661,0.21955 -0.41739,0.42234 -0.0238,0.0951 -0.0247,0.18726 -0.007,0.27255 0.14044,0.68097 0.28597,1.36086 0.28597,2.05617 v 11.59468 c 0,0.13283 0.10768,0.24053 0.24053,0.24053 h 0.11514 c 0.13285,0 0.24053,-0.1077 0.24053,-0.24053 v -11.19835 c 0,-0.83503 0.16087,-1.65472 0.29091,-2.47956 0.005,-0.0301 0.007,-0.0609 0.007,-0.0923 0,-0.38119 -0.35773,-0.67884 -0.7558,-0.5755 z"
           fill="#786fa6"
           id="path3375"
           style="stroke-width:0.24053;opacity:1" /><path
           d="m 853.90624,245.23275 c -0.49693,0.0311 -0.77156,-0.58625 -0.39561,-0.94608 l 0.0374,-0.14869 c -0.005,-0.0118 -0.01,-0.0237 -0.0148,-0.0355 -0.50374,-1.2009 -1.40565,-0.0674 -2.70541,0.0133 -1.91153,0.11862 -1.88298,1.56434 -1.14248,3.25477 0.20102,0.45889 -1.5054,-3.24383 -1.5054,-5.72951 0,-0.62454 0.0342,-1.24908 0.10409,-1.87204 0.0575,-0.50957 0.13672,-1.01602 0.23926,-1.51782 0.5546,-2.71251 1.75551,-5.29606 3.48772,-7.45395 0.83271,-0.45519 1.52714,-1.16672 1.9466,-2.01961 0.15069,-0.30762 1.4454,-0.56746 1.50132,-0.90458 -0.0948,0.0124 -1.53395,-1.50189 -1.46248,-1.59044 -0.13206,-0.2004 -0.36844,-0.30002 -0.51267,-0.49557 -0.71734,-0.97257 -1.70565,-0.80275 -2.22159,0.51889 -1.10217,0.55626 -1.11284,1.47879 -0.43655,2.36605 0.43025,0.56448 0.48937,1.32829 0.86689,1.93261 -0.0389,0.0497 -0.0792,0.0979 -0.11808,0.1476 -0.0149,0.0192 -0.0298,0.0383 -0.0447,0.0575 -0.60936,0.78848 -1.82609,0.58652 -2.16543,-0.35042 -0.0247,-0.0683 -0.23479,3.63337 -0.0767,-0.19803 0.15804,-3.8314 -1.21997,-1.88096 -1.91762,-2.76452 -0.8333,-1.05535 -2.52839,-0.57572 -2.67523,0.76092 -10e-4,0.0128 -0.003,0.0256 -0.004,0.0384 0.10316,0.0582 0.20423,0.12004 0.30296,0.18533 0.56268,0.37217 0.36801,1.24448 -0.29874,1.34724 l -0.0151,0.002 c 0.0373,0.3713 0.10099,0.7395 0.19419,1.10148 -0.89017,3.44253 1.03096,4.69691 3.77468,4.75381 l 0.14297,0.20345 c -0.25981,0.74758 -0.46882,1.51311 -0.62566,2.2885 -0.14759,0.71929 -0.25013,1.44635 -0.30761,2.17653 l -0.002,0.0312 c -0.0476,0.62116 -0.83352,0.88535 -1.22853,0.40361 -0.10054,-0.1226 -0.20341,-0.23008 -0.3071,-0.31521 -1.18957,-0.97719 -2.87021,-1.33703 -4.15354,-2.1225 -0.61776,-0.3781 -1.40938,0.11051 -1.30156,0.82672 l 0.005,0.0343 c 0.19108,0.0777 0.3775,0.16778 0.55772,0.26875 0.10325,0.0583 0.2044,0.12014 0.30321,0.1855 0.56277,0.37226 0.36795,1.24469 -0.29899,1.34709 l -0.0151,0.002 c -0.0109,0.001 -0.0202,0.003 -0.031,0.005 l 0.01,0.0233 c 0.42906,1.00934 1.45457,1.66308 2.54968,1.6032 1.28905,-0.0705 2.89023,1.0073 4.30248,2.91293 l 0.002,1e-5 c 0.27964,1.21799 0.56796,2.28774 1.09307,3.42183 0.76443,0.003 2.30731,-0.0515 3.29881,-0.0972 0.32159,-0.39461 0.64317,-0.79232 0.96476,-1.18692 0.008,-0.008 0.014,-0.0155 0.0202,-0.0233 0.16312,-0.20195 0.3278,-0.40237 0.49092,-0.60432 l 9e-5,-2.4e-4 c 0.0102,-0.61998 -0.0641,-1.23792 -0.21137,-1.83762 l -1.3e-4,-9e-5 z"
           fill="#f2f2f2"
           id="path3377"
           style="stroke-width:0.24053;opacity:1"
           sodipodi:nodetypes="ccccsssccccccscscccsssccsccccccccscscccsccccsccccccccccc" /><path
           d="m 839.11684,166.01535 c 0,0.68619 -0.17452,1.33273 -0.4839,1.89994 -1.05907,0.19435 -1.70164,0.55929 -1.89599,-0.70999 -0.004,-0.0238 -0.78933,-3.14939 -0.7933,-3.17319 -0.13487,-0.9242 0.32923,-1.25342 1.03525,-1.53503 1.26928,0.65843 2.13794,1.98721 2.13794,3.51827 z"
           fill="#786fa6"
           id="path3381"
           style="stroke-width:0.24053;opacity:1" /><path
           d="m 853.83608,162.0859 -1.12655,0.25604 c -0.6145,0.13761 -1.22898,-0.24642 -1.3666,-0.86411 l -0.6273,-2.76199 c -0.14082,-0.61771 0.24645,-1.22899 0.86413,-1.36981 l 0.69449,-0.15682 z"
           fill="#786fa6"
           id="path3383"
           style="stroke-width:0.24053;opacity:1" /></g></g><polygon
       points=""
       fill="#3f3d56"
       id="polygon3030"
       transform="matrix(0.26458333,0,0,0.26458333,-328.53574,-238.99235)" /></g></svg>
